<svg width="581" height="104" viewBox="0 0 581 104" fill="none" xmlns="http://www.w3.org/2000/svg"><path d="M.33 31h5.643l1.518-4.686h8.91L17.952 31h5.94L15.015 6.448H9.174L.33 31zm9.999-13.299c.792-2.409 1.65-6.534 1.65-6.534h.066s.528 3.168 1.584 6.534l1.485 4.587H8.811l1.518-4.587zM5.577 5.095h5.049V.672999H5.577V5.095zm8.085 0h5.016V.672999h-5.016V5.095zm17.3358 8.349h-4.983V31h5.181v-8.151c0-3.432 1.848-5.181 4.653-5.148.363 0 .726.033 1.089.099h.132v-4.521c-.231-.099-.594-.132-1.089-.132-2.178 0-3.762.99-4.884 3.432h-.099v-3.135zm23.2111 18.117c2.376 0 4.323-.99 5.346-3.135h.066V31h4.983V6.448h-5.181v5.379c0 1.485.066 2.97.132 4.059h-.066c-1.188-1.815-2.805-2.937-5.214-2.937-4.554 0-7.59 3.894-7.59 9.273 0 5.808 2.97 9.339 7.524 9.339zm1.386-4.158c-2.409 0-3.63-2.046-3.63-5.214 0-3.135 1.221-5.313 3.663-5.313 2.673 0 3.96 2.244 3.96 5.346 0 3.069-1.485 5.181-3.993 5.181zM84.3733 31V13.444h-5.115v9.933c0 2.178-1.287 3.762-3.366 3.762-1.848 0-2.805-1.122-2.805-3.069V13.444h-5.181V25.06c0 3.861 2.178 6.435 6.171 6.435 2.409 0 3.993-.957 5.28-3.003h.099V31h4.917zm21.7747.561c4.554 0 7.524-3.531 7.524-9.339 0-5.379-3.003-9.273-7.557-9.273-2.442 0-4.059 1.155-5.247 2.937h-.099c.066-1.056.165-2.574.165-4.059V6.448h-5.1809V31h4.9829v-2.574h.066c1.023 2.145 3.003 3.135 5.346 3.135zm-1.386-4.158c-2.508 0-3.993-2.112-3.993-5.181 0-3.036 1.254-5.346 3.96-5.346 2.442 0 3.663 2.178 3.663 5.313 0 3.168-1.221 5.214-3.63 5.214zm19.935 4.125c4.521 0 7.392-2.376 8.283-5.478h-5.016c-.561 1.089-1.584 1.716-3.201 1.716-2.508 0-3.927-1.584-4.257-4.224h12.804c.033-3.465-.858-6.435-2.838-8.349-1.551-1.419-3.531-2.244-6.039-2.244-5.346 0-9.009 4.026-9.009 9.306 0 5.247 3.531 9.273 9.273 9.273zm-.264-14.916c2.046 0 3.432 1.485 3.597 3.927h-7.491c.33-2.409 1.518-3.927 3.894-3.927zm16.457-3.168h-4.983V31h5.181v-8.151c0-3.432 1.848-5.181 4.653-5.148.363 0 .726.033 1.089.099h.132v-4.521c-.231-.099-.594-.132-1.089-.132-2.178 0-3.762.99-4.884 3.432h-.099v-3.135zm16.678 18.084c4.521 0 7.392-2.376 8.283-5.478h-5.016c-.561 1.089-1.584 1.716-3.201 1.716-2.508 0-3.927-1.584-4.257-4.224h12.804c.033-3.465-.858-6.435-2.838-8.349-1.551-1.419-3.531-2.244-6.039-2.244-5.346 0-9.009 4.026-9.009 9.306 0 5.247 3.531 9.273 9.273 9.273zm-.264-14.916c2.046 0 3.432 1.485 3.597 3.927h-7.491c.33-2.409 1.518-3.927 3.894-3.927zm18.174 14.949c2.376 0 4.323-.99 5.346-3.135h.066V31h4.983V6.448h-5.181v5.379c0 1.485.066 2.97.132 4.059h-.066c-1.188-1.815-2.805-2.937-5.215-2.937-4.553 0-7.589 3.894-7.589 9.273 0 5.808 2.97 9.339 7.524 9.339zm1.386-4.158c-2.409 0-3.63-2.046-3.63-5.214 0-3.135 1.221-5.313 3.663-5.313 2.673 0 3.96 2.244 3.96 5.346 0 3.069-1.485 5.181-3.993 5.181zm19.142 4.158c2.376 0 4.323-.99 5.346-3.135h.066V31h4.983V6.448h-5.181v5.379c0 1.485.066 2.97.132 4.059h-.066c-1.188-1.815-2.805-2.937-5.214-2.937-4.554 0-7.59 3.894-7.59 9.273 0 5.808 2.97 9.339 7.524 9.339zm1.386-4.158c-2.409 0-3.63-2.046-3.63-5.214 0-3.135 1.221-5.313 3.663-5.313 2.673 0 3.96 2.244 3.96 5.346 0 3.069-1.485 5.181-3.993 5.181zM229.048 31h5.049v-.297c-.462-.297-.66-1.056-.66-2.442v-9.009c0-2.376-.858-4.191-2.673-5.247-1.221-.726-2.805-1.056-5.049-1.056-5.214 0-7.656 2.805-7.788 5.808h4.785c.132-1.386 1.089-2.31 3.069-2.31 1.782 0 2.607.858 2.607 2.112 0 1.32-1.287 1.815-4.422 2.244-3.828.462-6.897 1.452-6.897 5.346 0 3.465 2.541 5.313 6.006 5.313 2.706 0 4.158-.99 5.313-2.607h.066c.099.99.33 1.749.594 2.145zm-4.356-2.937c-1.419 0-2.574-.561-2.574-2.079 0-1.518 1.089-2.079 3.366-2.574 1.155-.264 2.277-.528 3.036-.99v2.277c0 1.914-1.518 3.366-3.828 3.366zm11.062-11.319h2.64v9.834c0 3.564 2.211 4.62 5.478 4.62 1.386 0 2.442-.165 3.003-.264v-3.861h-.264c-.33.033-.858.066-1.188.066-1.221 0-1.947-.363-1.947-1.683v-8.712h3.432v-3.3h-3.432v-5.61h-5.082v5.61h-2.64v3.3zm12.665 0h2.64v9.834c0 3.564 2.211 4.62 5.478 4.62 1.386 0 2.442-.165 3.003-.264v-3.861h-.264c-.33.033-.858.066-1.188.066-1.221 0-1.947-.363-1.947-1.683v-8.712h3.432v-3.3h-3.432v-5.61h-5.082v5.61h-2.64v3.3zm20.786 0h2.64v9.834c0 3.564 2.211 4.62 5.478 4.62 1.386 0 2.442-.165 3.003-.264v-3.861h-.264c-.33.033-.858.066-1.188.066-1.221 0-1.947-.363-1.947-1.683v-8.712h3.432v-3.3h-3.432v-5.61h-5.082v5.61h-2.64v3.3zM294.629 31h5.049v-.297c-.462-.297-.66-1.056-.66-2.442v-9.009c0-2.376-.858-4.191-2.673-5.247-1.221-.726-2.805-1.056-5.049-1.056-5.214 0-7.656 2.805-7.788 5.808h4.785c.132-1.386 1.089-2.31 3.069-2.31 1.782 0 2.607.858 2.607 2.112 0 1.32-1.287 1.815-4.422 2.244-3.828.462-6.897 1.452-6.897 5.346 0 3.465 2.541 5.313 6.006 5.313 2.706 0 4.158-.99 5.313-2.607h.066c.099.99.33 1.749.594 2.145zm-4.356-2.937c-1.419 0-2.574-.561-2.574-2.079 0-1.518 1.089-2.079 3.366-2.574 1.155-.264 2.277-.528 3.036-.99v2.277c0 1.914-1.518 3.366-3.828 3.366zm30.205 3.531c5.61 0 9.9-2.838 9.9-7.92 0-5.181-4.059-6.633-8.481-7.623-3.861-.858-5.973-1.287-5.973-3.201 0-1.551 1.551-2.541 3.861-2.541 2.442 0 3.96 1.122 4.257 3.036h5.511c-.363-4.818-4.191-7.326-9.603-7.326s-9.57 2.31-9.57 7.392c0 5.115 3.894 6.303 8.679 7.392 3.564.825 5.643 1.287 5.643 3.432 0 2.013-2.046 2.871-4.224 2.871-3.168 0-4.917-1.188-5.214-3.861h-5.676c.165 5.313 4.323 8.349 10.89 8.349zM337.139 31h5.577l6.138-17.556h-5.214l-2.211 7.062c-.726 2.343-1.386 6.138-1.386 6.138h-.099s-.66-3.795-1.386-6.138l-2.145-7.062h-5.346L337.139 31zm21.394.528c4.521 0 7.392-2.376 8.283-5.478H361.8c-.561 1.089-1.584 1.716-3.201 1.716-2.508 0-3.927-1.584-4.257-4.224h12.804c.033-3.465-.858-6.435-2.838-8.349-1.551-1.419-3.531-2.244-6.039-2.244-5.346 0-9.009 4.026-9.009 9.306 0 5.247 3.531 9.273 9.273 9.273zm-.264-14.916c2.046 0 3.432 1.485 3.597 3.927h-7.491c.33-2.409 1.518-3.927 3.894-3.927zm16.457-3.168h-4.983V31h5.181v-8.151c0-3.432 1.848-5.181 4.653-5.148.363 0 .726.033 1.089.099h.132v-4.521c-.231-.099-.594-.132-1.089-.132-2.178 0-3.762.99-4.884 3.432h-.099v-3.135zm8.52-2.475h5.247V6.448h-5.247v4.521zM383.279 31h5.181V13.444h-5.181V31zm16.755 6.105c2.574 0 4.818-.594 6.336-1.914 1.419-1.254 2.277-3.135 2.277-5.742V13.444h-4.95v2.244h-.066c-.99-1.947-2.673-2.739-5.049-2.739-4.323 0-7.392 3.531-7.392 8.646 0 5.313 3.597 8.316 7.656 8.316 2.178 0 3.729-.858 4.752-2.574h.132c-.066.594-.099 1.419-.099 2.31v.363c0 2.145-1.221 3.399-3.663 3.399-2.013 0-3.003-.726-3.333-1.782h-5.049c.528 3.465 3.63 5.478 8.448 5.478zm-.033-11.088c-2.31 0-3.729-1.782-3.729-4.554 0-2.805 1.419-4.587 3.696-4.587 2.541 0 3.828 1.947 3.828 4.554s-1.155 4.587-3.795 4.587zm20.568 5.511c4.521 0 7.392-2.376 8.283-5.478h-5.016c-.561 1.089-1.584 1.716-3.201 1.716-2.508 0-3.927-1.584-4.257-4.224h12.804c.033-3.465-.858-6.435-2.838-8.349-1.551-1.419-3.531-2.244-6.039-2.244-5.346 0-9.009 4.026-9.009 9.306 0 5.247 3.531 9.273 9.273 9.273zm-.264-14.916c2.046 0 3.432 1.485 3.597 3.927h-7.491c.33-2.409 1.518-3.927 3.894-3.927zm18.767 14.949c4.554 0 7.92-1.98 7.92-5.775 0-4.422-3.564-5.247-6.699-5.808-2.409-.429-4.323-.627-4.323-1.947 0-1.122 1.023-1.782 2.607-1.782 1.65 0 2.64.627 2.97 1.881h4.818c-.462-3.069-2.904-5.181-7.788-5.181-4.125 0-7.392 1.881-7.392 5.478 0 4.092 3.168 4.884 6.303 5.478 2.442.462 4.521.66 4.521 2.244 0 1.254-1.056 2.013-2.904 2.013-2.013 0-3.267-.924-3.564-2.574h-4.884c.264 3.531 3.333 5.973 8.415 5.973zM6.237 67h5.577l6.138-17.556h-5.214l-2.211 7.062c-.726 2.343-1.386 6.138-1.386 6.138h-.099s-.66-3.795-1.386-6.138l-2.145-7.062H.165L6.237 67zm13.5573-20.031h5.247v-4.521h-5.247v4.521zM19.8273 67h5.181V49.444h-5.181V67zm20.0555 0h6.006l-6.996-11.055 6.27-6.501h-6.006l-5.775 6.303c.066-1.122.165-3.069.165-5.643v-7.656h-5.115V67h5.115v-5.841l1.749-1.815L39.8828 67zm6.6686-14.256h2.64v9.834c0 3.564 2.211 4.62 5.478 4.62 1.386 0 2.442-.165 3.003-.264v-3.861h-.264c-.33.033-.858.066-1.188.066-1.221 0-1.947-.363-1.947-1.683v-8.712h3.432v-3.3h-3.432v-5.61h-5.082v5.61h-2.64v3.3zm13.8162-5.775h5.247v-4.521h-5.247v4.521zM60.4006 67h5.181V49.444h-5.181V67zm16.7555 6.105c2.574 0 4.818-.594 6.336-1.914 1.419-1.254 2.277-3.135 2.277-5.742V49.444h-4.95v2.244h-.066c-.99-1.947-2.673-2.739-5.049-2.739-4.323 0-7.392 3.531-7.392 8.646 0 5.313 3.597 8.316 7.656 8.316 2.178 0 3.729-.858 4.752-2.574h.132c-.066.594-.099 1.419-.099 2.31v.363c0 2.145-1.221 3.399-3.663 3.399-2.013 0-3.003-.726-3.333-1.782h-5.049c.528 3.465 3.63 5.478 8.448 5.478zm-.033-11.088c-2.31 0-3.729-1.782-3.729-4.554 0-2.805 1.419-4.587 3.696-4.587 2.541 0 3.828 1.947 3.828 4.554s-1.155 4.587-3.795 4.587zM100.496 67h5.049v-.297c-.462-.297-.66-1.056-.66-2.442v-9.009c0-2.376-.858-4.191-2.673-5.247-1.221-.726-2.8047-1.056-5.0487-1.056-5.214 0-7.656 2.805-7.788 5.808h4.785c.132-1.386 1.089-2.31 3.069-2.31 1.782 0 2.607.858 2.607 2.112 0 1.32-1.287 1.815-4.422 2.244-3.828.462-6.897 1.452-6.897 5.346 0 3.465 2.541 5.313 6.006 5.313 2.706 0 4.158-.99 5.313-2.607h.066c.0987.99.3297 1.749.5937 2.145zm-4.3557-2.937c-1.419 0-2.574-.561-2.574-2.079 0-1.518 1.089-2.079 3.366-2.574 1.155-.264 2.277-.528 3.036-.99v2.277c0 1.914-1.518 3.366-3.828 3.366zm19.5387 3.498c4.554 0 7.92-1.98 7.92-5.775 0-4.422-3.564-5.247-6.699-5.808-2.409-.429-4.323-.627-4.323-1.947 0-1.122 1.023-1.782 2.607-1.782 1.65 0 2.64.627 2.97 1.881h4.818c-.462-3.069-2.904-5.181-7.788-5.181-4.125 0-7.392 1.881-7.392 5.478 0 4.092 3.168 4.884 6.303 5.478 2.442.462 4.521.66 4.521 2.244 0 1.254-1.056 2.013-2.904 2.013-2.013 0-3.267-.924-3.564-2.574h-4.884c.264 3.531 3.333 5.973 8.415 5.973zm8.99-14.817h2.64v9.834c0 3.564 2.211 4.62 5.478 4.62 1.386 0 2.442-.165 3.003-.264v-3.861h-.264c-.33.033-.858.066-1.188.066-1.221 0-1.947-.363-1.947-1.683v-8.712h3.432v-3.3h-3.432v-5.61h-5.082v5.61h-2.64v3.3zm22.297 14.784c4.521 0 7.392-2.376 8.283-5.478h-5.016c-.561 1.089-1.584 1.716-3.201 1.716-2.508 0-3.927-1.584-4.257-4.224h12.804c.033-3.465-.858-6.435-2.838-8.349-1.551-1.419-3.531-2.244-6.039-2.244-5.346 0-9.009 4.026-9.009 9.306 0 5.247 3.531 9.273 9.273 9.273zm-.264-14.916c2.046 0 3.432 1.485 3.597 3.927h-7.491c.33-2.409 1.518-3.927 3.894-3.927zM166.499 67h5.643V42.448h-5.643V67zm8.641-19.767h7.293V67h5.643V47.233h7.326v-4.785H175.14v4.785zm19.829 13.266h9.339v-4.488h-9.339v4.488zm12.385 12.474c1.584 0 2.904-.363 3.861-1.32.825-.792 1.32-1.98 1.32-4.224V49.444h-5.181v17.787c0 1.287-.495 1.683-1.518 1.782-.363.033-.759.033-1.221.033h-.198v3.663c.792.165 2.013.264 2.937.264zm-.033-26.004h5.247v-4.521h-5.247v4.521zm17.118 20.592c5.577 0 9.24-4.059 9.24-9.306 0-5.28-3.663-9.306-9.24-9.306-5.61 0-9.306 4.026-9.306 9.306 0 5.247 3.696 9.306 9.306 9.306zm-.033-3.762c-2.64 0-4.026-2.244-4.026-5.544 0-3.333 1.386-5.61 4.026-5.61 2.574 0 4.026 2.277 4.026 5.61 0 3.3-1.452 5.544-4.026 5.544zm22.282 3.762c4.554 0 7.524-3.531 7.524-9.339 0-5.379-3.003-9.273-7.557-9.273-2.442 0-4.059 1.155-5.247 2.937h-.099c.066-1.056.165-2.574.165-4.059v-5.379h-5.181V67h4.983v-2.574h.066c1.023 2.145 3.003 3.135 5.346 3.135zm-1.386-4.158c-2.508 0-3.993-2.112-3.993-5.181 0-3.036 1.254-5.346 3.96-5.346 2.442 0 3.663 2.178 3.663 5.313 0 3.168-1.221 5.214-3.63 5.214zm21.882 4.158c4.554 0 7.524-3.531 7.524-9.339 0-5.379-3.003-9.273-7.557-9.273-2.442 0-4.059 1.155-5.247 2.937h-.099c.066-1.056.165-2.574.165-4.059v-5.379h-5.181V67h4.983v-2.574h.066c1.023 2.145 3.003 3.135 5.346 3.135zm-1.386-4.158c-2.508 0-3.993-2.112-3.993-5.181 0-3.036 1.254-5.346 3.96-5.346 2.442 0 3.663 2.178 3.663 5.313 0 3.168-1.221 5.214-3.63 5.214zM280.968 67h5.478v-5.412h-5.478V67zm.495-8.547h4.62c.033-.957.165-1.452.693-2.046.693-.759 1.914-1.353 3.696-2.739 1.287-1.023 2.442-2.541 2.442-5.016 0-3.993-3.234-6.633-8.382-6.633-5.709 0-8.976 3.465-9.108 7.887h5.148c.033-2.046 1.518-3.597 3.762-3.597 1.815 0 3.135.957 3.135 2.475 0 1.914-2.013 2.772-3.498 4.059-1.815 1.518-2.508 2.838-2.508 5.61z" fill="#000"/></svg>