<svg width="221" height="29" viewBox="0 0 221 29" fill="none" xmlns="http://www.w3.org/2000/svg"><path fill-rule="evenodd" clip-rule="evenodd" d="M25.536 24.2484c0 .6483-.5185 1.2967-1.2962 1.2967H1.29624C.648122 25.5451 0 25.0264 0 24.2484V1.2967C0 .648352.518498 0 1.29624 0H24.2398c.6481 0 1.2962.518682 1.2962 1.2967v22.9517z" fill="#007B4B"/><path fill-rule="evenodd" clip-rule="evenodd" d="M10.4996 10.244c-.2592 0-.3889.1297-.3889.389v5.9648c0 .2594.1297.5187.2593.7781L16.5919 23.6c.1297.1297.5185.2593.7778.2593h5.9627c.2593 0 .3889-.1296.3889-.389v-5.9648c0-.2593-.1297-.5187-.2593-.778l-6.2219-6.2241c-.1297-.1297-.5185-.2594-.7778-.2594h-5.9627z" fill="#fff"/><path fill-rule="evenodd" clip-rule="evenodd" d="M2.07398 1.68542c-.25925 0-.38888.12967-.38888.38902V23.4701c0 .2593.12963.2593.25925.1296l6.22197-6.2241c.12963-.1297.25925-.5187.25925-.7781V8.94697c0-.25934.12963-.38901.38887-.38901h7.64786c.2592 0 .5185-.12967.7777-.25934l6.222-6.22418c.1296-.12968.1296-.25935-.1296-.25935H2.07398v-.12967z" fill="#fff"/><path d="M37.3318 9.33594h10.7588v2.85276h-7.3885v3.5011h6.3515v2.5934h-6.3515v6.3538h-3.3703V9.33594zM51.4609 19.1913c0-1.8154.6481-3.5011 2.7221-3.5011 2.074 0 2.7221 1.8154 2.7221 3.5011 0 1.8153-.6481 3.501-2.7221 3.501-2.074 0-2.7221-1.8153-2.7221-3.501zm3.3702-7.2615h2.8518V9.46606h-2.8518v2.46374zm-4.4072 0h2.8517V9.46606h-2.8517v2.46374zm-2.074 7.2615c0 3.501 2.2036 5.8351 5.7035 5.8351 3.4998 0 5.7034-2.3341 5.7034-5.8351 0-3.5011-2.2036-5.8352-5.7034-5.8352-3.3702 0-5.7035 2.2044-5.7035 5.8352zM61.0531 13.6155h2.8517v2.0748c.5185-1.4264 2.074-2.3341 3.4999-2.3341.2592 0 .5185 0 .6481.1297v2.8527c-.2593 0-.7777-.1297-1.037-.1297-2.2036 0-2.9814 1.5561-2.9814 3.5011v5.0572h-2.9813V13.6155zM71.5527 21.1364c0 1.2967 1.1666 1.8154 2.3332 1.8154.9074 0 1.9444-.389 1.9444-1.4264 0-.9077-1.2963-1.2967-3.4999-1.6857-1.8147-.389-3.4999-1.0374-3.4999-2.9824 0-2.8527 2.4629-3.5011 4.7961-3.5011 2.4629 0 4.6665.778 4.9258 3.5011h-2.8518c-.1296-1.167-1.037-1.556-2.074-1.556-.6481 0-1.6851.1296-1.6851 1.0373 0 1.0374 1.6852 1.2967 3.4999 1.6857 1.8147.389 3.4999 1.0374 3.4999 3.1121 0 2.8527-2.5925 3.8901-5.0554 3.8901-2.5925 0-5.0554-.9077-5.185-3.8901h2.8518zM87.2372 20.3583c0 .6483-.1296 2.5934-2.4628 2.5934-1.037 0-1.8148-.2594-1.8148-1.4264 0-1.167.9074-1.4263 1.8148-1.6857.9073-.1296 2.074-.2593 2.5925-.6483v1.167h-.1297zm-1.1666-8.4285h2.8517V9.46606h-2.8517v2.46374zm-4.4072 0h2.8517V9.46606h-2.8517v2.46374zm1.5555 5.0571c.1296-1.167.9073-1.6857 2.074-1.6857 1.037 0 1.9443.1297 1.9443 1.556 0 1.2967-1.6851 1.167-3.6295 1.4264-1.9443.2593-3.7591.9077-3.7591 3.3714 0 2.334 1.6852 3.3714 3.7591 3.3714 1.2963 0 2.7222-.389 3.7592-1.4264 0 .389.1296.7781.2592 1.0374h3.111c-.2593-.389-.3889-1.4264-.3889-2.4637v-5.7055c0-2.723-2.7221-3.1121-4.9257-3.1121-2.4629 0-5.0554.9077-5.185 3.7605h2.9814v-.1297zM92.0333 9.33594h2.9814v8.16926l3.8887-4.0198h3.6296l-4.1481 4.0198 4.6661 7.0021h-3.6291l-3.111-4.7978-1.1666 1.1671v3.7604H92.163V9.33594h-.1297zM104.088 13.6155h2.852v2.0748c.519-1.4264 2.074-2.3341 3.5-2.3341.259 0 .518 0 .648.1297v2.8527c-.259 0-.778-.1297-1.037-.1297-2.204 0-2.981 1.5561-2.981 3.5011v5.0572h-2.982V13.6155zM112.514 13.6155h3.111v11.1516h-3.111V13.6155zm3.111-1.6857h-3.111V9.46606h3.111v2.46374zM117.569 13.6155h2.852v1.5561c.778-1.2967 2.074-1.8154 3.37-1.8154 3.241 0 4.019 1.8154 4.019 4.5385v6.8725h-2.982V18.543c0-1.8154-.518-2.7231-1.944-2.7231-1.685 0-2.333.9077-2.333 3.2418v5.8352h-2.982V13.6155zM134.809 22.044c-1.814 0-2.462-1.6857-2.462-3.3714s.777-3.1121 2.462-3.1121c1.945 0 2.593 1.5561 2.593 3.3714 0 1.6858-.778 3.1121-2.593 3.1121zm5.574-8.4285h-2.852v1.4263c-.777-1.2967-1.814-1.8154-3.24-1.8154-3.111 0-4.796 2.5935-4.796 5.4462 0 2.9824 1.426 5.5758 4.796 5.5758 1.296 0 2.592-.5186 3.37-1.6857v1.4264c0 1.5561-.778 2.7231-2.463 2.7231-1.037 0-1.944-.389-2.333-1.5561h-2.981c.129 2.4638 2.722 3.5011 4.925 3.5011 5.056 0 5.704-3.112 5.704-4.9274V13.6155h-.13zM144.402 21.1364c0 1.2967 1.166 1.8154 2.333 1.8154.907 0 1.944-.389 1.944-1.4264 0-.9077-1.296-1.2967-3.5-1.6857-1.814-.389-3.5-1.0374-3.5-2.9824 0-2.8527 2.463-3.5011 4.797-3.5011 2.462 0 4.666.778 4.925 3.5011h-2.851c-.13-1.167-1.037-1.556-2.074-1.556-.649 0-1.686.1296-1.686 1.0373 0 1.0374 1.686 1.2967 3.5 1.6857 1.815.389 3.5 1.0374 3.5 3.1121 0 2.8527-2.592 3.8901-5.055 3.8901-2.593 0-5.056-.9077-5.185-3.8901h2.852zM152.957 9.33594h2.981v8.16926l3.889-4.0198h3.629l-4.148 4.0198 4.667 7.0022h-3.63l-2.981-4.9275-1.167 1.1671v3.7604h-2.981V9.33594h-.259zM171.493 20.3584c0 .6483-.13 2.5934-2.463 2.5934-1.037 0-1.815-.2594-1.815-1.4264 0-1.167.908-1.4264 1.815-1.6857.908-.1297 2.074-.2593 2.593-.6483v1.167h-.13zm-4.018-3.3714c.129-1.1671.907-1.6857 2.074-1.6857 1.037 0 1.944.1296 1.944 1.556 0 1.2967-1.685 1.167-3.629 1.4264-1.945.2593-3.76.9077-3.76 3.3714 0 2.334 1.686 3.3714 3.76 3.3714 1.296 0 2.722-.389 3.759-1.4264 0 .389.129.7781.259 1.0374h3.111c-.259-.389-.389-1.4264-.389-2.4637v-5.7055c0-2.7231-2.592-3.1121-4.926-3.1121-2.463 0-5.055.9077-5.185 3.7604h2.982v-.1296zM178.882 21.1364c0 1.2967 1.166 1.8154 2.333 1.8154.907 0 1.944-.389 1.944-1.4264 0-.9077-1.296-1.2967-3.5-1.6857-1.814-.389-3.499-1.0374-3.499-2.9824 0-2.8527 2.462-3.5011 4.796-3.5011 2.463 0 4.666.778 4.925 3.5011h-2.851c-.13-1.167-1.037-1.556-2.074-1.556-.648 0-1.685.1296-1.685 1.0373 0 1.0374 1.685 1.2967 3.499 1.6857 1.815.389 3.5 1.0374 3.5 3.1121 0 2.8527-2.463 3.8901-5.055 3.8901-2.593 0-5.055-.9077-5.185-3.8901h2.852zM190.029 21.1364c0 1.2967 1.167 1.8154 2.334 1.8154.907 0 1.944-.389 1.944-1.4264 0-.9077-1.296-1.2967-3.5-1.6857-1.815-.389-3.5-1.0374-3.5-2.9824 0-2.8527 2.463-3.5011 4.796-3.5011 2.463 0 4.667.778 4.926 3.5011h-2.852c-.129-1.167-1.037-1.556-2.074-1.556-.648 0-1.685.1296-1.685 1.0373 0 1.0374 1.685 1.2967 3.5 1.6857s3.5 1.0374 3.5 3.1121c0 2.8527-2.593 3.8901-5.055 3.8901-2.593 0-5.056-.9077-5.185-3.8901h2.851zM205.714 20.3584c0 .6483-.13 2.5934-2.463 2.5934-1.037 0-1.815-.2594-1.815-1.4264 0-1.167.908-1.4264 1.815-1.6857.907-.1297 2.074-.2593 2.593-.6483v1.167h-.13zm-4.018-3.3714c.129-1.1671.907-1.6857 2.074-1.6857 1.037 0 1.944.1296 1.944 1.556 0 1.2967-1.685 1.167-3.63 1.4264-1.944.2593-3.759.9077-3.759 3.3714 0 2.334 1.685 3.3714 3.759 3.3714 1.297 0 2.723-.389 3.76-1.4264 0 .389.129.7781.259 1.0374h3.111c-.259-.389-.389-1.4264-.389-2.4637v-5.7055c0-2.7231-2.593-3.1121-4.926-3.1121-2.463 0-5.055.9077-5.185 3.7604h2.982v-.1296zM210.64 13.6155h2.851v1.5561c.778-1.2967 2.074-1.8154 3.371-1.8154 3.24 0 4.018 1.8154 4.018 4.5385v6.8725h-3.111V18.543c0-1.8154-.518-2.7231-1.944-2.7231-1.685 0-2.334.9077-2.334 3.2418v5.8352h-2.981V13.6155h.13z" fill="#1A171B"/></svg>