<svg width="274" height="51" viewBox="0 0 274 51" fill="none" xmlns="http://www.w3.org/2000/svg"><path d="M.2 19h3.42l.92-2.84h5.4l.94 2.84h3.6L9.1 4.12H5.56L.2 19zm6.06-8.06c.48-1.46 1-3.96 1-3.96h.04s.32 1.92.96 3.96l.9 2.78H5.34l.92-2.78zM3.38 3.3h3.06V.619999H3.38V3.3zm4.9 0h3.04V.619999H8.28V3.3zm10.5066 5.06h-3.02V19h3.14v-4.94c0-2.08 1.12-3.14 2.82-3.12.22 0 .44.02.66.06h.08V8.26c-.14-.06-.36-.08-.66-.08-1.32 0-2.28.6-2.96 2.08h-.06v-1.9zm14.0673 10.98c1.44 0 2.62-.6 3.24-1.9h.04V19h3.02V4.12h-3.14v3.26c0 .9.04 1.8.08 2.46h-.04c-.72-1.1-1.7-1.78-3.16-1.78-2.76 0-4.6 2.36-4.6 5.62 0 3.52 1.8 5.66 4.56 5.66zm.84-2.52c-1.46 0-2.2-1.24-2.2-3.16 0-1.9.74-3.22 2.22-3.22 1.62 0 2.4 1.36 2.4 3.24 0 1.86-.9 3.14-2.42 3.14zM51.1353 19V8.36h-3.1v6.02c0 1.32-.78 2.28-2.04 2.28-1.12 0-1.7-.68-1.7-1.86V8.36h-3.14v7.04c0 2.34 1.32 3.9 3.74 3.9 1.46 0 2.42-.58 3.2-1.82h.06V19h2.98zm13.1969.34c2.76 0 4.56-2.14 4.56-5.66 0-3.26-1.82-5.62-4.58-5.62-1.48 0-2.46.7-3.18 1.78h-.06c.04-.64.1-1.56.1-2.46V4.12h-3.14V19h3.02v-1.56h.04c.62 1.3 1.82 1.9 3.24 1.9zm-.84-2.52c-1.52 0-2.42-1.28-2.42-3.14 0-1.84.76-3.24 2.4-3.24 1.48 0 2.22 1.32 2.22 3.22 0 1.92-.74 3.16-2.2 3.16zm12.0819 2.5c2.74 0 4.48-1.44 5.02-3.32h-3.04c-.34.66-.96 1.04-1.94 1.04-1.52 0-2.38-.96-2.58-2.56h7.76c.02-2.1-.52-3.9-1.72-5.06-.94-.86-2.14-1.36-3.66-1.36-3.24 0-5.46 2.44-5.46 5.64 0 3.18 2.14 5.62 5.62 5.62zm-.16-9.04c1.24 0 2.08.9 2.18 2.38h-4.54c.2-1.46.92-2.38 2.36-2.38zm9.974-1.92h-3.02V19h3.14v-4.94c0-2.08 1.12-3.14 2.82-3.12.22 0 .44.02.66.06h.08V8.26c-.14-.06-.36-.08-.66-.08-1.32 0-2.28.6-2.96 2.08h-.06v-1.9zm10.1078 10.96c2.74 0 4.48-1.44 5.0201-3.32h-3.0401c-.34.66-.96 1.04-1.94 1.04-1.52 0-2.38-.96-2.58-2.56h7.7601c.02-2.1-.52-3.9-1.7201-5.06-.94-.86-2.14-1.36-3.66-1.36-3.24 0-5.46 2.44-5.46 5.64 0 3.18 2.14 5.62 5.62 5.62zm-.16-9.04c1.24 0 2.08.9 2.18 2.38h-4.54c.2-1.46.92-2.38 2.36-2.38zm11.0141 9.06c1.44 0 2.62-.6 3.24-1.9h.04V19h3.02V4.12h-3.14v3.26c0 .9.04 1.8.08 2.46h-.04c-.72-1.1-1.7-1.78-3.16-1.78-2.76 0-4.6 2.36-4.6 5.62 0 3.52 1.8 5.66 4.56 5.66zm.84-2.52c-1.46 0-2.2-1.24-2.2-3.16 0-1.9.74-3.22 2.22-3.22 1.62 0 2.4 1.36 2.4 3.24 0 1.86-.9 3.14-2.42 3.14zm11.601 2.52c1.44 0 2.62-.6 3.24-1.9h.04V19h3.02V4.12h-3.14v3.26c0 .9.04 1.8.08 2.46h-.04c-.72-1.1-1.7-1.78-3.16-1.78-2.76 0-4.6 2.36-4.6 5.62 0 3.52 1.8 5.66 4.56 5.66zm.84-2.52c-1.46 0-2.2-1.24-2.2-3.16 0-1.9.74-3.22 2.22-3.22 1.62 0 2.4 1.36 2.4 3.24 0 1.86-.9 3.14-2.42 3.14zM138.817 19h3.06v-.18c-.28-.18-.4-.64-.4-1.48v-5.46c0-1.44-.52-2.54-1.62-3.18-.74-.44-1.7-.64-3.06-.64-3.16 0-4.64 1.7-4.72 3.52h2.9c.08-.84.66-1.4 1.86-1.4 1.08 0 1.58.52 1.58 1.28 0 .8-.78 1.1-2.68 1.36-2.32.28-4.18.88-4.18 3.24 0 2.1 1.54 3.22 3.64 3.22 1.64 0 2.52-.6 3.22-1.58h.04c.06.6.2 1.06.36 1.3zm-2.64-1.78c-.86 0-1.56-.34-1.56-1.26 0-.92.66-1.26 2.04-1.56.7-.16 1.38-.32 1.84-.6v1.38c0 1.16-.92 2.04-2.32 2.04zm6.704-6.86h1.6v5.96c0 2.16 1.34 2.8 3.32 2.8.84 0 1.48-.1 1.82-.16v-2.34h-.16c-.2.02-.52.04-.72.04-.74 0-1.18-.22-1.18-1.02v-5.28h2.08v-2h-2.08v-3.4h-3.08v3.4h-1.6v2zm7.676 0h1.6v5.96c0 2.16 1.34 2.8 3.32 2.8.84 0 1.48-.1 1.82-.16v-2.34h-.16c-.2.02-.52.04-.72.04-.74 0-1.18-.22-1.18-1.02v-5.28h2.08v-2h-2.08v-3.4h-3.08v3.4h-1.6v2zm12.597 0h1.6v5.96c0 2.16 1.34 2.8 3.32 2.8.84 0 1.48-.1 1.82-.16v-2.34h-.16c-.2.02-.52.04-.72.04-.74 0-1.18-.22-1.18-1.02v-5.28h2.08v-2h-2.08v-3.4h-3.08v3.4h-1.6v2zM178.563 19h3.06v-.18c-.28-.18-.4-.64-.4-1.48v-5.46c0-1.44-.52-2.54-1.62-3.18-.74-.44-1.7-.64-3.06-.64-3.16 0-4.64 1.7-4.72 3.52h2.9c.08-.84.66-1.4 1.86-1.4 1.08 0 1.58.52 1.58 1.28 0 .8-.78 1.1-2.68 1.36-2.32.28-4.18.88-4.18 3.24 0 2.1 1.54 3.22 3.64 3.22 1.64 0 2.52-.6 3.22-1.58h.04c.06.6.2 1.06.36 1.3zm-2.64-1.78c-.86 0-1.56-.34-1.56-1.26 0-.92.66-1.26 2.04-1.56.7-.16 1.38-.32 1.84-.6v1.38c0 1.16-.92 2.04-2.32 2.04zM7.1 41.36c3.4 0 6-1.72 6-4.8 0-3.14-2.46-4.02-5.14-4.62-2.34-.52-3.62-.78-3.62-1.94 0-.94.94-1.54 2.34-1.54 1.48 0 2.4.68 2.58 1.84h3.34c-.22-2.92-2.54-4.44-5.82-4.44-3.28 0-5.8 1.4-5.8 4.48 0 3.1 2.36 3.82 5.26 4.48 2.16.5 3.42.78 3.42 2.08 0 1.22-1.24 1.74-2.56 1.74-1.92 0-2.98-.72-3.16-2.34H.5c.1 3.22 2.62 5.06 6.6 5.06zM17.198 41h3.38l3.72-10.64h-3.16l-1.34 4.28c-.44 1.42-.84 3.72-.84 3.72h-.06s-.4-2.3-.84-3.72l-1.3-4.28h-3.24L17.198 41zm12.9659.32c2.74 0 4.48-1.44 5.02-3.32h-3.04c-.34.66-.96 1.04-1.94 1.04-1.52 0-2.38-.96-2.58-2.56h7.76c.02-2.1-.52-3.9-1.72-5.06-.94-.86-2.14-1.36-3.66-1.36-3.24 0-5.46 2.44-5.46 5.64 0 3.18 2.14 5.62 5.62 5.62zm-.16-9.04c1.24 0 2.08.9 2.18 2.38h-4.54c.2-1.46.92-2.38 2.36-2.38zm9.9741-1.92h-3.02V41h3.14v-4.94c0-2.08 1.12-3.14 2.82-3.12.22 0 .44.02.66.06h.08v-2.74c-.14-.06-.36-.08-.66-.08-1.32 0-2.28.6-2.96 2.08h-.06v-1.9zm5.1631-1.5h3.18v-2.74h-3.18v2.74zm.02 12.14h3.14V30.36h-3.14V41zm10.1548 3.7c1.56 0 2.92-.36 3.84-1.16.86-.76 1.38-1.9 1.38-3.48v-9.7h-3v1.36h-.04c-.6-1.18-1.62-1.66-3.06-1.66-2.62 0-4.48 2.14-4.48 5.24 0 3.22 2.18 5.04 4.64 5.04 1.32 0 2.26-.52 2.88-1.56h.08c-.04.36-.06.86-.06 1.4v.22c0 1.3-.74 2.06-2.22 2.06-1.22 0-1.82-.44-2.02-1.08h-3.06c.32 2.1 2.2 3.32 5.12 3.32zm-.02-6.72c-1.4 0-2.26-1.08-2.26-2.76 0-1.7.86-2.78 2.24-2.78 1.54 0 2.32 1.18 2.32 2.76 0 1.58-.7 2.78-2.3 2.78zm12.4657 3.34c2.74 0 4.48-1.44 5.02-3.32h-3.04c-.34.66-.96 1.04-1.94 1.04-1.52 0-2.38-.96-2.58-2.56h7.76c.02-2.1-.52-3.9-1.72-5.06-.94-.86-2.14-1.36-3.66-1.36-3.24 0-5.46 2.44-5.46 5.64 0 3.18 2.14 5.62 5.62 5.62zm-.16-9.04c1.24 0 2.08.9 2.18 2.38h-4.54c.2-1.46.92-2.38 2.36-2.38zm11.374 9.06c2.76 0 4.8-1.2 4.8-3.5 0-2.68-2.16-3.18-4.06-3.52-1.46-.26-2.62-.38-2.62-1.18 0-.68.62-1.08 1.58-1.08 1 0 1.6.38 1.8 1.14h2.92c-.28-1.86-1.76-3.14-4.72-3.14-2.5 0-4.48 1.14-4.48 3.32 0 2.48 1.92 2.96 3.82 3.32 1.48.28 2.74.4 2.74 1.36 0 .76-.64 1.22-1.76 1.22-1.22 0-1.98-.56-2.16-1.56h-2.96c.16 2.14 2.02 3.62 5.1 3.62zM92.9011 41h3.38l3.7199-10.64h-3.1599l-1.34 4.28c-.44 1.42-.84 3.72-.84 3.72h-.06s-.4-2.3-.84-3.72l-1.3-4.28h-3.24l3.68 10.64zm8.2169-12.14h3.18v-2.74h-3.18v2.74zm.02 12.14h3.14V30.36h-3.14V41zm12.155 0h3.64l-4.24-6.7 3.8-3.94h-3.64l-3.5 3.82c.04-.68.1-1.86.1-3.42v-4.64h-3.1V41h3.1v-3.54l1.06-1.1 2.78 4.64zm4.041-8.64h1.6v5.96c0 2.16 1.34 2.8 3.32 2.8.84 0 1.48-.1 1.82-.16v-2.34h-.16c-.2.02-.52.04-.72.04-.74 0-1.18-.22-1.18-1.02v-5.28h2.08v-2h-2.08v-3.4h-3.08v3.4h-1.6v2zm8.374-3.5h3.18v-2.74h-3.18v2.74zm.02 12.14h3.14V30.36h-3.14V41zm10.154 3.7c1.56 0 2.92-.36 3.84-1.16.86-.76 1.38-1.9 1.38-3.48v-9.7h-3v1.36h-.04c-.6-1.18-1.62-1.66-3.06-1.66-2.62 0-4.48 2.14-4.48 5.24 0 3.22 2.18 5.04 4.64 5.04 1.32 0 2.26-.52 2.88-1.56h.08c-.04.36-.06.86-.06 1.4v.22c0 1.3-.74 2.06-2.22 2.06-1.22 0-1.82-.44-2.02-1.08h-3.06c.32 2.1 2.2 3.32 5.12 3.32zm-.02-6.72c-1.4 0-2.26-1.08-2.26-2.76 0-1.7.86-2.78 2.24-2.78 1.54 0 2.32 1.18 2.32 2.76 0 1.58-.7 2.78-2.3 2.78zM150.028 41h3.06v-.18c-.28-.18-.4-.64-.4-1.48v-5.46c0-1.44-.52-2.54-1.62-3.18-.74-.44-1.7-.64-3.06-.64-3.16 0-4.64 1.7-4.72 3.52h2.9c.08-.84.66-1.4 1.86-1.4 1.08 0 1.58.52 1.58 1.28 0 .8-.78 1.1-2.68 1.36-2.32.28-4.18.88-4.18 3.24 0 2.1 1.54 3.22 3.64 3.22 1.64 0 2.52-.6 3.22-1.58h.04c.06.6.2 1.06.36 1.3zm-2.64-1.78c-.86 0-1.56-.34-1.56-1.26 0-.92.66-1.26 2.04-1.56.7-.16 1.38-.32 1.84-.6v1.38c0 1.16-.92 2.04-2.32 2.04zm11.842 2.12c2.76 0 4.8-1.2 4.8-3.5 0-2.68-2.16-3.18-4.06-3.52-1.46-.26-2.62-.38-2.62-1.18 0-.68.62-1.08 1.58-1.08 1 0 1.6.38 1.8 1.14h2.92c-.28-1.86-1.76-3.14-4.72-3.14-2.5 0-4.48 1.14-4.48 3.32 0 2.48 1.92 2.96 3.82 3.32 1.48.28 2.74.4 2.74 1.36 0 .76-.64 1.22-1.76 1.22-1.22 0-1.98-.56-2.16-1.56h-2.96c.16 2.14 2.02 3.62 5.1 3.62zm5.448-8.98h1.6v5.96c0 2.16 1.34 2.8 3.32 2.8.84 0 1.48-.1 1.82-.16v-2.34h-.16c-.2.02-.52.04-.72.04-.74 0-1.18-.22-1.18-1.02v-5.28h2.08v-2h-2.08v-3.4h-3.08v3.4h-1.6v2zm13.513 8.96c2.74 0 4.48-1.44 5.02-3.32h-3.04c-.34.66-.96 1.04-1.94 1.04-1.52 0-2.38-.96-2.58-2.56h7.76c.02-2.1-.52-3.9-1.72-5.06-.94-.86-2.14-1.36-3.66-1.36-3.24 0-5.46 2.44-5.46 5.64 0 3.18 2.14 5.62 5.62 5.62zm-.16-9.04c1.24 0 2.08.9 2.18 2.38h-4.54c.2-1.46.92-2.38 2.36-2.38zM190.03 41h3.42V26.12h-3.42V41zm5.237-11.98h4.42V41h3.42V29.02h4.44v-2.9h-12.28v2.9zm12.017 8.04h5.66v-2.72h-5.66v2.72zm7.506 7.56c.96 0 1.76-.22 2.34-.8.5-.48.8-1.2.8-2.56v-10.9h-3.14v10.78c0 .78-.3 1.02-.92 1.08-.22.02-.46.02-.74.02h-.12v2.22c.48.1 1.22.16 1.78.16zm-.02-15.76h3.18v-2.74h-3.18v2.74zm10.375 12.48c3.38 0 5.6-2.46 5.6-5.64 0-3.2-2.22-5.64-5.6-5.64-3.4 0-5.64 2.44-5.64 5.64 0 3.18 2.24 5.64 5.64 5.64zm-.02-2.28c-1.6 0-2.44-1.36-2.44-3.36 0-2.02.84-3.4 2.44-3.4 1.56 0 2.44 1.38 2.44 3.4 0 2-.88 3.36-2.44 3.36zm13.504 2.28c2.76 0 4.56-2.14 4.56-5.66 0-3.26-1.82-5.62-4.58-5.62-1.48 0-2.46.7-3.18 1.78h-.06c.04-.64.1-1.56.1-2.46v-3.26h-3.14V41h3.02v-1.56h.04c.62 1.3 1.82 1.9 3.24 1.9zm-.84-2.52c-1.52 0-2.42-1.28-2.42-3.14 0-1.84.76-3.24 2.4-3.24 1.48 0 2.22 1.32 2.22 3.22 0 1.92-.74 3.16-2.2 3.16zm13.262 2.52c2.76 0 4.56-2.14 4.56-5.66 0-3.26-1.82-5.62-4.58-5.62-1.48 0-2.46.7-3.18 1.78h-.06c.04-.64.1-1.56.1-2.46v-3.26h-3.14V41h3.02v-1.56h.04c.62 1.3 1.82 1.9 3.24 1.9zm-.84-2.52c-1.52 0-2.42-1.28-2.42-3.14 0-1.84.76-3.24 2.4-3.24 1.48 0 2.22 1.32 2.22 3.22 0 1.92-.74 3.16-2.2 3.16zm9.194 2.18h3.32v-3.28h-3.32V41zm.3-5.18h2.8c.02-.58.1-.88.42-1.24.42-.46 1.16-.82 2.24-1.66.78-.62 1.48-1.54 1.48-3.04 0-2.42-1.96-4.02-5.08-4.02-3.46 0-5.44 2.1-5.52 4.78h3.12c.02-1.24.92-2.18 2.28-2.18 1.1 0 1.9.58 1.9 1.5 0 1.16-1.22 1.68-2.12 2.46-1.1.92-1.52 1.72-1.52 3.4z" fill="#000"/></svg>