<svg width="119" height="17" viewBox="0 0 119 17" fill="none" xmlns="http://www.w3.org/2000/svg"><path fill-rule="evenodd" clip-rule="evenodd" d="M13.6781 13.8739c0 .3472-.2777.6943-.6943.6943H.694322C.347161 14.5682 0 14.2905 0 13.8739V1.58353C0 1.23634.277729.88916.694322.88916H12.9838c.3472 0 .6943.27775.6943.69437V13.8739z" fill="#007B4B"/><path fill-rule="evenodd" clip-rule="evenodd" d="M5.62401 6.37451c-.13887 0-.2083.06944-.2083.20831v3.19409c0 .13887.06943.27779.13887.41659l3.33274 3.333c.06943.0694.27772.1389.41659.1389h3.19389c.1389 0 .2083-.0695.2083-.2084v-3.194c0-.1389-.0694-.27779-.1389-.41666L9.23448 6.51339c-.06943-.06944-.27773-.13888-.41659-.13888H5.62401z" fill="#fff"/><path fill-rule="evenodd" clip-rule="evenodd" d="M1.11091 1.7915c-.13886 0-.208292.06944-.208292.20831V13.4569c0 .1389.069433.1389.138862.0695l3.33275-3.333c.06944-.0695.13887-.27776.13887-.41664V5.67998c0-.13888.06943-.20831.20829-.20831H8.8179c.13887 0 .27773-.06944.41659-.13888l3.33271-3.33298c.0695-.06943.0695-.13887-.0694-.13887H1.11091V1.7915z" fill="#fff"/><path d="M19.9965 5.88843h5.7628v1.5276h-3.9576v1.8748h3.4022v1.38877h-3.4022v3.4024h-1.8052V5.88843zM27.5646 11.166c0-.9721.3472-1.8748 1.4581-1.8748s1.458.9721 1.458 1.8748c0 .9721-.3471 1.8748-1.458 1.8748s-1.4581-.9721-1.4581-1.8748zm1.8052-3.88846h1.5275V5.95825h-1.5275v1.31929zm-2.3607 0h1.5275V5.95825h-1.5275v1.31929zM25.8982 11.166c0 1.8748 1.1804 3.1246 3.055 3.1246 1.8747 0 3.055-1.2498 3.055-3.1246s-1.1803-3.12466-3.055-3.12466c-1.8052 0-3.055 1.18042-3.055 3.12466zM32.7026 8.18013h1.5275v1.11099c.2777-.7638 1.1109-1.24986 1.8746-1.24986.1389 0 .2778 0 .3472.06944v1.52761c-.1389 0-.4166-.06944-.5554-.06944-1.1804 0-1.597.83323-1.597 1.87483v2.708h-1.5969V8.18013zM38.3266 12.2075c0 .6943.6249.9721 1.2498.9721.486 0 1.0414-.2083 1.0414-.7638 0-.4861-.6943-.6944-1.8746-.9027-.9721-.2083-1.8747-.5555-1.8747-1.59704 0-1.52761 1.3192-1.8748 2.569-1.8748 1.3192 0 2.4996.41662 2.6384 1.8748h-1.5275c-.0694-.62493-.5555-.83325-1.1109-.83325-.3472 0-.9026.06944-.9026.5555 0 .55549.9026.69439 1.8746.90269.9721.2083 1.8747.5555 1.8747 1.6665 0 1.5276-1.3886 2.0831-2.7078 2.0831-1.3887 0-2.7079-.4861-2.7773-2.0831h1.5275zM46.7279 11.7909c0 .3472-.0694 1.3887-1.3192 1.3887-.5555 0-.9721-.1388-.9721-.7638 0-.6249.4861-.7638.9721-.9026.486-.0695 1.1109-.1389 1.3886-.3472v.6249h-.0694zm-.6249-4.51336h1.5275V5.95825H46.103v1.31929zm-2.3607 0h1.5275V5.95825h-1.5275v1.31929zm.8332 2.70802c.0694-.62492.486-.90267 1.1109-.90267.5555 0 1.0415.06944 1.0415.83324 0 .69437-.9026.62497-1.9441.76377-1.0415.1389-2.0135.4861-2.0135 1.8054 0 1.2498.9026 1.8053 2.0135 1.8053.6943 0 1.4581-.2083 2.0135-.7638 0 .2083.0695.4166.1389.5555h1.6664c-.1389-.2083-.2083-.7638-.2083-1.3193V9.70782c0-1.45817-1.4581-1.66648-2.6385-1.66648-1.3192 0-2.7078.48606-2.7772 2.01366h1.5969v-.06944zM49.2969 5.88843h1.5969v4.37447l2.083-2.1525h1.9441l-2.2218 2.1525 2.4995 3.7496h-1.9441l-1.6664-2.5691-.6249.6249v2.0137h-1.5969V5.88843h-.0694zM55.7541 8.18013h1.5275v1.11099c.2777-.7638 1.1109-1.24986 1.8746-1.24986.1389 0 .2778 0 .3472.06944v1.52761c-.1389 0-.4166-.06944-.5555-.06944-1.1803 0-1.5969.83323-1.5969 1.87483v2.708h-1.5969V8.18013zM60.2672 8.18023h1.6663v5.97157h-1.6663V8.18023zm1.6663-.90268h-1.6663v-1.3193h1.6663v1.3193zM62.975 8.18013h1.5275v.83325c.4166-.69437 1.1109-.97212 1.8053-.97212 1.7358 0 2.1524.97212 2.1524 2.43034v3.6801h-1.597v-3.333c0-.97208-.2777-1.45814-1.0415-1.45814-.9026 0-1.2497.48606-1.2497 1.73594v3.1247h-1.597V8.18013zM72.2095 12.6934c-.9721 0-1.3192-.9027-1.3192-1.8054 0-.90265.4166-1.66645 1.3192-1.66645 1.0415 0 1.3886.83325 1.3886 1.80535 0 .9027-.4166 1.6665-1.3886 1.6665zm2.9856-4.51341h-1.5275v.76381c-.4166-.69437-.9721-.97212-1.7358-.97212-1.6664 0-2.569 1.38874-2.569 2.91632 0 1.5971.7637 2.9858 2.569 2.9858.6943 0 1.3886-.2777 1.8052-.9027v.7639c0 .8332-.4166 1.4581-1.3192 1.4581-.5555 0-1.0415-.2083-1.2498-.8332h-1.5969c.0694 1.3193 1.458 1.8748 2.6384 1.8748 2.7078 0 3.055-1.6665 3.055-2.6386V8.17999h-.0694zM77.3475 12.2075c0 .6943.6249.9721 1.2498.9721.486 0 1.0415-.2083 1.0415-.7638 0-.4861-.6944-.6944-1.8747-.9027-.9721-.2083-1.8747-.5555-1.8747-1.59704 0-1.52761 1.3192-1.8748 2.569-1.8748 1.3192 0 2.4996.41662 2.6384 1.8748h-1.5275c-.0694-.62493-.5554-.83325-1.1109-.83325-.3471 0-.9026.06944-.9026.5555 0 .55549.9026.69439 1.8747.90269.972.2083 1.8746.5555 1.8746 1.6665 0 1.5276-1.3886 2.0831-2.7078 2.0831-1.3887 0-2.7079-.4861-2.7773-2.0831h1.5275zM81.93 5.88843h1.5969V10.263l2.083-2.15258h1.9441L85.3322 10.263l2.4995 3.7496h-1.9441l-1.5969-2.6386-.6249.6249v2.0137h-1.5969V5.88843H81.93zM91.8588 11.7909c0 .3471-.0694 1.3887-1.3192 1.3887-.5554 0-.972-.1389-.972-.7638s.486-.7638.972-.9027c.486-.0694 1.1109-.1389 1.3887-.3472v.625h-.0695zm-2.1524-1.80541c.0694-.62493.486-.90268 1.1109-.90268.5555 0 1.0415.06944 1.0415.83325 0 .69434-.9026.62494-1.9441.76384-1.0415.1388-2.0135.486-2.0135 1.8053 0 1.2499.9026 1.8054 2.0135 1.8054.6943 0 1.4581-.2083 2.0136-.7638 0 .2083.0694.4166.1388.5555h1.6664c-.1389-.2083-.2083-.7638-.2083-1.3193V9.70775c0-1.45818-1.3886-1.66649-2.6384-1.66649-1.3192 0-2.7079.48606-2.7773 2.01364h1.5969v-.06941zM95.8165 12.2075c0 .6943.6249.9721 1.2497.9721.4861 0 1.0415-.2083 1.0415-.7638 0-.4861-.6943-.6944-1.8746-.9027-.9721-.2083-1.8747-.5555-1.8747-1.59704 0-1.52761 1.3192-1.8748 2.569-1.8748 1.3192 0 2.4995.41662 2.6384 1.8748h-1.5275c-.0694-.62493-.5555-.83325-1.1109-.83325-.3472 0-.9026.06944-.9026.5555 0 .55549.9026.69439 1.8746.90269.9721.2083 1.8747.5555 1.8747 1.6665 0 1.5276-1.3192 2.0831-2.7079 2.0831-1.3886 0-2.7078-.4861-2.7772-2.0831h1.5275zM101.788 12.2075c0 .6943.625.9721 1.249.9721.486 0 1.042-.2083 1.042-.7638 0-.4861-.694-.6944-1.875-.9027-.972-.2083-1.874-.5555-1.874-1.59704 0-1.52761 1.319-1.8748 2.569-1.8748 1.319 0 2.499.41662 2.638 1.8748h-1.528c-.069-.62493-.555-.83325-1.11-.83325-.348 0-.903.06944-.903.5555 0 .55549.903.69439 1.875.90269.972.2083 1.874.5555 1.874 1.6665 0 1.5276-1.388 2.0831-2.708 2.0831-1.388 0-2.707-.4861-2.777-2.0831h1.528zM110.189 11.7909c0 .3471-.07 1.3887-1.319 1.3887-.556 0-.972-.1389-.972-.7638s.486-.7638.972-.9027c.486-.0694 1.111-.1389 1.388-.3472v.625h-.069zm-2.152-1.80541c.069-.62493.486-.90268 1.11-.90268.556 0 1.042.06944 1.042.83325 0 .69434-.903.62494-1.944.76384-1.042.1388-2.014.486-2.014 1.8053 0 1.2499.903 1.8054 2.014 1.8054.694 0 1.458-.2083 2.013-.7638 0 .2083.07.4166.139.5555h1.667c-.139-.2083-.209-.7638-.209-1.3193V9.70775c0-1.45818-1.388-1.66649-2.638-1.66649-1.319 0-2.708.48606-2.777 2.01364h1.597v-.06941zM112.827 8.18013h1.528v.83325c.416-.69437 1.111-.97212 1.805-.97212 1.736 0 2.152.97212 2.152 2.43034v3.6801h-1.666v-3.333c0-.97208-.278-1.45814-1.041-1.45814-.903 0-1.25.48606-1.25 1.73594v3.1247h-1.597V8.18013h.069z" fill="#1A171B"/></svg>