<svg width="227" height="103" viewBox="0 0 227 103" fill="none" xmlns="http://www.w3.org/2000/svg"><path d="M.25 23h4.275l1.15-3.55h6.75L13.6 23h4.5L11.375 4.4H6.95L.25 23zm7.575-10.075c.6-1.825 1.25-4.95 1.25-4.95h.05s.4 2.4 1.2 4.95L11.45 16.4H6.675l1.15-3.475zm-3.6-9.55H8.05V.025H4.225v3.35zm6.125 0h3.8V.025h-3.8v3.35zM23.4832 9.7h-3.775V23h3.925v-6.175c0-2.6 1.4-3.925 3.525-3.9.275 0 .55.025.825.075h.1V9.575c-.175-.075-.45-.1-.825-.1-1.65 0-2.85.75-3.7 2.6h-.075V9.7zm17.5842 13.725c1.8 0 3.275-.75 4.05-2.375h.05V23h3.775V4.4h-3.925v4.075c0 1.125.05 2.25.1 3.075h-.05c-.9-1.375-2.125-2.225-3.95-2.225-3.45 0-5.75 2.95-5.75 7.025 0 4.4 2.25 7.075 5.7 7.075zm1.05-3.15c-1.825 0-2.75-1.55-2.75-3.95 0-2.375.925-4.025 2.775-4.025 2.025 0 3 1.7 3 4.05 0 2.325-1.125 3.925-3.025 3.925zM63.9191 23V9.7h-3.875v7.525c0 1.65-.975 2.85-2.55 2.85-1.4 0-2.125-.85-2.125-2.325V9.7h-3.925v8.8c0 2.925 1.65 4.875 4.675 4.875 1.825 0 3.025-.725 4-2.275h.075V23h3.725zm16.4961.425c3.45 0 5.7-2.675 5.7-7.075 0-4.075-2.275-7.025-5.725-7.025-1.85 0-3.075.875-3.975 2.225h-.075c.05-.8.125-1.95.125-3.075V4.4h-3.925V23h3.775v-1.95h.05c.775 1.625 2.275 2.375 4.05 2.375zm-1.05-3.15c-1.9 0-3.025-1.6-3.025-3.925 0-2.3.95-4.05 3-4.05 1.85 0 2.775 1.65 2.775 4.025 0 2.4-.925 3.95-2.75 3.95zM94.4676 23.4c3.425 0 5.6004-1.8 6.2754-4.15h-3.8004c-.425.825-1.2 1.3-2.425 1.3-1.9 0-2.975-1.2-3.225-3.2h9.7004c.025-2.625-.65-4.875-2.1504-6.325-1.175-1.075-2.675-1.7-4.575-1.7-4.05 0-6.825 3.05-6.825 7.05 0 3.975 2.675 7.025 7.025 7.025zm-.2-11.3c1.55 0 2.6 1.125 2.725 2.975h-5.675c.25-1.825 1.15-2.975 2.95-2.975zm12.4674-2.4h-3.775V23h3.925v-6.175c0-2.6 1.4-3.925 3.525-3.9.275 0 .55.025.825.075h.1V9.575c-.175-.075-.45-.1-.825-.1-1.65 0-2.85.75-3.7 2.6h-.075V9.7zm12.635 13.7c3.425 0 5.6-1.8 6.275-4.15h-3.8c-.425.825-1.2 1.3-2.425 1.3-1.9 0-2.975-1.2-3.225-3.2h9.7c.025-2.625-.65-4.875-2.15-6.325-1.175-1.075-2.675-1.7-4.575-1.7-4.05 0-6.825 3.05-6.825 7.05 0 3.975 2.675 7.025 7.025 7.025zm-.2-11.3c1.55 0 2.6 1.125 2.725 2.975h-5.675c.25-1.825 1.15-2.975 2.95-2.975zm13.768 11.325c1.8 0 3.275-.75 4.05-2.375h.05V23h3.775V4.4h-3.925v4.075c0 1.125.05 2.25.1 3.075h-.05c-.9-1.375-2.125-2.225-3.951-2.225-3.449 0-5.749 2.95-5.749 7.025 0 4.4 2.25 7.075 5.7 7.075zm1.05-3.15c-1.825 0-2.75-1.55-2.75-3.95 0-2.375.925-4.025 2.775-4.025 2.025 0 3 1.7 3 4.05 0 2.325-1.125 3.925-3.025 3.925zm14.501 3.15c1.8 0 3.275-.75 4.05-2.375h.05V23h3.775V4.4h-3.925v4.075c0 1.125.05 2.25.1 3.075h-.05c-.9-1.375-2.125-2.225-3.95-2.225-3.45 0-5.75 2.95-5.75 7.025 0 4.4 2.25 7.075 5.7 7.075zm1.05-3.15c-1.825 0-2.75-1.55-2.75-3.95 0-2.375.925-4.025 2.775-4.025 2.025 0 3 1.7 3 4.05 0 2.325-1.125 3.925-3.025 3.925zM9.825 50h3.825v-.225c-.35-.225-.5-.8-.5-1.85V41.1c0-1.8-.65-3.175-2.025-3.975-.925-.55-2.125-.8-3.825-.8-3.95 0-5.8 2.125-5.9 4.4h3.625c.1-1.05.825-1.75 2.325-1.75 1.35 0 1.975.65 1.975 1.6 0 1-.975 1.375-3.35 1.7-2.9.35-5.225 1.1-5.225 4.05 0 2.625 1.925 4.025 4.55 4.025 2.05 0 3.15-.75 4.025-1.975h.05c.075.75.25 1.325.45 1.625zm-3.3-2.225c-1.075 0-1.95-.425-1.95-1.575s.825-1.575 2.55-1.95c.875-.2 1.725-.4 2.3-.75v1.725c0 1.45-1.15 2.55-2.9 2.55zm8.3799-8.575h2v7.45c0 2.7 1.675 3.5 4.15 3.5 1.05 0 1.85-.125 2.275-.2v-2.925h-.2c-.25.025-.65.05-.9.05-.925 0-1.475-.275-1.475-1.275v-6.6h2.6v-2.5h-2.6v-4.25h-3.85v4.25h-2v2.5zm9.5947 0h2v7.45c0 2.7 1.675 3.5 4.15 3.5 1.05 0 1.85-.125 2.275-.2v-2.925h-.2c-.25.025-.65.05-.9.05-.925 0-1.475-.275-1.475-1.275v-6.6h2.6v-2.5h-2.6v-4.25h-3.85v4.25h-2v2.5zm15.7471 0h2v7.45c0 2.7 1.675 3.5 4.15 3.5 1.05 0 1.85-.125 2.275-.2v-2.925h-.2c-.25.025-.65.05-.9.05-.925 0-1.475-.275-1.475-1.275v-6.6h2.6v-2.5h-2.6v-4.25h-3.85v4.25h-2v2.5zM59.5076 50h3.825v-.225c-.35-.225-.5-.8-.5-1.85V41.1c0-1.8-.65-3.175-2.025-3.975-.925-.55-2.125-.8-3.825-.8-3.95 0-5.8 2.125-5.9 4.4h3.625c.1-1.05.825-1.75 2.325-1.75 1.35 0 1.975.65 1.975 1.6 0 1-.975 1.375-3.35 1.7-2.9.35-5.225 1.1-5.225 4.05 0 2.625 1.925 4.025 4.55 4.025 2.05 0 3.15-.75 4.025-1.975h.05c.075.75.25 1.325.45 1.625zm-3.3-2.225c-1.075 0-1.95-.425-1.95-1.575s.825-1.575 2.55-1.95c.875-.2 1.725-.4 2.3-.75v1.725c0 1.45-1.15 2.55-2.9 2.55zm22.8822 2.675c4.25 0 7.5-2.15 7.5-6 0-3.925-3.075-5.025-6.425-5.775-2.925-.65-4.525-.975-4.525-2.425 0-1.175 1.175-1.925 2.925-1.925 1.85 0 3 .85 3.225 2.3h4.175c-.275-3.65-3.175-5.55-7.275-5.55-4.1 0-7.25 1.75-7.25 5.6 0 3.875 2.95 4.775 6.575 5.6 2.7.625 4.275.975 4.275 2.6 0 1.525-1.55 2.175-3.2 2.175-2.4 0-3.725-.9-3.95-2.925h-4.3c.125 4.025 3.275 6.325 8.25 6.325zM91.7123 50h4.225l4.6497-13.3h-3.9497l-1.675 5.35c-.55 1.775-1.05 4.65-1.05 4.65h-.075s-.5-2.875-1.05-4.65l-1.625-5.35h-4.05l4.6 13.3zm16.2077.4c3.425 0 5.6-1.8 6.275-4.15h-3.8c-.425.825-1.2 1.3-2.425 1.3-1.9 0-2.975-1.2-3.225-3.2h9.7c.025-2.625-.65-4.875-2.15-6.325-1.175-1.075-2.675-1.7-4.575-1.7-4.05 0-6.825 3.05-6.825 7.05 0 3.975 2.675 7.025 7.025 7.025zm-.2-11.3c1.55 0 2.6 1.125 2.725 2.975h-5.675c.25-1.825 1.15-2.975 2.95-2.975zm12.467-2.4h-3.775V50h3.925v-6.175c0-2.6 1.4-3.925 3.525-3.9.275 0 .55.025.825.075h.1v-3.425c-.175-.075-.45-.1-.825-.1-1.65 0-2.85.75-3.7 2.6h-.075V36.7zm6.454-1.875h3.975V31.4h-3.975v3.425zM126.666 50h3.925V36.7h-3.925V50zm12.694 4.625c1.95 0 3.65-.45 4.8-1.45 1.075-.95 1.725-2.375 1.725-4.35V36.7h-3.75v1.7h-.05c-.75-1.475-2.025-2.075-3.825-2.075-3.275 0-5.6 2.675-5.6 6.55 0 4.025 2.725 6.3 5.8 6.3 1.65 0 2.825-.65 3.6-1.95h.1c-.05.45-.075 1.075-.075 1.75v.275c0 1.625-.925 2.575-2.775 2.575-1.525 0-2.275-.55-2.525-1.35h-3.825c.4 2.625 2.75 4.15 6.4 4.15zm-.025-8.4c-1.75 0-2.825-1.35-2.825-3.45 0-2.125 1.075-3.475 2.8-3.475 1.925 0 2.9 1.475 2.9 3.45s-.875 3.475-2.875 3.475zm15.582 4.175c3.425 0 5.6-1.8 6.275-4.15h-3.8c-.425.825-1.2 1.3-2.425 1.3-1.9 0-2.975-1.2-3.225-3.2h9.7c.025-2.625-.65-4.875-2.15-6.325-1.175-1.075-2.675-1.7-4.575-1.7-4.05 0-6.825 3.05-6.825 7.05 0 3.975 2.675 7.025 7.025 7.025zm-.2-11.3c1.55 0 2.6 1.125 2.725 2.975h-5.675c.25-1.825 1.15-2.975 2.95-2.975zm14.217 11.325c3.45 0 6-1.5 6-4.375 0-3.35-2.7-3.975-5.075-4.4-1.825-.325-3.275-.475-3.275-1.475 0-.85.775-1.35 1.975-1.35 1.25 0 2 .475 2.25 1.425h3.65c-.35-2.325-2.2-3.925-5.9-3.925-3.125 0-5.6 1.425-5.6 4.15 0 3.1 2.4 3.7 4.775 4.15 1.85.35 3.425.5 3.425 1.7 0 .95-.8 1.525-2.2 1.525-1.525 0-2.475-.7-2.7-1.95h-3.7c.2 2.675 2.525 4.525 6.375 4.525zM4.725 77H8.95l4.65-13.3H9.65l-1.675 5.35c-.55 1.775-1.05 4.65-1.05 4.65H6.85s-.5-2.875-1.05-4.65L4.175 63.7H.125l4.6 13.3zm10.2707-15.175h3.975V58.4h-3.975v3.425zM15.0207 77h3.925V63.7h-3.925V77zm15.1936 0h4.55l-5.3-8.375 4.75-4.925h-4.55l-4.375 4.775c.05-.85.125-2.325.125-4.275v-5.8h-3.875V77h3.875v-4.425l1.325-1.375 3.475 5.8zm5.0519-10.8h2v7.45c0 2.7 1.675 3.5 4.15 3.5 1.05 0 1.85-.125 2.275-.2v-2.925h-.2c-.25.025-.65.05-.9.05-.925 0-1.475-.275-1.475-1.275v-6.6h2.6v-2.5h-2.6v-4.25h-3.85v4.25h-2v2.5zm10.4668-4.375h3.975V58.4h-3.975v3.425zM45.758 77h3.925V63.7h-3.925V77zm12.6936 4.625c1.95 0 3.65-.45 4.8-1.45 1.075-.95 1.725-2.375 1.725-4.35V63.7h-3.75v1.7h-.05c-.75-1.475-2.025-2.075-3.825-2.075-3.275 0-5.6 2.675-5.6 6.55 0 4.025 2.725 6.3 5.8 6.3 1.65 0 2.825-.65 3.6-1.95h.1c-.05.45-.075 1.075-.075 1.75v.275c0 1.625-.925 2.575-2.775 2.575-1.525 0-2.275-.55-2.525-1.35h-3.825c.4 2.625 2.75 4.15 6.4 4.15zm-.025-8.4c-1.75 0-2.825-1.35-2.825-3.45 0-2.125 1.075-3.475 2.8-3.475 1.925 0 2.9 1.475 2.9 3.45s-.875 3.475-2.875 3.475zM76.1336 77h3.825v-.225c-.35-.225-.5-.8-.5-1.85V68.1c0-1.8-.65-3.175-2.025-3.975-.925-.55-2.125-.8-3.825-.8-3.95 0-5.8 2.125-5.9 4.4h3.625c.1-1.05.825-1.75 2.325-1.75 1.35 0 1.975.65 1.975 1.6 0 1-.975 1.375-3.35 1.7-2.9.35-5.225 1.1-5.225 4.05 0 2.625 1.925 4.025 4.55 4.025 2.05 0 3.15-.75 4.025-1.975h.05c.075.75.25 1.325.45 1.625zm-3.3-2.225c-1.075 0-1.95-.425-1.95-1.575s.825-1.575 2.55-1.95c.875-.2 1.725-.4 2.3-.75v1.725c0 1.45-1.15 2.55-2.9 2.55zm14.8019 2.65c3.45 0 6-1.5 6-4.375 0-3.35-2.7-3.975-5.075-4.4-1.825-.325-3.275-.475-3.275-1.475 0-.85.775-1.35 1.975-1.35 1.25 0 2 .475 2.25 1.425h3.65c-.35-2.325-2.2-3.925-5.9-3.925-3.125 0-5.6 1.425-5.6 4.15 0 3.1 2.4 3.7 4.775 4.15 1.85.35 3.425.5 3.425 1.7 0 .95-.8 1.525-2.2 1.525-1.525 0-2.475-.7-2.7-1.95h-3.7c.2 2.675 2.525 4.525 6.375 4.525zM94.4459 66.2h2v7.45c0 2.7 1.675 3.5 4.1501 3.5 1.05 0 1.85-.125 2.275-.2v-2.925h-.2c-.25.025-.65.05-.9.05-.925 0-1.475-.275-1.475-1.275v-6.6h2.6v-2.5h-2.6v-4.25h-3.8501v4.25h-2v2.5zm16.8921 11.2c3.425 0 5.6-1.8 6.275-4.15h-3.8c-.425.825-1.2 1.3-2.425 1.3-1.9 0-2.975-1.2-3.225-3.2h9.7c.025-2.625-.65-4.875-2.15-6.325-1.175-1.075-2.675-1.7-4.575-1.7-4.05 0-6.825 3.05-6.825 7.05 0 3.975 2.675 7.025 7.025 7.025zm-.2-11.3c1.55 0 2.6 1.125 2.725 2.975h-5.675c.25-1.825 1.15-2.975 2.95-2.975zM126.136 77h4.275V58.4h-4.275V77zm6.546-14.975h5.525V77h4.275V62.025h5.55V58.4h-15.35v3.625zm15.022 10.05h7.075v-3.4h-7.075v3.4zm9.382 9.45c1.2 0 2.2-.275 2.925-1 .625-.6 1-1.5 1-3.2V63.7h-3.925v13.475c0 .975-.375 1.275-1.15 1.35-.275.025-.575.025-.925.025h-.15v2.775c.6.125 1.525.2 2.225.2zm-.025-19.7h3.975V58.4h-3.975v3.425zm12.969 15.6c4.225 0 7-3.075 7-7.05 0-4-2.775-7.05-7-7.05-4.25 0-7.05 3.05-7.05 7.05 0 3.975 2.8 7.05 7.05 7.05zm-.025-2.85c-2 0-3.05-1.7-3.05-4.2 0-2.525 1.05-4.25 3.05-4.25 1.95 0 3.05 1.725 3.05 4.25 0 2.5-1.1 4.2-3.05 4.2zm16.88 2.85c3.45 0 5.7-2.675 5.7-7.075 0-4.075-2.275-7.025-5.725-7.025-1.85 0-3.075.875-3.975 2.225h-.075c.05-.8.125-1.95.125-3.075V58.4h-3.925V77h3.775v-1.95h.05c.775 1.625 2.275 2.375 4.05 2.375zm-1.05-3.15c-1.9 0-3.025-1.6-3.025-3.925 0-2.3.95-4.05 3-4.05 1.85 0 2.775 1.65 2.775 4.025 0 2.4-.925 3.95-2.75 3.95zm16.577 3.15c3.45 0 5.7-2.675 5.7-7.075 0-4.075-2.275-7.025-5.725-7.025-1.85 0-3.075.875-3.975 2.225h-.075c.05-.8.125-1.95.125-3.075V58.4h-3.925V77h3.775v-1.95h.05c.775 1.625 2.275 2.375 4.05 2.375zm-1.05-3.15c-1.9 0-3.025-1.6-3.025-3.925 0-2.3.95-4.05 3-4.05 1.85 0 2.775 1.65 2.775 4.025 0 2.4-.925 3.95-2.75 3.95zM212.855 77h4.15v-4.1h-4.15V77zm.375-6.475h3.5c.025-.725.125-1.1.525-1.55.525-.575 1.45-1.025 2.8-2.075.975-.775 1.85-1.925 1.85-3.8 0-3.025-2.45-5.025-6.35-5.025-4.325 0-6.8 2.625-6.9 5.975h3.9c.025-1.55 1.15-2.725 2.85-2.725 1.375 0 2.375.725 2.375 1.875 0 1.45-1.525 2.1-2.65 3.075-1.375 1.15-1.9 2.15-1.9 4.25z" fill="#000"/></svg>