<svg width="135" height="18" viewBox="0 0 135 18" fill="none" xmlns="http://www.w3.org/2000/svg"><path fill-rule="evenodd" clip-rule="evenodd" d="M15.6074 14.9861c0 .3962-.3169.7924-.7923.7924H.792254C.396127 15.7785 0 15.4615 0 14.9861V.959917C0 .563699.316901.16748.792254.16748H14.8151c.3962 0 .7923.316975.7923.792437V14.9861z" fill="#007B4B"/><path fill-rule="evenodd" clip-rule="evenodd" d="M6.41726 6.42786c-.15845 0-.23768.07924-.23768.23773v3.64521c0 .1585.07923.3169.15845.4754l3.80277 3.8037c.0793.0793.3169.1585.4754.1585h3.6444c.1584 0 .2376-.0792.2376-.2377v-3.6452c0-.1585-.0792-.317-.1584-.4755L10.537 6.58634c-.0793-.07924-.3169-.15848-.4754-.15848H6.41726z" fill="#fff"/><path fill-rule="evenodd" clip-rule="evenodd" d="M1.26761 1.19751c-.15845 0-.23767.07924-.23767.23773V14.5105c0 .1584.07922.1584.15845.0792L4.9912 10.786c.07923-.0792.15845-.317.15845-.4755V5.63516c0-.15849.07923-.23773.23768-.23773h4.67427c.1585 0 .3169-.07925.4754-.15849l3.8028-3.8037c.0792-.07924.0792-.15849-.0792-.15849H1.26761v-.07924z" fill="#fff"/><path d="M22.8169 5.8728h6.5757v1.74336h-4.5159v2.13957h3.8821v1.58487h-3.8821v3.8829h-2.0598V5.8728zM31.4525 11.8957c0-1.1094.3961-2.13952 1.6637-2.13952 1.2676 0 1.6637 1.10942 1.6637 2.13952 0 1.1094-.3961 2.1396-1.6637 2.1396-1.2676 0-1.6637-1.1094-1.6637-2.1396zm2.0598-4.43757h1.743V5.95251h-1.743v1.50562zm-2.6936 0h1.7429V5.95251h-1.7429v1.50562zm-1.2676 4.43757c0 2.1396 1.3468 3.566 3.4859 3.566s3.4859-1.4264 3.4859-3.566c0-2.13952-1.3468-3.56589-3.4859-3.56589-2.0599 0-3.4859 1.34713-3.4859 3.56589zM37.3151 8.4882h1.743v1.26789c.3169-.87167 1.2676-1.42638 2.1391-1.42638.1584 0 .3169 0 .3961.07924v1.74335c-.1585 0-.4753-.0792-.6338-.0792-1.3468 0-1.8222.9509-1.8222 2.1395v3.0905h-1.8222V8.4882zM43.7324 13.0843c0 .7925.713 1.1094 1.426 1.1094.5546 0 1.1884-.2377 1.1884-.8716 0-.5548-.7922-.7925-2.1391-1.0302-1.1091-.2377-2.1391-.634-2.1391-1.8226 0-1.74337 1.5053-2.13959 2.9314-2.13959 1.5053 0 2.8521.47546 3.0106 2.13959h-1.743c-.0792-.7132-.6338-.95094-1.2676-.95094-.3961 0-1.0299.07925-1.0299.63394 0 .634 1.0299.7924 2.139 1.0302 1.1092.2377 2.1391.6339 2.1391 1.9018 0 1.7434-1.5845 2.3773-3.0898 2.3773-1.5845 0-3.0898-.5547-3.169-2.3773h1.743zM53.3187 12.6089c0 .3962-.0793 1.5849-1.5053 1.5849-.6338 0-1.1092-.1585-1.1092-.8717 0-.7132.5546-.8717 1.1092-1.0301.5546-.0793 1.2676-.1585 1.5845-.3963v.7132h-.0792zm-.7131-5.15077h1.743V5.95251h-1.743v1.50562zm-2.6936 0h1.7429V5.95251H49.912v1.50562zm.9507 3.09047c.0792-.71318.5546-1.03015 1.2676-1.03015.6338 0 1.1884.07925 1.1884.95095 0 .7924-1.03.7132-2.2183.8716-1.1884.1585-2.2976.5547-2.2976 2.0604 0 1.4263 1.0299 2.0603 2.2976 2.0603.7922 0 1.6637-.2377 2.2975-.8717 0 .2377.0792.4755.1584.634h1.9014c-.1584-.2378-.2376-.8717-.2376-1.5057v-3.4867c0-1.66407-1.6638-1.90179-3.0106-1.90179-1.5053 0-3.0898.5547-3.169 2.29809h1.8222v-.0793zM56.25 5.8728h1.8222v4.9923l2.3767-2.45651h2.2183L60.132 10.8651l2.8521 4.2792h-2.2183l-1.9014-2.932-.713.7132v2.298h-1.8222V5.8728H56.25zM63.618 8.4882h1.7429v1.26789c.3169-.87167 1.2676-1.42638 2.1391-1.42638.1584 0 .3169 0 .3961.07924v1.74335c-.1584 0-.4753-.0792-.6338-.0792-1.3468 0-1.8222.9509-1.8222 2.1395v3.0905H63.618V8.4882zM68.7676 8.4883h1.9014v6.8149h-1.9014V8.4883zm1.9014-1.03016h-1.9014V5.95251h1.9014v1.50563zM71.8574 8.4882h1.7429v.95093c.4754-.79244 1.2676-1.10942 2.0599-1.10942 1.9806 0 2.456 1.10942 2.456 2.77349v4.2H76.294v-3.8037c0-1.1094-.3169-1.66416-1.1884-1.66416-1.0299 0-1.426.55466-1.426 1.98106v3.566h-1.8222V8.4882zM82.3944 13.6389c-1.1092 0-1.5053-1.0301-1.5053-2.0603 0-1.0302.4753-1.90185 1.5053-1.90185 1.1883 0 1.5845.95095 1.5845 2.06035 0 1.0302-.4754 1.9018-1.5845 1.9018zm3.4067-5.1508h-1.743v.87168c-.4754-.79244-1.1092-1.10941-1.9806-1.10941-1.9015 0-2.9314 1.58487-2.9314 3.32823 0 1.8226.8715 3.4075 2.9314 3.4075.7922 0 1.5845-.317 2.0598-1.0302v.8717c0 .9509-.4753 1.6641-1.5053 1.6641-.6338 0-1.1884-.2377-1.426-.9509h-1.8222c.0792 1.5056 1.6637 2.1396 3.0106 2.1396 3.0898 0 3.4859-1.9019 3.4859-3.0113v-6.181h-.0792zM88.257 13.0843c0 .7925.7131 1.1094 1.4261 1.1094.5546 0 1.1884-.2377 1.1884-.8716 0-.5548-.7923-.7925-2.1391-1.0302-1.1092-.2377-2.1391-.634-2.1391-1.8226 0-1.74337 1.5053-2.13959 2.9313-2.13959 1.5053 0 2.8522.47546 3.0106 2.13959h-1.7429c-.0793-.7132-.6338-.95094-1.2677-.95094-.3961 0-1.0299.07925-1.0299.63394 0 .634 1.03.7924 2.1391 1.0302 1.1092.2377 2.1391.6339 2.1391 1.9018 0 1.7434-1.5845 2.3773-3.0898 2.3773-1.5845 0-3.0898-.5547-3.169-2.3773h1.7429zM93.4859 5.8728h1.8222v4.9924l2.3767-2.45659h2.2184l-2.5353 2.45659 2.8521 4.2791h-2.2183l-1.8221-3.0112-.7131.7132v2.298h-1.8222V5.8728h-.1584zM104.815 12.6089c0 .3962-.079 1.5848-1.505 1.5848-.634 0-1.109-.1585-1.109-.8716 0-.7132.554-.8717 1.109-1.0302.554-.0793 1.267-.1585 1.584-.3962v.7132h-.079zm-2.456-2.0604c.079-.71316.555-1.03014 1.268-1.03014.634 0 1.188.07925 1.188.95094 0 .7924-1.03.7132-2.218.8717-1.189.1585-2.298.5547-2.298 2.0603 0 1.4264 1.03 2.0603 2.298 2.0603.792 0 1.664-.2377 2.297-.8717 0 .2378.08.4755.159.634h1.901c-.158-.2377-.237-.8717-.237-1.5056v-3.4867c0-1.66416-1.585-1.90189-3.011-1.90189-1.505 0-3.09.5547-3.169 2.29809h1.822v-.0793zM109.331 13.0843c0 .7925.713 1.1094 1.426 1.1094.555 0 1.188-.2377 1.188-.8716 0-.5548-.792-.7925-2.139-1.0302-1.109-.2377-2.139-.634-2.139-1.8226 0-1.74337 1.506-2.13959 2.932-2.13959 1.505 0 2.852.47546 3.01 2.13959h-1.743c-.079-.7132-.634-.95094-1.267-.95094-.397 0-1.03.07925-1.03.63394 0 .634 1.03.7924 2.139 1.0302 1.109.2377 2.139.6339 2.139 1.9018 0 1.7434-1.505 2.3773-3.09 2.3773-1.584 0-3.09-.5547-3.169-2.3773h1.743zM116.144 13.0843c0 .7925.713 1.1094 1.426 1.1094.555 0 1.189-.2377 1.189-.8716 0-.5548-.792-.7925-2.139-1.0302-1.109-.2377-2.139-.634-2.139-1.8226 0-1.74337 1.505-2.13959 2.931-2.13959 1.505 0 2.852.47546 3.011 2.13959h-1.743c-.08-.7132-.634-.95094-1.268-.95094-.396 0-1.03.07925-1.03.63394 0 .634 1.03.7924 2.139 1.0302 1.109.2377 2.139.6339 2.139 1.9018 0 1.7434-1.584 2.3773-3.09 2.3773-1.584 0-3.089-.5547-3.169-2.3773h1.743zM125.731 12.6089c0 .3962-.08 1.5848-1.506 1.5848-.633 0-1.109-.1585-1.109-.8716 0-.7132.555-.8717 1.109-1.0302.555-.0793 1.268-.1585 1.585-.3962v.7132h-.079zm-2.456-2.0604c.079-.71316.554-1.03014 1.267-1.03014.634 0 1.189.07925 1.189.95094 0 .7924-1.03.7132-2.219.8717-1.188.1585-2.297.5547-2.297 2.0603 0 1.4264 1.03 2.0603 2.297 2.0603.793 0 1.664-.2377 2.298-.8717 0 .2378.079.4755.158.634h1.902c-.159-.2377-.238-.8717-.238-1.5056v-3.4867c0-1.66416-1.584-1.90189-3.011-1.90189-1.505 0-3.089.5547-3.169 2.29809h1.823v-.0793zM128.741 8.4882h1.743v.95093c.475-.79244 1.268-1.10942 2.06-1.10942 1.981 0 2.456 1.10942 2.456 2.77349v4.2h-1.901v-3.8037c0-1.1094-.317-1.66416-1.189-1.66416-1.03 0-1.426.55466-1.426 1.98106v3.566h-1.822V8.4882h.079z" fill="#1A171B"/></svg>