<svg width="227" height="104" viewBox="0 0 227 104" fill="none" xmlns="http://www.w3.org/2000/svg"><path d="M.24 23h4.104l1.104-3.408h6.48L13.056 23h4.32L10.92 5.144H6.672L.24 23zm7.272-9.672c.576-1.752 1.2-4.752 1.2-4.752h.048s.384 2.304 1.152 4.752l1.08 3.336H6.408l1.104-3.336zM4.056 4.16h3.672V.943999H4.056V4.16zm5.88 0h3.648V.943999H9.936V4.16zm12.6079 6.072h-3.624V23h3.768v-5.928c0-2.496 1.344-3.768 3.384-3.744.264 0 .528.024.792.072h.096v-3.288c-.168-.072-.432-.096-.792-.096-1.584 0-2.736.72-3.552 2.496h-.072v-2.28zm16.8808 13.176c1.728 0 3.144-.72 3.888-2.28h.048V23h3.624V5.144h-3.768v3.912c0 1.08.048 2.16.096 2.952h-.048c-.864-1.32-2.04-2.136-3.792-2.136-3.312 0-5.52 2.832-5.52 6.744 0 4.224 2.16 6.792 5.472 6.792zm1.008-3.024c-1.752 0-2.64-1.488-2.64-3.792 0-2.28.888-3.864 2.664-3.864 1.944 0 2.88 1.632 2.88 3.888 0 2.232-1.08 3.768-2.904 3.768zM61.3624 23V10.232h-3.72v7.224c0 1.584-.936 2.736-2.448 2.736-1.344 0-2.04-.816-2.04-2.232v-7.728h-3.768v8.448c0 2.808 1.584 4.68 4.488 4.68 1.752 0 2.904-.696 3.84-2.184h.072V23h3.576zm15.8362.408c3.312 0 5.472-2.568 5.472-6.792 0-3.912-2.184-6.744-5.496-6.744-1.776 0-2.952.84-3.816 2.136h-.072c.048-.768.12-1.872.12-2.952V5.144h-3.768V23h3.624v-1.872h.048c.744 1.56 2.184 2.28 3.888 2.28zm-1.008-3.024c-1.824 0-2.904-1.536-2.904-3.768 0-2.208.912-3.888 2.88-3.888 1.776 0 2.664 1.584 2.664 3.864 0 2.304-.888 3.792-2.64 3.792zm14.4983 3c3.288 0 5.376-1.728 6.024-3.984h-3.648c-.408.792-1.152 1.248-2.328 1.248-1.824 0-2.856-1.152-3.096-3.072h9.312c.024-2.52-.624-4.68-2.064-6.072-1.128-1.032-2.568-1.632-4.392-1.632-3.888 0-6.552 2.928-6.552 6.768 0 3.816 2.568 6.744 6.744 6.744zm-.192-10.848c1.488 0 2.496 1.08 2.616 2.856h-5.448c.24-1.752 1.104-2.856 2.832-2.856zm11.9691-2.304h-3.6242V23h3.7682v-5.928c0-2.496 1.344-3.768 3.384-3.744.264 0 .528.024.792.072h.096v-3.288c-.168-.072-.432-.096-.792-.096-1.584 0-2.736.72-3.552 2.496h-.072v-2.28zm12.129 13.152c3.288 0 5.376-1.728 6.024-3.984h-3.648c-.408.792-1.152 1.248-2.328 1.248-1.824 0-2.856-1.152-3.096-3.072h9.312c.024-2.52-.624-4.68-2.064-6.072-1.128-1.032-2.568-1.632-4.392-1.632-3.888 0-6.552 2.928-6.552 6.768 0 3.816 2.568 6.744 6.744 6.744zm-.192-10.848c1.488 0 2.496 1.08 2.616 2.856h-5.448c.24-1.752 1.104-2.856 2.832-2.856zm13.217 10.872c1.728 0 3.144-.72 3.888-2.28h.048V23h3.624V5.144h-3.768v3.912c0 1.08.048 2.16.096 2.952h-.048c-.864-1.32-2.04-2.136-3.792-2.136-3.312 0-5.52 2.832-5.52 6.744 0 4.224 2.16 6.792 5.472 6.792zm1.008-3.024c-1.752 0-2.64-1.488-2.64-3.792 0-2.28.888-3.864 2.664-3.864 1.944 0 2.88 1.632 2.88 3.888 0 2.232-1.08 3.768-2.904 3.768zm13.922 3.024c1.728 0 3.144-.72 3.888-2.28h.048V23h3.624V5.144h-3.768v3.912c0 1.08.048 2.16.096 2.952h-.048c-.864-1.32-2.04-2.136-3.792-2.136-3.312 0-5.52 2.832-5.52 6.744 0 4.224 2.16 6.792 5.472 6.792zm1.008-3.024c-1.752 0-2.64-1.488-2.64-3.792 0-2.28.888-3.864 2.664-3.864 1.944 0 2.88 1.632 2.88 3.888 0 2.232-1.08 3.768-2.904 3.768zM9.432 49h3.672v-.216c-.336-.216-.48-.768-.48-1.776v-6.552c0-1.728-.624-3.048-1.944-3.816-.888-.528-2.04-.768-3.672-.768-3.792 0-5.568 2.04-5.664 4.224h3.48c.096-1.008.792-1.68 2.232-1.68 1.296 0 1.896.624 1.896 1.536 0 .96-.936 1.32-3.216 1.632C2.952 41.92.72 42.64.72 45.472c0 2.52 1.848 3.864 4.368 3.864 1.968 0 3.024-.72 3.864-1.896H9c.072.72.24 1.272.432 1.56zm-3.168-2.136c-1.032 0-1.872-.408-1.872-1.512s.792-1.512 2.448-1.872c.84-.192 1.656-.384 2.208-.72v1.656c0 1.392-1.104 2.448-2.784 2.448zm8.0447-8.232h1.92v7.152c0 2.592 1.608 3.36 3.984 3.36 1.008 0 1.776-.12 2.184-.192v-2.808h-.192c-.24.024-.624.048-.864.048-.888 0-1.416-.264-1.416-1.224v-6.336h2.496v-2.4h-2.496v-4.08h-3.696v4.08h-1.92v2.4zm9.2109 0h1.92v7.152c0 2.592 1.608 3.36 3.984 3.36 1.008 0 1.776-.12 2.184-.192v-2.808h-.192c-.24.024-.624.048-.864.048-.888 0-1.416-.264-1.416-1.224v-6.336h2.496v-2.4h-2.496v-4.08h-3.696v4.08h-1.92v2.4zm15.1172 0h1.92v7.152c0 2.592 1.608 3.36 3.984 3.36 1.008 0 1.776-.12 2.184-.192v-2.808h-.192c-.24.024-.624.048-.864.048-.888 0-1.416-.264-1.416-1.224v-6.336h2.496v-2.4h-2.496v-4.08h-3.696v4.08h-1.92v2.4zM57.1273 49h3.672v-.216c-.336-.216-.48-.768-.48-1.776v-6.552c0-1.728-.624-3.048-1.944-3.816-.888-.528-2.04-.768-3.672-.768-3.792 0-5.568 2.04-5.664 4.224h3.48c.096-1.008.792-1.68 2.232-1.68 1.296 0 1.896.624 1.896 1.536 0 .96-.936 1.32-3.216 1.632-2.784.336-5.016 1.056-5.016 3.888 0 2.52 1.848 3.864 4.368 3.864 1.968 0 3.024-.72 3.864-1.896h.048c.072.72.24 1.272.432 1.56zm-3.168-2.136c-1.032 0-1.872-.408-1.872-1.512s.792-1.512 2.448-1.872c.84-.192 1.656-.384 2.208-.72v1.656c0 1.392-1.104 2.448-2.784 2.448zm21.967 2.568c4.08 0 7.2-2.064 7.2-5.76 0-3.768-2.952-4.824-6.168-5.544-2.808-.624-4.344-.936-4.344-2.328 0-1.128 1.1279-1.848 2.808-1.848 1.776 0 2.88.816 3.096 2.208h4.008c-.264-3.504-3.048-5.328-6.984-5.328s-6.96 1.68-6.96 5.376c0 3.72 2.832 4.584 6.312 5.376 2.592.6 4.104.936 4.104 2.496 0 1.464-1.488 2.088-3.072 2.088-2.304 0-3.576-.864-3.792-2.808h-4.128c.12 3.864 3.144 6.072 7.92 6.072zM88.0438 49h4.056l4.464-12.768h-3.792l-1.608 5.136c-.528 1.704-1.008 4.464-1.008 4.464h-.072s-.48-2.76-1.008-4.464l-1.56-5.136h-3.888L88.0438 49zm15.5592.384c3.288 0 5.376-1.728 6.024-3.984h-3.648c-.408.792-1.152 1.248-2.328 1.248-1.824 0-2.856-1.152-3.096-3.072h9.312c.024-2.52-.624-4.68-2.064-6.072-1.128-1.032-2.568-1.632-4.392-1.632-3.8881 0-6.5521 2.928-6.5521 6.768 0 3.816 2.568 6.744 6.7441 6.744zm-.192-10.848c1.488 0 2.496 1.08 2.616 2.856h-5.448c.24-1.752 1.104-2.856 2.832-2.856zm11.969-2.304h-3.624V49h3.768v-5.928c0-2.496 1.344-3.768 3.384-3.744.264 0 .528.024.792.072h.096v-3.288c-.168-.072-.432-.096-.792-.096-1.584 0-2.736.72-3.552 2.496h-.072v-2.28zm6.196-1.8h3.816v-3.288h-3.816v3.288zM121.6 49h3.768V36.232H121.6V49zm12.185 4.44c1.872 0 3.504-.432 4.608-1.392 1.032-.912 1.656-2.28 1.656-4.176v-11.64h-3.6v1.632h-.048c-.72-1.416-1.944-1.992-3.672-1.992-3.144 0-5.376 2.568-5.376 6.288 0 3.864 2.616 6.048 5.568 6.048 1.584 0 2.712-.624 3.456-1.872h.096c-.048.432-.072 1.032-.072 1.68v.264c0 1.56-.888 2.472-2.664 2.472-1.464 0-2.184-.528-2.424-1.296h-3.672c.384 2.52 2.64 3.984 6.144 3.984zm-.024-8.064c-1.68 0-2.712-1.296-2.712-3.312 0-2.04 1.032-3.336 2.688-3.336 1.848 0 2.784 1.416 2.784 3.312s-.84 3.336-2.76 3.336zm14.959 4.008c3.288 0 5.376-1.728 6.024-3.984h-3.648c-.408.792-1.152 1.248-2.328 1.248-1.824 0-2.856-1.152-3.096-3.072h9.312c.024-2.52-.624-4.68-2.064-6.072-1.128-1.032-2.568-1.632-4.392-1.632-3.888 0-6.552 2.928-6.552 6.768 0 3.816 2.568 6.744 6.744 6.744zm-.192-10.848c1.488 0 2.496 1.08 2.616 2.856h-5.448c.24-1.752 1.104-2.856 2.832-2.856zm13.649 10.872c3.312 0 5.76-1.44 5.76-4.2 0-3.216-2.592-3.816-4.872-4.224-1.752-.312-3.144-.456-3.144-1.416 0-.816.744-1.296 1.896-1.296 1.2 0 1.92.456 2.16 1.368h3.504c-.336-2.232-2.112-3.768-5.664-3.768-3 0-5.376 1.368-5.376 3.984 0 2.976 2.304 3.552 4.584 3.984 1.776.336 3.288.48 3.288 1.632 0 .912-.768 1.464-2.112 1.464-1.464 0-2.376-.672-2.592-1.872h-3.552c.192 2.568 2.424 4.344 6.12 4.344zM4.536 75h4.056l4.464-12.768H9.264l-1.608 5.136c-.528 1.704-1.008 4.464-1.008 4.464h-.072s-.48-2.76-1.008-4.464l-1.56-5.136H.12L4.536 75zm9.8599-14.568h3.816v-3.288h-3.816v3.288zM14.4199 75h3.768V62.232h-3.768V75zm14.5858 0h4.368l-5.088-8.04 4.56-4.728h-4.368l-4.2 4.584c.048-.816.12-2.232.12-4.104v-5.568h-3.72V75h3.72v-4.248l1.272-1.32L29.0057 75zm4.8499-10.368h1.92v7.152c0 2.592 1.608 3.36 3.984 3.36 1.008 0 1.776-.12 2.184-.192v-2.808h-.192c-.24.024-.624.048-.864.048-.888 0-1.416-.264-1.416-1.224v-6.336h2.496v-2.4h-2.496v-4.08h-3.696v4.08h-1.92v2.4zm10.0481-4.2h3.816v-3.288h-3.816v3.288zM43.9277 75h3.768V62.232h-3.768V75zm12.1858 4.44c1.872 0 3.504-.432 4.608-1.392 1.032-.912 1.656-2.28 1.656-4.176v-11.64h-3.6v1.632h-.048c-.72-1.416-1.944-1.992-3.672-1.992-3.144 0-5.376 2.568-5.376 6.288 0 3.864 2.616 6.048 5.568 6.048 1.584 0 2.712-.624 3.456-1.872h.096c-.048.432-.072 1.032-.072 1.68v.264c0 1.56-.888 2.472-2.664 2.472-1.464 0-2.184-.528-2.424-1.296h-3.672c.384 2.52 2.64 3.984 6.144 3.984zm-.024-8.064c-1.68 0-2.712-1.296-2.712-3.312 0-2.04 1.032-3.336 2.688-3.336 1.848 0 2.784 1.416 2.784 3.312s-.84 3.336-2.76 3.336zM73.0883 75h3.672v-.216c-.336-.216-.48-.768-.48-1.776v-6.552c0-1.728-.6241-3.048-1.944-3.816-.888-.528-2.04-.768-3.672-.768-3.792 0-5.568 2.04-5.664 4.224h3.48c.096-1.008.792-1.68 2.2319-1.68 1.2961 0 1.8961.624 1.8961 1.536 0 .96-.936 1.32-3.216 1.632-2.784.336-5.016 1.056-5.016 3.888 0 2.52 1.848 3.864 4.368 3.864 1.9679 0 3.024-.72 3.864-1.896h.048c.072.72.24 1.272.432 1.56zm-3.168-2.136c-1.032 0-1.872-.408-1.872-1.512s.792-1.512 2.448-1.872c.84-.192 1.656-.384 2.208-.72v1.656c0 1.392-1.104 2.448-2.784 2.448zm14.2098 2.544c3.312 0 5.76-1.44 5.76-4.2 0-3.216-2.592-3.816-4.872-4.224-1.752-.312-3.144-.456-3.144-1.416 0-.816.744-1.296 1.896-1.296 1.2 0 1.92.456 2.16 1.368h3.504c-.336-2.232-2.112-3.768-5.664-3.768-3 0-5.376 1.368-5.376 3.984 0 2.976 2.304 3.552 4.584 3.984 1.776.336 3.288.48 3.288 1.632 0 .912-.768 1.464-2.112 1.464-1.464 0-2.376-.672-2.592-1.872h-3.552c.192 2.568 2.424 4.344 6.12 4.344zm6.538-10.776h1.92v7.152c0 2.592 1.608 3.36 3.984 3.36 1.008 0 1.776-.12 2.184-.192v-2.808h-.192c-.24.024-.624.048-.864.048-.888 0-1.416-.264-1.416-1.224v-6.336h2.496v-2.4h-2.496v-4.08h-3.696v4.08h-1.92v2.4zm16.2159 10.752c3.288 0 5.376-1.728 6.024-3.984h-3.648c-.408.792-1.152 1.248-2.328 1.248-1.824 0-2.856-1.152-3.096-3.072h9.312c.024-2.52-.624-4.68-2.064-6.072-1.128-1.032-2.568-1.632-4.392-1.632-3.888 0-6.552 2.928-6.552 6.768 0 3.816 2.568 6.744 6.744 6.744zm-.192-10.848c1.488 0 2.496 1.08 2.616 2.856h-5.448c.24-1.752 1.104-2.856 2.832-2.856zM121.09 75h4.104V57.144h-4.104V75zm6.285-14.376h5.304V75h4.104V60.624h5.328v-3.48h-14.736v3.48zm14.421 9.648h6.792v-3.264h-6.792v3.264zm9.007 9.072c1.152 0 2.112-.264 2.808-.96.6-.576.96-1.44.96-3.072v-13.08h-3.768v12.936c0 .936-.36 1.224-1.104 1.296-.264.024-.552.024-.888.024h-.144v2.664c.576.12 1.464.192 2.136.192zm-.024-18.912h3.816v-3.288h-3.816v3.288zm12.45 14.976c4.056 0 6.72-2.952 6.72-6.768 0-3.84-2.664-6.768-6.72-6.768-4.08 0-6.768 2.928-6.768 6.768 0 3.816 2.688 6.768 6.768 6.768zm-.024-2.736c-1.92 0-2.928-1.632-2.928-4.032 0-2.424 1.008-4.08 2.928-4.08 1.872 0 2.928 1.656 2.928 4.08 0 2.4-1.056 4.032-2.928 4.032zm16.205 2.736c3.312 0 5.472-2.568 5.472-6.792 0-3.912-2.184-6.744-5.496-6.744-1.776 0-2.952.84-3.816 2.136h-.072c.048-.768.12-1.872.12-2.952v-3.912h-3.768V75h3.624v-1.872h.048c.744 1.56 2.184 2.28 3.888 2.28zm-1.008-3.024c-1.824 0-2.904-1.536-2.904-3.768 0-2.208.912-3.888 2.88-3.888 1.776 0 2.664 1.584 2.664 3.864 0 2.304-.888 3.792-2.64 3.792zm15.914 3.024c3.312 0 5.472-2.568 5.472-6.792 0-3.912-2.184-6.744-5.496-6.744-1.776 0-2.952.84-3.816 2.136h-.072c.048-.768.12-1.872.12-2.952v-3.912h-3.768V75h3.624v-1.872h.048c.744 1.56 2.184 2.28 3.888 2.28zm-1.008-3.024c-1.824 0-2.904-1.536-2.904-3.768 0-2.208.912-3.888 2.88-3.888 1.776 0 2.664 1.584 2.664 3.864 0 2.304-.888 3.792-2.64 3.792zM204.341 75h3.984v-3.936h-3.984V75zm.36-6.216h3.36c.024-.696.12-1.056.504-1.488.504-.552 1.392-.984 2.688-1.992.936-.744 1.776-1.848 1.776-3.648 0-2.904-2.352-4.824-6.096-4.824-4.152 0-6.528 2.52-6.624 5.736h3.744c.024-1.488 1.104-2.616 2.736-2.616 1.32 0 2.28.696 2.28 1.8 0 1.392-1.464 2.016-2.544 2.952-1.32 1.104-1.824 2.064-1.824 4.08z" fill="#000"/></svg>