<svg width="227" height="103" viewBox="0 0 227 103" fill="none" xmlns="http://www.w3.org/2000/svg"><path d="M1.463 18h5.092c4.237 0 6.441-2.793 6.441-7.011 0-4.237-2.09-7.125-6.308-7.125H1.463V18zm1.957-1.691V5.555h3.173c3.211 0 4.389 2.185 4.389 5.434s-1.311 5.32-4.503 5.32H3.42zm16.139 1.976c2.356 0 3.99-1.292 4.446-3.192h-1.729c-.323 1.083-1.292 1.748-2.698 1.748-1.976 0-3.059-1.52-3.192-3.515h7.828c0-1.729-.418-3.192-1.254-4.199-.798-.988-1.976-1.577-3.496-1.577-2.926 0-4.883 2.394-4.883 5.358 0 2.983 1.843 5.377 4.978 5.377zm-.095-9.367c1.767 0 2.774 1.178 2.869 3.135h-5.909c.228-1.805 1.197-3.135 3.04-3.135zm5.8213.247h1.596v6.84c0 1.501.95 2.052 2.318 2.071.456 0 .95-.057 1.425-.171v-1.482h-.057c-.19.057-.589.133-.893.133-.646 0-1.045-.209-1.045-.95V9.165h2.109V7.797h-2.109V4.586h-1.748v3.211h-1.596v1.368zm15.375 9.044c1.729 0 2.774-.817 3.42-1.71h.019c.19 1.083.722 1.596 1.805 1.596.418 0 .703-.076.95-.152v-1.235h-.076c-.893.19-1.083-.247-1.083-1.064v-4.769c0-1.368-.513-2.261-1.368-2.774-.646-.38-1.501-.551-2.47-.551-2.755 0-4.066 1.539-4.142 3.268h1.71c.057-1.216.836-1.976 2.451-1.976 1.406 0 2.185.684 2.185 1.786 0 1.045-.969 1.292-2.47 1.463-2.641.323-4.389.836-4.389 3.211 0 1.957 1.52 2.907 3.458 2.907zm.437-1.292c-1.026 0-2.033-.323-2.033-1.634 0-1.406 1.102-1.71 2.774-1.995.836-.152 1.729-.399 2.242-.722v1.672c0 1.178-.95 2.679-2.983 2.679zm1.672-11.001h1.748V3.864h-1.748v2.052zm-3.762 0h1.748V3.864h-1.748v2.052zm11.0299 1.881h-1.748V18h1.767v-5.548c0-1.919 1.349-3.097 2.926-3.097.304 0 .475.019.722.095h.057V7.778c-.19-.076-.361-.114-.646-.114-1.349 0-2.394.798-3.021 1.976h-.057V7.797zm14.9251 10.488c2.356 0 3.99-1.292 4.446-3.192h-1.729c-.323 1.083-1.292 1.748-2.698 1.748-1.976 0-3.059-1.52-3.192-3.515h7.828c0-1.729-.418-3.192-1.254-4.199-.798-.988-1.976-1.577-3.496-1.577-2.926 0-4.883 2.394-4.883 5.358 0 2.983 1.843 5.377 4.978 5.377zm-.095-9.367c1.767 0 2.774 1.178 2.869 3.135h-5.909c.228-1.805 1.197-3.135 3.04-3.135zm5.8213.247h1.596v6.84c0 1.501.95 2.052 2.318 2.071.456 0 .95-.057 1.425-.171v-1.482h-.057c-.19.057-.589.133-.893.133-.646 0-1.045-.209-1.045-.95V9.165h2.109V7.797h-2.109V4.586h-1.748v3.211h-1.596v1.368zm6.3828 0h1.596v6.84c0 1.501.95 2.052 2.318 2.071.456 0 .95-.057 1.425-.171v-1.482h-.057c-.19.057-.589.133-.893.133-.646 0-1.045-.209-1.045-.95V9.165h2.109V7.797h-2.109V4.586h-1.748v3.211h-1.596v1.368zm16.249 9.139c2.394 0 4.104-1.064 4.104-3.135 0-2.375-1.748-2.831-3.781-3.23-1.729-.342-2.717-.551-2.717-1.615 0-.779.589-1.425 1.976-1.425 1.463 0 2.185.589 2.337 1.634h1.767c-.228-1.767-1.501-2.964-4.066-2.964-2.375 0-3.743 1.102-3.743 2.85 0 2.242 1.805 2.66 3.8 3.078 1.805.361 2.66.646 2.66 1.767 0 .912-.684 1.615-2.299 1.615-1.463 0-2.603-.494-2.812-1.976h-1.786c.152 2.071 1.748 3.401 4.56 3.401zm5.2002-9.139h1.5964v6.84c0 1.501.95 2.052 2.318 2.071.456 0 .95-.057 1.425-.171v-1.482h-.057c-.19.057-.589.133-.893.133-.646 0-1.045-.209-1.045-.95V9.165h2.109V7.797h-2.109V4.586h-1.748v3.211h-1.5964v1.368zm11.6414 9.12c3.078 0 4.959-2.394 4.959-5.377 0-2.964-1.881-5.358-4.959-5.358-3.078 0-4.997 2.394-4.997 5.358 0 2.983 1.919 5.377 4.997 5.377zm-.019-1.444c-2.09 0-3.173-1.729-3.173-3.933 0-2.204 1.083-3.952 3.173-3.952s3.173 1.748 3.173 3.952c0 2.204-1.083 3.933-3.173 3.933zm8.602-9.044h-1.748V18h1.767v-5.548c0-1.919 1.349-3.097 2.926-3.097.304 0 .475.019.722.095h.057V7.778c-.19-.076-.361-.114-.646-.114-1.349 0-2.394.798-3.021 1.976h-.057V7.797zm4.824 1.368h1.596v6.84c0 1.501.95 2.052 2.318 2.071.456 0 .95-.057 1.425-.171v-1.482h-.057c-.19.057-.589.133-.893.133-.646 0-1.045-.209-1.045-.95V9.165h2.109V7.797h-2.109V4.586h-1.748v3.211h-1.596v1.368zm15.375 9.044c1.729 0 2.774-.817 3.42-1.71h.019c.19 1.083.722 1.596 1.805 1.596.418 0 .703-.076.95-.152v-1.235h-.076c-.893.19-1.083-.247-1.083-1.064v-4.769c0-1.368-.513-2.261-1.368-2.774-.646-.38-1.501-.551-2.47-.551-2.755 0-4.066 1.539-4.142 3.268h1.71c.057-1.216.836-1.976 2.451-1.976 1.406 0 2.185.684 2.185 1.786 0 1.045-.969 1.292-2.47 1.463-2.641.323-4.389.836-4.389 3.211 0 1.957 1.52 2.907 3.458 2.907zm.437-1.292c-1.026 0-2.033-.323-2.033-1.634 0-1.406 1.102-1.71 2.774-1.995.836-.152 1.729-.399 2.242-.722v1.672c0 1.178-.95 2.679-2.983 2.679zm8.94-9.12h-1.748V18h1.767v-6.213c0-1.634 1.14-2.755 2.717-2.755 1.387 0 2.242.741 2.242 2.052V18h1.748v-7.125c0-2.128-1.311-3.325-3.439-3.325-1.482 0-2.489.665-3.23 1.691h-.057V7.797zm13.021 10.507c2.394 0 4.104-1.064 4.104-3.135 0-2.375-1.748-2.831-3.781-3.23-1.729-.342-2.717-.551-2.717-1.615 0-.779.589-1.425 1.976-1.425 1.463 0 2.185.589 2.337 1.634h1.767c-.228-1.767-1.501-2.964-4.066-2.964-2.375 0-3.743 1.102-3.743 2.85 0 2.242 1.805 2.66 3.8 3.078 1.805.361 2.66.646 2.66 1.767 0 .912-.684 1.615-2.299 1.615-1.463 0-2.603-.494-2.812-1.976h-1.786c.152 2.071 1.748 3.401 4.56 3.401zm8.352-.304h1.957l3.667-10.203h-1.824l-1.824 5.51c-.456 1.368-.893 3.249-.893 3.249h-.038s-.494-1.881-.931-3.249l-1.786-5.51h-1.881L169.694 18zm9.7.209c1.729 0 2.774-.817 3.42-1.71h.019c.19 1.083.722 1.596 1.805 1.596.418 0 .703-.076.95-.152v-1.235h-.076c-.893.19-1.083-.247-1.083-1.064v-4.769c0-1.368-.513-2.261-1.368-2.774-.646-.38-1.501-.551-2.47-.551-2.755 0-4.066 1.539-4.142 3.268h1.71c.057-1.216.836-1.976 2.451-1.976 1.406 0 2.185.684 2.185 1.786 0 1.045-.969 1.292-2.47 1.463-2.641.323-4.389.836-4.389 3.211 0 1.957 1.52 2.907 3.458 2.907zm.437-1.292c-1.026 0-2.033-.323-2.033-1.634 0-1.406 1.102-1.71 2.774-1.995.836-.152 1.729-.399 2.242-.722v1.672c0 1.178-.95 2.679-2.983 2.679zm8.94-9.12h-1.748V18h1.767v-5.548c0-1.919 1.349-3.097 2.926-3.097.304 0 .475.019.722.095h.057V7.778c-.19-.076-.361-.114-.646-.114-1.349 0-2.394.798-3.021 1.976h-.057V7.797zM192.9 18h2.052v-2.09H192.9V18zM1.463 40h1.748v-8.55c0-1.254-.114-3.629-.114-3.629h.038s.589 2.128.988 3.23L7.562 40h1.52l3.439-8.949c.418-1.102.988-3.23.988-3.23h.038s-.114 2.375-.114 3.629V40h1.862V25.864h-2.584L9.823 33.54c-.57 1.558-1.444 4.427-1.444 4.427h-.038s-.855-2.888-1.425-4.427l-2.945-7.676H1.463V40zm20.9163.285c2.356 0 3.99-1.292 4.446-3.192h-1.729c-.323 1.083-1.292 1.748-2.698 1.748-1.976 0-3.059-1.52-3.192-3.515h7.828c0-1.729-.418-3.192-1.254-4.199-.798-.988-1.976-1.577-3.496-1.577-2.926 0-4.883 2.394-4.883 5.358 0 2.983 1.843 5.377 4.978 5.377zm-.095-9.367c1.767 0 2.774 1.178 2.869 3.135h-5.909c.228-1.805 1.197-3.135 3.04-3.135zm8.3818-1.121h-1.748V40h1.767v-6.213c0-1.634 1.14-2.755 2.717-2.755 1.387 0 2.242.741 2.242 2.052V40h1.748v-7.125c0-2.128-1.311-3.325-3.439-3.325-1.482 0-2.489.665-3.23 1.691h-.057v-1.444zm18.0674 10.507c2.394 0 4.104-1.064 4.104-3.135 0-2.375-1.748-2.831-3.781-3.23-1.729-.342-2.717-.551-2.717-1.615 0-.779.589-1.425 1.976-1.425 1.463 0 2.185.589 2.337 1.634h1.767c-.228-1.767-1.501-2.964-4.066-2.964-2.375 0-3.743 1.102-3.743 2.85 0 2.242 1.805 2.66 3.8 3.078 1.805.361 2.66.646 2.66 1.767 0 .912-.684 1.615-2.299 1.615-1.463 0-2.603-.494-2.812-1.976h-1.786c.152 2.071 1.748 3.401 4.56 3.401zm9.1455-.095c1.729 0 2.774-.817 3.42-1.71h.019c.19 1.083.722 1.596 1.805 1.596.418 0 .703-.076.95-.152v-1.235h-.076c-.893.19-1.083-.247-1.083-1.064v-4.769c0-1.368-.513-2.261-1.368-2.774-.646-.38-1.501-.551-2.47-.551-2.755 0-4.066 1.539-4.142 3.268h1.71c.057-1.216.836-1.976 2.451-1.976 1.406 0 2.185.684 2.185 1.786 0 1.045-.969 1.292-2.47 1.463-2.641.323-4.389.836-4.389 3.211 0 1.957 1.52 2.907 3.458 2.907zm.437-1.292c-1.026 0-2.033-.323-2.033-1.634 0-1.406 1.102-1.71 2.774-1.995.836-.152 1.729-.399 2.242-.722v1.672c0 1.178-.95 2.679-2.983 2.679zM59 28.619c1.064 0 1.938-.855 1.938-1.919 0-1.045-.874-1.881-1.938-1.881-1.083 0-1.957.836-1.957 1.881 0 1.064.874 1.919 1.957 1.919zm0-.798c-.627 0-1.064-.475-1.064-1.121 0-.627.437-1.102 1.064-1.102.608 0 1.045.475 1.045 1.102 0 .646-.437 1.121-1.045 1.121zm14.5949 12.388c1.729 0 2.774-.817 3.42-1.71h.019c.19 1.083.722 1.596 1.805 1.596.418 0 .703-.076.95-.152v-1.235h-.076c-.893.19-1.083-.247-1.083-1.064v-4.769c0-1.368-.513-2.261-1.368-2.774-.646-.38-1.501-.551-2.47-.551-2.755 0-4.066 1.539-4.142 3.268h1.71c.057-1.216.836-1.976 2.451-1.976 1.406 0 2.185.684 2.185 1.786 0 1.045-.969 1.292-2.47 1.463-2.641.323-4.389.836-4.389 3.211 0 1.957 1.52 2.907 3.458 2.907zm.437-1.292c-1.026 0-2.033-.323-2.033-1.634 0-1.406 1.102-1.71 2.774-1.995.836-.152 1.729-.399 2.242-.722v1.672c0 1.178-.95 2.679-2.983 2.679zm1.672-11.001h1.748v-2.052h-1.748v2.052zm-3.762 0h1.748v-2.052h-1.748v2.052zm11.0299 1.881h-1.748V40h1.767v-5.548c0-1.919 1.349-3.097 2.926-3.097.304 0 .475.019.722.095h.057v-1.672c-.19-.076-.361-.114-.646-.114-1.349 0-2.394.798-3.021 1.976h-.057v-1.843zm14.4501 10.507c1.425 0 2.508-.665 3.1541-1.767h.038V40h1.748V25.864h-1.767v3.61c0 .684.019 1.425.057 1.881h-.038c-.6461-1.083-1.7861-1.805-3.2301-1.805-2.527 0-4.465 2.014-4.465 5.377 0 3.287 1.748 5.377 4.503 5.377zm.133-1.463c-1.881 0-2.831-1.653-2.831-3.895s.95-3.914 2.831-3.914c2.052 0 3.1351 1.615 3.1351 3.914 0 2.242-.9501 3.895-3.1351 3.895zm11.6601 1.444c2.356 0 3.99-1.292 4.446-3.192h-1.729c-.323 1.083-1.292 1.748-2.698 1.748-1.976 0-3.059-1.52-3.192-3.515h7.828c0-1.729-.418-3.192-1.254-4.199-.798-.988-1.976-1.577-3.496-1.577-2.926 0-4.883 2.394-4.883 5.358 0 2.983 1.843 5.377 4.978 5.377zm-.095-9.367c1.767 0 2.774 1.178 2.869 3.135h-5.909c.228-1.805 1.197-3.135 3.04-3.135zm5.822.247h1.596v6.84c0 1.501.95 2.052 2.318 2.071.456 0 .95-.057 1.425-.171v-1.482h-.057c-.19.057-.589.133-.893.133-.646 0-1.045-.209-1.045-.95v-6.441h2.109v-1.368h-2.109v-3.211h-1.748v3.211h-1.596v1.368zm14.102-1.596v-3.705h-1.767V40h1.767v-6.213c0-1.634 1.14-2.755 2.717-2.755 1.387 0 2.242.741 2.242 2.052V40h1.748v-7.125c0-2.128-1.311-3.325-3.439-3.325-1.482 0-2.508.646-3.268 1.729h-.057c.019-.494.057-1.197.057-1.71zm13.514 10.716c2.356 0 3.99-1.292 4.446-3.192h-1.729c-.323 1.083-1.292 1.748-2.698 1.748-1.976 0-3.059-1.52-3.192-3.515h7.828c0-1.729-.418-3.192-1.254-4.199-.798-.988-1.976-1.577-3.496-1.577-2.926 0-4.883 2.394-4.883 5.358 0 2.983 1.843 5.377 4.978 5.377zm-.095-9.367c1.767 0 2.774 1.178 2.869 3.135h-5.909c.228-1.805 1.197-3.135 3.04-3.135zM149.154 40h1.767V25.864h-1.767V40zm4.305 0h1.767V25.864h-1.767V40zm8.674.285c2.356 0 3.99-1.292 4.446-3.192h-1.729c-.323 1.083-1.292 1.748-2.698 1.748-1.976 0-3.059-1.52-3.192-3.515h7.828c0-1.729-.418-3.192-1.254-4.199-.798-.988-1.976-1.577-3.496-1.577-2.926 0-4.883 2.394-4.883 5.358 0 2.983 1.843 5.377 4.978 5.377zm-.095-9.367c1.767 0 2.774 1.178 2.869 3.135h-5.909c.228-1.805 1.197-3.135 3.04-3.135zm8.382-1.121h-1.748V40h1.767v-5.548c0-1.919 1.349-3.097 2.926-3.097.304 0 .475.019.722.095h.057v-1.672c-.19-.076-.361-.114-.646-.114-1.349 0-2.394.798-3.021 1.976h-.057v-1.843zM1.178 49.916h1.843v-2.052H1.178v2.052zM1.216 62h1.767V51.797H1.216V62zm5.94136-10.203h-1.748V62h1.767v-6.213c0-1.634 1.14-2.755 2.717-2.755 1.38704 0 2.24204.741 2.24204 2.052V62h1.748v-7.125c0-2.128-1.311-3.325-3.439-3.325-1.48204 0-2.48904.665-3.23004 1.691h-.057v-1.444zM20.5769 65.572c1.368 0 2.508-.304 3.306-.969.779-.665 1.235-1.672 1.235-3.021v-9.785h-1.748v1.349h-.038c-.646-1.026-1.634-1.596-3.097-1.596-2.394 0-4.37 1.862-4.37 4.997 0 2.964 1.862 4.997 4.465 4.997 1.444 0 2.337-.627 3.04-1.634h.038c-.019.323-.038.874-.038 1.463v.285c0 1.729-1.007 2.546-2.831 2.546-1.52 0-2.546-.437-2.698-1.501h-1.653c.19 1.805 1.71 2.869 4.389 2.869zm-.076-5.472c-1.843 0-2.831-1.368-2.831-3.534 0-2.147.95-3.553 2.812-3.553 2.033 0 3.002 1.311 3.002 3.458 0 2.071-.76 3.629-2.983 3.629zm11.4898 2.185c2.356 0 3.99-1.292 4.446-3.192h-1.729c-.323 1.083-1.292 1.748-2.698 1.748-1.976 0-3.059-1.52-3.192-3.515h7.828c0-1.729-.418-3.192-1.254-4.199-.798-.988-1.976-1.577-3.496-1.577-2.926 0-4.883 2.394-4.883 5.358 0 2.983 1.843 5.377 4.978 5.377zm-.095-9.367c1.767 0 2.774 1.178 2.869 3.135h-5.909c.228-1.805 1.197-3.135 3.04-3.135zm5.8212.247h1.596v6.84c0 1.501.95 2.052 2.318 2.071.456 0 .95-.057 1.425-.171v-1.482h-.057c-.19.057-.589.133-.893.133-.646 0-1.045-.209-1.045-.95v-6.441h2.109v-1.368h-2.109v-3.211h-1.748v3.211h-1.596v1.368zM52.4839 62h1.957l3.667-10.203h-1.824l-1.824 5.51c-.456 1.368-.893 3.249-.893 3.249h-.038s-.494-1.881-.931-3.249l-1.786-5.51h-1.881L52.4839 62zm9.6998.209c1.729 0 2.774-.817 3.42-1.71h.019c.19 1.083.722 1.596 1.805 1.596.418 0 .703-.076.95-.152v-1.235h-.076c-.893.19-1.083-.247-1.083-1.064v-4.769c0-1.368-.513-2.261-1.368-2.774-.646-.38-1.501-.551-2.47-.551-2.755 0-4.066 1.539-4.142 3.268h1.71c.057-1.216.836-1.976 2.451-1.976 1.406 0 2.185.684 2.185 1.786 0 1.045-.969 1.292-2.47 1.463-2.641.323-4.389.836-4.389 3.211 0 1.957 1.52 2.907 3.458 2.907zm.437-1.292c-1.026 0-2.033-.323-2.033-1.634 0-1.406 1.102-1.71 2.774-1.995.836-.152 1.729-.399 2.242-.722v1.672c0 1.178-.95 2.679-2.983 2.679zm8.94-9.12h-1.748V62h1.767v-6.213c0-1.634 1.14-2.755 2.717-2.755 1.387 0 2.242.741 2.242 2.052V62h1.748v-7.125c0-2.128-1.311-3.325-3.439-3.325-1.482 0-2.489.665-3.23 1.691h-.057v-1.444zM80.7242 62h1.767V47.864h-1.767V62zm4.2097-12.084h1.843v-2.052h-1.843v2.052zM84.9719 62h1.767V51.797h-1.767V62zm8.5063 3.572c1.368 0 2.508-.304 3.306-.969.779-.665 1.235-1.672 1.235-3.021v-9.785h-1.748v1.349h-.038c-.646-1.026-1.634-1.596-3.097-1.596-2.394 0-4.37 1.862-4.37 4.997 0 2.964 1.862 4.997 4.465 4.997 1.444 0 2.337-.627 3.04-1.634h.038c-.019.323-.038.874-.038 1.463v.285c0 1.729-1.007 2.546-2.831 2.546-1.52 0-2.546-.437-2.698-1.501h-1.653c.19 1.805 1.71 2.869 4.389 2.869zm-.076-5.472c-1.843 0-2.831-1.368-2.831-3.534 0-2.147.95-3.553 2.812-3.553 2.033 0 3.002 1.311 3.002 3.458 0 2.071-.76 3.629-2.983 3.629zm6.4358-6.935h1.596v6.84c0 1.501.95 2.052 2.318 2.071.456 0 .95-.057 1.425-.171v-1.482h-.057c-.19.057-.589.133-.893.133-.646 0-1.045-.209-1.045-.95v-6.441h2.109v-1.368h-2.109v-3.211h-1.748v3.211h-1.596v1.368zm11.689 12.065c.684 0 1.273-.114 1.729-.456.418-.342.684-.912.684-1.9V51.797h-1.767v10.982c0 .722-.342.988-1.026 1.007-.171 0-.361-.019-.551-.057h-.057v1.406c.266.038.608.095.988.095zm.608-15.314h1.843v-2.052h-1.843v2.052zm8.696 12.369c3.078 0 4.959-2.394 4.959-5.377 0-2.964-1.881-5.358-4.959-5.358-3.078 0-4.997 2.394-4.997 5.358 0 2.983 1.919 5.377 4.997 5.377zm-.019-1.444c-2.09 0-3.173-1.729-3.173-3.933 0-2.204 1.083-3.952 3.173-3.952s3.173 1.748 3.173 3.952c0 2.204-1.083 3.933-3.173 3.933zm11.851 1.463c2.755 0 4.408-2.09 4.408-5.377 0-3.363-1.767-5.377-4.351-5.377-1.482 0-2.622.779-3.287 1.862h-.057c.019-.437.057-1.159.057-1.938v-3.61h-1.767V62h1.748v-1.444h.057c.665 1.14 1.824 1.748 3.192 1.748zm-.19-1.463c-2.09 0-3.135-1.672-3.135-3.895 0-2.166.988-3.914 3.154-3.914 1.862 0 2.774 1.672 2.774 3.914s-.912 3.895-2.793 3.895zm11.471 1.463c2.755 0 4.408-2.09 4.408-5.377 0-3.363-1.767-5.377-4.351-5.377-1.482 0-2.622.779-3.287 1.862h-.057c.019-.437.057-1.159.057-1.938v-3.61h-1.767V62h1.748v-1.444h.057c.665 1.14 1.824 1.748 3.192 1.748zm-.19-1.463c-2.09 0-3.135-1.672-3.135-3.895 0-2.166.988-3.914 3.154-3.914 1.862 0 2.774 1.672 2.774 3.914s-.912 3.895-2.793 3.895zM149.668 62h2.052v-2.09h-2.052V62z" fill="#000"/></svg>