<svg width="117" height="16" viewBox="0 0 117 16" fill="none" xmlns="http://www.w3.org/2000/svg"><path fill-rule="evenodd" clip-rule="evenodd" d="M13.457 12.7775c0 .3415-.2732.6831-.6831.6831H.683099C.341549 13.4606 0 13.1873 0 12.7775V.686608C0 .345059.273239.00351.683099.00351H12.7739c.3416 0 .6831.273239.6831.683098V12.7775z" fill="#007B4B"/><path fill-rule="evenodd" clip-rule="evenodd" d="M5.5331 5.39999c-.13662 0-.20493.06831-.20493.20493v3.14226c0 .13662.06831.27324.13662.40986l3.27887 3.27886c.06831.0683.27324.1366.40986.1366h3.14228c.1366 0 .2049-.0683.2049-.2049V9.22535c0-.13662-.0683-.27324-.1366-.40986L9.08521 5.53661c-.06831-.06831-.27324-.13662-.40986-.13662H5.5331z" fill="#fff"/><path fill-rule="evenodd" clip-rule="evenodd" d="M1.09296.891541c-.13662 0-.204929.068309-.204929.204929V12.3676c0 .1366.06831.1366.136619.0683l3.27887-3.27887c.06831-.06831.13662-.27324.13662-.40986V4.71689c0-.13662.06831-.20493.20493-.20493h4.03029c.13662 0 .27324-.06831.40985-.13662l3.27889-3.27887c.0683-.06831.0683-.136621-.0683-.136621H1.09296V.891541z" fill="#fff"/><path d="M19.6732 4.92181h5.6698v1.50282h-3.8937V8.269h3.3472v1.36619h-3.3472v3.34721h-1.7761V4.92181zM27.119 10.1134c0-.95637.3416-1.8444 1.4345-1.8444 1.093 0 1.4345.95634 1.4345 1.8444 0 .9563-.3415 1.8443-1.4345 1.8443-1.0929 0-1.4345-.9563-1.4345-1.8443zm1.7761-3.82539h1.5028V4.99013h-1.5028v1.29788zm-2.3226 0h1.5029V4.99013h-1.5029v1.29788zm-1.0929 3.82539c0 1.8443 1.1613 3.0739 3.0056 3.0739 1.8444 0 3.0057-1.2296 3.0057-3.0739 0-1.8444-1.1613-3.07398-3.0057-3.07398-1.776 0-3.0056 1.16127-3.0056 3.07398zM32.174 7.17605h1.5028v1.09296c.2732-.75141 1.0929-1.22958 1.8443-1.22958.1366 0 .2733 0 .3416.06831v1.50282c-.1366 0-.4099-.06831-.5465-.06831-1.1613 0-1.5711.81971-1.5711 1.84435v2.6641H32.174V7.17605zM37.707 11.138c0 .6831.6148.9564 1.2296.9564.4782 0 1.0247-.205 1.0247-.7515 0-.4781-.6831-.683-1.8444-.888-.9563-.2049-1.8444-.54646-1.8444-1.5711 0-1.50282 1.2979-1.84437 2.5275-1.84437 1.2979 0 2.4592.40986 2.5958 1.84437H39.893c-.0684-.61479-.5465-.81972-1.093-.81972-.3415 0-.888.06831-.888.54648 0 .54647.888.68309 1.8443.88802.9564.20493 1.8444.54652 1.8444 1.63942 0 1.5028-1.3662 2.0493-2.6641 2.0493-1.3662 0-2.6641-.4782-2.7324-2.0493h1.5028zM45.9725 10.7282c0 .3415-.0683 1.3662-1.2978 1.3662-.5465 0-.9564-.1367-.9564-.7515 0-.6147.4782-.7514.9564-.888.4781-.0683 1.0929-.1366 1.3662-.3415v.6148h-.0684zm-.6147-4.44019h1.5028V4.99013h-1.5028v1.29788zm-2.3226 0h1.5028V4.99013h-1.5028v1.29788zm.8197 2.66409c.0684-.61479.4782-.88803 1.093-.88803.5465 0 1.0246.06831 1.0246.81972 0 .6831-.888.61479-1.9126.75141-1.0247.13662-1.981.4782-1.981 1.7761 0 1.2295.888 1.776 1.981 1.776.6831 0 1.4345-.2049 1.981-.7514 0 .2049.0683.4099.1366.5465h1.6394c-.1366-.2049-.2049-.7514-.2049-1.2979V8.67886c0-1.43451-1.4345-1.63944-2.5958-1.63944-1.2979 0-2.6641.47817-2.7324 1.98099h1.5711V8.9521zM48.5 4.92181h1.5711v4.30353l2.0493-2.11761h1.9127l-2.1859 2.11761 2.4591 3.68876h-1.9126l-1.6395-2.5275-.6148.6148v1.981h-1.5711V4.92181H48.5zM54.8528 7.17605h1.5028v1.09296c.2733-.75141 1.093-1.22958 1.8444-1.22958.1366 0 .2732 0 .3415.06831v1.50282c-.1366 0-.4098-.06831-.5464-.06831-1.1613 0-1.5712.81971-1.5712 1.84435v2.6641h-1.5711V7.17605zM59.293 7.17604h1.6394v5.87466H59.293V7.17604zm1.6394-.88803H59.293V4.99013h1.6394v1.29788zM61.957 7.17605h1.5029v.81972c.4098-.6831 1.0929-.95634 1.776-.95634 1.7078 0 2.1176.95634 2.1176 2.39084v3.62043h-1.5711V9.77182c0-.95633-.2732-1.43451-1.0247-1.43451-.888 0-1.2295.47817-1.2295 1.70779v3.0739H61.957V7.17605zM71.0422 11.6162c-.9563 0-1.2978-.888-1.2978-1.77607 0-.88803.4098-1.63944 1.2978-1.63944 1.0247 0 1.3662.81972 1.3662 1.77606 0 .88805-.4098 1.63945-1.3662 1.63945zm2.9374-4.44016h-1.5028v.75141c-.4099-.6831-.9564-.95633-1.7078-.95633-1.6394 0-2.5275 1.36619-2.5275 2.86901 0 1.57117.7515 2.93737 2.5275 2.93737.6831 0 1.3662-.2733 1.7761-.8881v.7514c0 .8198-.4099 1.4345-1.2979 1.4345-.5465 0-1.0247-.2049-1.2296-.8197h-1.5711c.0683 1.2979 1.4345 1.8444 2.5957 1.8444 2.6641 0 3.0057-1.6394 3.0057-2.5958V7.17604h-.0683zM76.0972 11.138c0 .6831.6148.9564 1.2296.9564.4781 0 1.0246-.205 1.0246-.7515 0-.4781-.6831-.683-1.8444-.888-.9563-.2049-1.8443-.54646-1.8443-1.5711 0-1.50282 1.2979-1.84437 2.5274-1.84437 1.2979 0 2.4592.40986 2.5958 1.84437h-1.5028c-.0683-.61479-.5465-.81972-1.093-.81972-.3415 0-.888.06831-.888.54648 0 .54647.8881.68309 1.8444.88802.9563.20493 1.8444.54652 1.8444 1.63942 0 1.5028-1.3662 2.0493-2.6641 2.0493-1.3662 0-2.6641-.4782-2.7324-2.0493h1.5028zM80.6056 4.92181h1.5712v4.30353l2.0493-2.11761h1.9126l-2.1859 2.11761 2.4592 3.68876h-1.9127l-1.5711-2.5958-.6148.6148v1.981h-1.5711V4.92181h-.1367zM90.3739 10.7282c0 .3415-.0683 1.3662-1.2978 1.3662-.5465 0-.9564-.1367-.9564-.7515 0-.6147.4782-.7514.9564-.888.4781-.0683 1.0929-.1366 1.3662-.3415v.6148h-.0684zm-2.1176-1.7761c.0683-.61478.4782-.88802 1.093-.88802.5465 0 1.0246.06831 1.0246.81972 0 .68309-.888.61478-1.9126.7514-1.0247.13662-1.981.4782-1.981 1.7761 0 1.2295.888 1.776 1.981 1.776.6831 0 1.4345-.2049 1.981-.7514 0 .2049.0683.4099.1366.5465h1.6394c-.1366-.2049-.2049-.7514-.2049-1.2979V8.67886c0-1.4345-1.3662-1.63943-2.5958-1.63943-1.2979 0-2.6641.47817-2.7324 1.98098h1.5711V8.9521zM94.2676 11.138c0 .6831.6148.9564 1.2296.9564.4782 0 1.0246-.205 1.0246-.7515 0-.4781-.6831-.683-1.8443-.888-.9564-.2049-1.8444-.54646-1.8444-1.5711 0-1.50282 1.2979-1.84437 2.5275-1.84437 1.2979 0 2.4591.40986 2.5957 1.84437h-1.5028c-.0683-.61479-.5465-.81972-1.0929-.81972-.3416 0-.8881.06831-.8881.54648 0 .54647.8881.68309 1.8444.88802.9563.20493 1.8444.54652 1.8444 1.63942 0 1.5028-1.2979 2.0493-2.6641 2.0493-1.3662 0-2.6641-.4782-2.7324-2.0493h1.5028zM100.142 11.138c0 .6831.615.9564 1.23.9564.478 0 1.024-.205 1.024-.7515 0-.4781-.683-.683-1.844-.888-.9562-.2049-1.8443-.54646-1.8443-1.5711 0-1.50282 1.2983-1.84437 2.5273-1.84437 1.298 0 2.459.40986 2.596 1.84437h-1.503c-.068-.61479-.546-.81972-1.093-.81972-.341 0-.888.06831-.888.54648 0 .54647.888.68309 1.845.88802.956.20493 1.844.54652 1.844 1.63942 0 1.5028-1.366 2.0493-2.664 2.0493-1.366 0-2.6642-.4782-2.7326-2.0493h1.5026zM108.408 10.7282c0 .3415-.069 1.3662-1.298 1.3662-.547 0-.956-.1367-.956-.7515 0-.6147.478-.7514.956-.888.478-.0683 1.093-.1366 1.366-.3415v.6148h-.068zm-2.118-1.7761c.068-.61478.478-.88802 1.093-.88802.547 0 1.025.06831 1.025.81972 0 .68309-.888.61478-1.913.7514-1.025.13662-1.981.4782-1.981 1.7761 0 1.2295.888 1.776 1.981 1.776.683 0 1.435-.2049 1.981-.7514 0 .2049.068.4099.137.5465h1.639c-.137-.2049-.205-.7514-.205-1.2979V8.67886c0-1.4345-1.366-1.63943-2.596-1.63943-1.297 0-2.664.47817-2.732 1.98098h1.571V8.9521zM111.004 7.17605h1.502v.81972c.41-.6831 1.093-.95634 1.776-.95634 1.708 0 2.118.95634 2.118 2.39084v3.62043h-1.639V9.77182c0-.95633-.274-1.43451-1.025-1.43451-.888 0-1.23.47817-1.23 1.70779v3.0739h-1.571V7.17605h.069z" fill="#1A171B"/></svg>