<svg width="227" height="104" viewBox="0 0 227 104" fill="none" xmlns="http://www.w3.org/2000/svg"><path d="M.22 21h3.762l1.012-3.124h5.94L11.968 21h3.96L10.01 4.632H6.116L.22 21zm6.666-8.866c.528-1.606 1.1-4.356 1.1-4.356h.044s.352 2.112 1.056 4.356l.99 3.058H5.874l1.012-3.058zM3.718 3.73h3.366V.781999H3.718V3.73zm5.39 0h3.344V.781999H9.108V3.73zm11.5572 5.566h-3.322V21h3.454v-5.434c0-2.288 1.232-3.454 3.102-3.432.242 0 .484.022.726.066h.088V9.186c-.154-.066-.396-.088-.726-.088-1.452 0-2.508.66-3.256 2.288h-.066v-2.09zm15.4741 12.078c1.584 0 2.882-.66 3.564-2.09h.044V21h3.322V4.632h-3.454v3.586c0 .99.044 1.98.088 2.706h-.044c-.792-1.21-1.87-1.958-3.476-1.958-3.036 0-5.06 2.596-5.06 6.182 0 3.872 1.98 6.226 5.016 6.226zm.924-2.772c-1.606 0-2.42-1.364-2.42-3.476 0-2.09.814-3.542 2.442-3.542 1.782 0 2.64 1.496 2.64 3.564 0 2.046-.99 3.454-2.662 3.454zM56.2488 21V9.296h-3.41v6.622c0 1.452-.858 2.508-2.244 2.508-1.232 0-1.87-.748-1.87-2.046V9.296h-3.454v7.744c0 2.574 1.452 4.29 4.114 4.29 1.606 0 2.662-.638 3.52-2.002h.066V21h3.278zm14.5166.374c3.036 0 5.016-2.354 5.016-6.226 0-3.586-2.002-6.182-5.038-6.182-1.628 0-2.706.77-3.498 1.958h-.066c.044-.704.11-1.716.11-2.706V4.632h-3.454V21h3.322v-1.716h.044c.682 1.43 2.002 2.09 3.564 2.09zm-.924-2.772c-1.672 0-2.662-1.408-2.662-3.454 0-2.024.836-3.564 2.64-3.564 1.628 0 2.442 1.452 2.442 3.542 0 2.112-.814 3.476-2.42 3.476zm13.2901 2.75c3.014 0 4.928-1.584 5.522-3.652h-3.344c-.374.726-1.056 1.144-2.134 1.144-1.672 0-2.618-1.056-2.838-2.816h8.536c.022-2.31-.572-4.29-1.892-5.566-1.034-.946-2.354-1.496-4.026-1.496-3.564 0-6.006 2.684-6.006 6.204 0 3.498 2.354 6.182 6.182 6.182zm-.176-9.944c1.364 0 2.288.99 2.398 2.618h-4.994c.22-1.606 1.012-2.618 2.596-2.618zm10.9714-2.112h-3.322V21h3.454v-5.434c0-2.288 1.232-3.454 3.102-3.432.242 0 .484.022.726.066h.088V9.186c-.154-.066-.396-.088-.726-.088-1.452 0-2.508.66-3.256 2.288h-.066v-2.09zm11.1191 12.056c3.014 0 4.928-1.584 5.522-3.652h-3.344c-.374.726-1.056 1.144-2.134 1.144-1.672 0-2.618-1.056-2.838-2.816h8.536c.022-2.31-.572-4.29-1.892-5.566-1.034-.946-2.354-1.496-4.026-1.496-3.564 0-6.0065 2.684-6.0065 6.204 0 3.498 2.3545 6.182 6.1825 6.182zm-.176-9.944c1.364 0 2.288.99 2.398 2.618h-4.994c.22-1.606 1.012-2.618 2.596-2.618zm12.115 9.966c1.584 0 2.882-.66 3.564-2.09h.044V21h3.322V4.632h-3.454v3.586c0 .99.044 1.98.088 2.706h-.044c-.792-1.21-1.87-1.958-3.476-1.958-3.036 0-5.06 2.596-5.06 6.182 0 3.872 1.98 6.226 5.016 6.226zm.924-2.772c-1.606 0-2.42-1.364-2.42-3.476 0-2.09.814-3.542 2.442-3.542 1.782 0 2.64 1.496 2.64 3.564 0 2.046-.99 3.454-2.662 3.454zm12.762 2.772c1.584 0 2.882-.66 3.564-2.09h.044V21h3.322V4.632h-3.454v3.586c0 .99.044 1.98.088 2.706h-.044c-.792-1.21-1.87-1.958-3.476-1.958-3.036 0-5.06 2.596-5.06 6.182 0 3.872 1.98 6.226 5.016 6.226zm.924-2.772c-1.606 0-2.42-1.364-2.42-3.476 0-2.09.814-3.542 2.442-3.542 1.782 0 2.64 1.496 2.64 3.564 0 2.046-.99 3.454-2.662 3.454zM8.646 45h3.366v-.198c-.308-.198-.44-.704-.44-1.628v-6.006c0-1.584-.572-2.794-1.782-3.498-.814-.484-1.87-.704-3.366-.704-3.476 0-5.104 1.87-5.192 3.872h3.19c.088-.924.726-1.54 2.046-1.54 1.188 0 1.738.572 1.738 1.408 0 .88-.858 1.21-2.948 1.496C2.706 38.51.66 39.17.66 41.766c0 2.31 1.694 3.542 4.004 3.542 1.804 0 2.772-.66 3.542-1.738h.044c.066.66.22 1.166.396 1.43zm-2.904-1.958c-.946 0-1.716-.374-1.716-1.386s.726-1.386 2.244-1.716c.77-.176 1.518-.352 2.024-.66v1.518c0 1.276-1.012 2.244-2.552 2.244zm7.3743-7.546h1.76v6.556c0 2.376 1.474 3.08 3.652 3.08.924 0 1.628-.11 2.002-.176v-2.574h-.176c-.22.022-.572.044-.792.044-.814 0-1.298-.242-1.298-1.122v-5.808h2.288v-2.2h-2.288v-3.74h-3.388v3.74h-1.76v2.2zm8.4434 0h1.76v6.556c0 2.376 1.474 3.08 3.652 3.08.924 0 1.628-.11 2.002-.176v-2.574h-.176c-.22.022-.572.044-.792.044-.814 0-1.298-.242-1.298-1.122v-5.808h2.288v-2.2h-2.288v-3.74h-3.388v3.74h-1.76v2.2zm13.8574 0h1.76v6.556c0 2.376 1.474 3.08 3.652 3.08.924 0 1.628-.11 2.002-.176v-2.574h-.176c-.22.022-.572.044-.792.044-.814 0-1.298-.242-1.298-1.122v-5.808h2.288v-2.2h-2.288v-3.74h-3.388v3.74h-1.76v2.2zM52.3667 45h3.366v-.198c-.308-.198-.44-.704-.44-1.628v-6.006c0-1.584-.572-2.794-1.782-3.498-.814-.484-1.87-.704-3.366-.704-3.476 0-5.104 1.87-5.192 3.872h3.19c.088-.924.726-1.54 2.046-1.54 1.188 0 1.738.572 1.738 1.408 0 .88-.858 1.21-2.948 1.496-2.552.308-4.598.968-4.598 3.564 0 2.31 1.694 3.542 4.004 3.542 1.804 0 2.772-.66 3.542-1.738h.044c.066.66.22 1.166.396 1.43zm-2.904-1.958c-.946 0-1.716-.374-1.716-1.386s.726-1.386 2.244-1.716c.77-.176 1.518-.352 2.024-.66v1.518c0 1.276-1.012 2.244-2.552 2.244zm20.1364 2.354c3.74 0 6.6-1.892 6.6-5.28 0-3.454-2.706-4.422-5.654-5.082-2.574-.572-3.982-.858-3.982-2.134 0-1.034 1.034-1.694 2.574-1.694 1.628 0 2.64.748 2.838 2.024h3.674c-.242-3.212-2.794-4.884-6.402-4.884s-6.38 1.54-6.38 4.928c0 3.41 2.596 4.202 5.786 4.928 2.376.55 3.762.858 3.762 2.288 0 1.342-1.364 1.914-2.816 1.914-2.112 0-3.278-.792-3.476-2.574h-3.784c.11 3.542 2.882 5.566 7.26 5.566zM80.7068 45h3.718l4.092-11.704h-3.476l-1.474 4.708c-.484 1.562-.924 4.092-.924 4.092h-.066s-.44-2.53-.924-4.092l-1.43-4.708h-3.564L80.7068 45zm14.2626.352c3.014 0 4.928-1.584 5.5216-3.652h-3.3436c-.374.726-1.056 1.144-2.134 1.144-1.672 0-2.618-1.056-2.838-2.816h8.5356c.022-2.31-.572-4.29-1.8916-5.566-1.034-.946-2.354-1.496-4.026-1.496-3.564 0-6.006 2.684-6.006 6.204 0 3.498 2.354 6.182 6.182 6.182zm-.176-9.944c1.364 0 2.288.99 2.398 2.618h-4.994c.22-1.606 1.012-2.618 2.596-2.618zm10.9716-2.112h-3.322V45h3.454v-5.434c0-2.288 1.232-3.454 3.102-3.432.242 0 .484.022.726.066h.088v-3.014c-.154-.066-.396-.088-.726-.088-1.452 0-2.508.66-3.256 2.288h-.066v-2.09zm5.679-1.65h3.498v-3.014h-3.498v3.014zM111.466 45h3.454V33.296h-3.454V45zm11.171 4.07c1.716 0 3.212-.396 4.224-1.276.946-.836 1.518-2.09 1.518-3.828v-10.67h-3.3v1.496h-.044c-.66-1.298-1.782-1.826-3.366-1.826-2.882 0-4.928 2.354-4.928 5.764 0 3.542 2.398 5.544 5.104 5.544 1.452 0 2.486-.572 3.168-1.716h.088c-.044.396-.066.946-.066 1.54v.242c0 1.43-.814 2.266-2.442 2.266-1.342 0-2.002-.484-2.222-1.188h-3.366c.352 2.31 2.42 3.652 5.632 3.652zm-.022-7.392c-1.54 0-2.486-1.188-2.486-3.036 0-1.87.946-3.058 2.464-3.058 1.694 0 2.552 1.298 2.552 3.036s-.77 3.058-2.53 3.058zm13.712 3.674c3.014 0 4.928-1.584 5.522-3.652h-3.344c-.374.726-1.056 1.144-2.134 1.144-1.672 0-2.618-1.056-2.838-2.816h8.536c.022-2.31-.572-4.29-1.892-5.566-1.034-.946-2.354-1.496-4.026-1.496-3.564 0-6.006 2.684-6.006 6.204 0 3.498 2.354 6.182 6.182 6.182zm-.176-9.944c1.364 0 2.288.99 2.398 2.618h-4.994c.22-1.606 1.012-2.618 2.596-2.618zm12.511 9.966c3.036 0 5.28-1.32 5.28-3.85 0-2.948-2.376-3.498-4.466-3.872-1.606-.286-2.882-.418-2.882-1.298 0-.748.682-1.188 1.738-1.188 1.1 0 1.76.418 1.98 1.254h3.212c-.308-2.046-1.936-3.454-5.192-3.454-2.75 0-4.928 1.254-4.928 3.652 0 2.728 2.112 3.256 4.202 3.652 1.628.308 3.014.44 3.014 1.496 0 .836-.704 1.342-1.936 1.342-1.342 0-2.178-.616-2.376-1.716h-3.256c.176 2.354 2.222 3.982 5.61 3.982zM4.158 69h3.718l4.092-11.704H8.492l-1.474 4.708c-.484 1.562-.924 4.092-.924 4.092h-.066s-.44-2.53-.924-4.092l-1.43-4.708H.11L4.158 69zm9.0382-13.354h3.498v-3.014h-3.498v3.014zM13.2182 69h3.454V57.296h-3.454V69zm13.3703 0h4.004l-4.664-7.37 4.18-4.334h-4.004l-3.85 4.202c.044-.748.11-2.046.11-3.762v-5.104h-3.41V69h3.41v-3.894l1.166-1.21L26.5885 69zm4.4458-9.504h1.76v6.556c0 2.376 1.474 3.08 3.652 3.08.924 0 1.628-.11 2.002-.176v-2.574h-.176c-.22.022-.572.044-.792.044-.814 0-1.298-.242-1.298-1.122v-5.808h2.288v-2.2h-2.288v-3.74h-3.388v3.74h-1.76v2.2zm9.2107-3.85h3.498v-3.014h-3.498v3.014zM40.267 69h3.454V57.296h-3.454V69zm11.1704 4.07c1.716 0 3.212-.396 4.224-1.276.946-.836 1.518-2.09 1.518-3.828v-10.67h-3.3v1.496h-.044c-.66-1.298-1.782-1.826-3.366-1.826-2.882 0-4.928 2.354-4.928 5.764 0 3.542 2.398 5.544 5.104 5.544 1.452 0 2.486-.572 3.168-1.716h.088c-.044.396-.066.946-.066 1.54v.242c0 1.43-.814 2.266-2.442 2.266-1.342 0-2.002-.484-2.222-1.188h-3.366c.352 2.31 2.42 3.652 5.632 3.652zm-.022-7.392c-1.54 0-2.486-1.188-2.486-3.036 0-1.87.946-3.058 2.464-3.058 1.694 0 2.552 1.298 2.552 3.036s-.77 3.058-2.53 3.058zM66.9976 69h3.366v-.198c-.308-.198-.44-.704-.44-1.628v-6.006c0-1.584-.572-2.794-1.782-3.498-.814-.484-1.87-.704-3.366-.704-3.476 0-5.104 1.87-5.192 3.872h3.19c.088-.924.726-1.54 2.046-1.54 1.188 0 1.738.572 1.738 1.408 0 .88-.858 1.21-2.948 1.496-2.552.308-4.598.968-4.598 3.564 0 2.31 1.694 3.542 4.004 3.542 1.804 0 2.772-.66 3.542-1.738h.044c.066.66.22 1.166.396 1.43zm-2.904-1.958c-.946 0-1.716-.374-1.716-1.386s.726-1.386 2.244-1.716c.77-.176 1.518-.352 2.024-.66v1.518c0 1.276-1.012 2.244-2.552 2.244zm13.0257 2.332c3.036 0 5.28-1.32 5.28-3.85 0-2.948-2.376-3.498-4.466-3.872-1.606-.286-2.882-.418-2.882-1.298 0-.748.682-1.188 1.738-1.188 1.1 0 1.76.418 1.98 1.254h3.212c-.308-2.046-1.936-3.454-5.192-3.454-2.75 0-4.928 1.254-4.928 3.652 0 2.728 2.112 3.256 4.202 3.652 1.628.308 3.014.44 3.014 1.496 0 .836-.704 1.342-1.936 1.342-1.342 0-2.178-.616-2.376-1.716h-3.256c.176 2.354 2.222 3.982 5.61 3.982zm5.9931-9.878h1.76v6.556c0 2.376 1.474 3.08 3.652 3.08.924 0 1.628-.11 2.002-.176v-2.574h-.176c-.22.022-.572.044-.792.044-.814 0-1.298-.242-1.298-1.122v-5.808h2.288v-2.2h-2.288v-3.74h-3.388v3.74h-1.76v2.2zm14.8648 9.856c3.0138 0 4.9278-1.584 5.5218-3.652h-3.344c-.3738.726-1.0558 1.144-2.1338 1.144-1.672 0-2.618-1.056-2.838-2.816h8.5358c.022-2.31-.572-4.29-1.892-5.566-1.034-.946-2.3538-1.496-4.0258-1.496-3.564 0-6.006 2.684-6.006 6.204 0 3.498 2.354 6.182 6.182 6.182zm-.176-9.944c1.364 0 2.2878.99 2.3978 2.618h-4.9938c.22-1.606 1.012-2.618 2.596-2.618zM110.999 69h3.762V52.632h-3.762V69zm5.761-13.178h4.862V69h3.762V55.822h4.884v-3.19H116.76v3.19zm13.22 8.844h6.226v-2.992h-6.226v2.992zm8.256 8.316c1.056 0 1.936-.242 2.574-.88.55-.528.88-1.32.88-2.816v-11.99h-3.454v11.858c0 .858-.33 1.122-1.012 1.188-.242.022-.506.022-.814.022h-.132v2.442c.528.11 1.342.176 1.958.176zm-.022-17.336h3.498v-3.014h-3.498v3.014zm11.412 13.728c3.718 0 6.16-2.706 6.16-6.204 0-3.52-2.442-6.204-6.16-6.204-3.74 0-6.204 2.684-6.204 6.204 0 3.498 2.464 6.204 6.204 6.204zm-.022-2.508c-1.76 0-2.684-1.496-2.684-3.696 0-2.222.924-3.74 2.684-3.74 1.716 0 2.684 1.518 2.684 3.74 0 2.2-.968 3.696-2.684 3.696zm14.855 2.508c3.036 0 5.016-2.354 5.016-6.226 0-3.586-2.002-6.182-5.038-6.182-1.628 0-2.706.77-3.498 1.958h-.066c.044-.704.11-1.716.11-2.706v-3.586h-3.454V69h3.322v-1.716h.044c.682 1.43 2.002 2.09 3.564 2.09zm-.924-2.772c-1.672 0-2.662-1.408-2.662-3.454 0-2.024.836-3.564 2.64-3.564 1.628 0 2.442 1.452 2.442 3.542 0 2.112-.814 3.476-2.42 3.476zm14.588 2.772c3.036 0 5.016-2.354 5.016-6.226 0-3.586-2.002-6.182-5.038-6.182-1.628 0-2.706.77-3.498 1.958h-.066c.044-.704.11-1.716.11-2.706v-3.586h-3.454V69h3.322v-1.716h.044c.682 1.43 2.002 2.09 3.564 2.09zm-.924-2.772c-1.672 0-2.662-1.408-2.662-3.454 0-2.024.836-3.564 2.64-3.564 1.628 0 2.442 1.452 2.442 3.542 0 2.112-.814 3.476-2.42 3.476zM187.312 69h3.652v-3.608h-3.652V69zm.33-5.698h3.08c.022-.638.11-.968.462-1.364.462-.506 1.276-.902 2.464-1.826.858-.682 1.628-1.694 1.628-3.344 0-2.662-2.156-4.422-5.588-4.422-3.806 0-5.984 2.31-6.072 5.258h3.432c.022-1.364 1.012-2.398 2.508-2.398 1.21 0 2.09.638 2.09 1.65 0 1.276-1.342 1.848-2.332 2.706-1.21 1.012-1.672 1.892-1.672 3.74z" fill="#000"/></svg>