<svg width="227" height="60" viewBox="0 0 227 60" fill="none" xmlns="http://www.w3.org/2000/svg"><path d="M1.309 16h4.556c3.791 0 5.763-2.499 5.763-6.273 0-3.791-1.87-6.375-5.644-6.375H1.309V16zm1.751-1.513V4.865h2.839c2.873 0 3.927 1.955 3.927 4.862s-1.173 4.76-4.029 4.76H3.06zm14.4402 1.768c2.108 0 3.57-1.156 3.978-2.856h-1.547c-.289.969-1.156 1.564-2.414 1.564-1.768 0-2.737-1.36-2.856-3.145h7.004c0-1.547-.374-2.856-1.122-3.757-.714-.884-1.768-1.411-3.128-1.411-2.618 0-4.369 2.142-4.369 4.794 0 2.669 1.649 4.811 4.454 4.811zm-.085-8.381c1.581 0 2.482 1.054 2.567 2.805h-5.287c.204-1.615 1.071-2.805 2.72-2.805zm5.2085.221h1.428v6.12c0 1.343.85 1.836 2.074 1.853.408 0 .85-.051 1.275-.153v-1.326h-.051c-.17.051-.527.119-.799.119-.578 0-.935-.187-.935-.85V8.095h1.887V6.871h-1.887V3.998h-1.564v2.873h-1.428v1.224zm13.7566 8.092c1.547 0 2.482-.731 3.06-1.53h.017c.17.969.646 1.428 1.615 1.428.374 0 .629-.068.85-.136v-1.105h-.068c-.799.17-.969-.221-.969-.952V9.625c0-1.224-.459-2.023-1.224-2.482-.578-.34-1.343-.493-2.21-.493-2.465 0-3.638 1.377-3.706 2.924h1.53c.051-1.088.748-1.768 2.193-1.768 1.258 0 1.955.612 1.955 1.598 0 .935-.867 1.156-2.21 1.309-2.363.289-3.927.748-3.927 2.873 0 1.751 1.36 2.601 3.094 2.601zm.391-1.156c-.918 0-1.819-.289-1.819-1.462 0-1.258.986-1.53 2.482-1.785.748-.136 1.547-.357 2.006-.646v1.496c0 1.054-.85 2.397-2.669 2.397zm1.496-9.843h1.564V3.352h-1.564v1.836zm-3.366 0h1.564V3.352h-1.564v1.836zm9.8689 1.683h-1.564V16h1.581v-4.964c0-1.717 1.207-2.771 2.618-2.771.272 0 .425.017.646.085h.051V6.854c-.17-.068-.323-.102-.578-.102-1.207 0-2.142.714-2.703 1.768h-.051V6.871zm13.354 9.384c2.108 0 3.57-1.156 3.978-2.856h-1.547c-.289.969-1.156 1.564-2.414 1.564-1.768 0-2.737-1.36-2.856-3.145h7.004c0-1.547-.374-2.856-1.122-3.757-.714-.884-1.768-1.411-3.128-1.411-2.618 0-4.369 2.142-4.369 4.794 0 2.669 1.649 4.811 4.454 4.811zm-.085-8.381c1.581 0 2.482 1.054 2.567 2.805h-5.287c.204-1.615 1.071-2.805 2.72-2.805zm5.2085.221h1.428v6.12c0 1.343.85 1.836 2.074 1.853.408 0 .85-.051 1.275-.153v-1.326h-.051c-.17.051-.527.119-.799.119-.578 0-.935-.187-.935-.85V8.095h1.887V6.871h-1.887V3.998h-1.564v2.873h-1.428v1.224zm5.7109 0h1.428v6.12c0 1.343.85 1.836 2.074 1.853.408 0 .85-.051 1.275-.153v-1.326h-.051c-.17.051-.527.119-.799.119-.578 0-.935-.187-.935-.85V8.095h1.887V6.871h-1.887V3.998h-1.564v2.873h-1.428v1.224zm14.5386 8.177c2.142 0 3.672-.952 3.672-2.805 0-2.125-1.564-2.533-3.383-2.89-1.547-.306-2.431-.493-2.431-1.445 0-.697.527-1.275 1.768-1.275 1.309 0 1.955.527 2.091 1.462h1.581c-.204-1.581-1.343-2.652-3.638-2.652-2.125 0-3.349.986-3.349 2.55 0 2.006 1.615 2.38 3.4 2.754 1.615.323 2.38.578 2.38 1.581 0 .816-.612 1.445-2.057 1.445-1.309 0-2.329-.442-2.516-1.768h-1.598c.136 1.853 1.564 3.043 4.08 3.043zM88.15 8.095h1.428v6.12c0 1.343.85 1.836 2.074 1.853.408 0 .85-.051 1.275-.153v-1.326h-.051c-.17.051-.527.119-.799.119-.578 0-.935-.187-.935-.85V8.095h1.887V6.871h-1.887V3.998h-1.564v2.873H88.15v1.224zm10.416 8.16c2.754 0 4.437-2.142 4.437-4.811 0-2.652-1.683-4.794-4.437-4.794-2.754 0-4.471 2.142-4.471 4.794 0 2.669 1.717 4.811 4.471 4.811zm-.017-1.292c-1.87 0-2.839-1.547-2.839-3.519 0-1.972.969-3.536 2.839-3.536s2.839 1.564 2.839 3.536-.969 3.519-2.839 3.519zm7.697-8.092h-1.564V16h1.581v-4.964c0-1.717 1.207-2.771 2.618-2.771.272 0 .425.017.646.085h.051V6.854c-.17-.068-.323-.102-.578-.102-1.207 0-2.142.714-2.703 1.768h-.051V6.871zm4.316 1.224h1.428v6.12c0 1.343.85 1.836 2.074 1.853.408 0 .85-.051 1.275-.153v-1.326h-.051c-.17.051-.527.119-.799.119-.578 0-.935-.187-.935-.85V8.095h1.887V6.871h-1.887V3.998h-1.564v2.873h-1.428v1.224zm13.757 8.092c1.547 0 2.482-.731 3.06-1.53h.017c.17.969.646 1.428 1.615 1.428.374 0 .629-.068.85-.136v-1.105h-.068c-.799.17-.969-.221-.969-.952V9.625c0-1.224-.459-2.023-1.224-2.482-.578-.34-1.343-.493-2.21-.493-2.465 0-3.638 1.377-3.706 2.924h1.53c.051-1.088.748-1.768 2.193-1.768 1.258 0 1.955.612 1.955 1.598 0 .935-.867 1.156-2.21 1.309-2.363.289-3.927.748-3.927 2.873 0 1.751 1.36 2.601 3.094 2.601zm.391-1.156c-.918 0-1.819-.289-1.819-1.462 0-1.258.986-1.53 2.482-1.785.748-.136 1.547-.357 2.006-.646v1.496c0 1.054-.85 2.397-2.669 2.397zm7.999-8.16h-1.564V16h1.581v-5.559c0-1.462 1.02-2.465 2.431-2.465 1.241 0 2.006.663 2.006 1.836V16h1.564V9.625c0-1.904-1.173-2.975-3.077-2.975-1.326 0-2.227.595-2.89 1.513h-.051V6.871zm11.65 9.401c2.142 0 3.672-.952 3.672-2.805 0-2.125-1.564-2.533-3.383-2.89-1.547-.306-2.431-.493-2.431-1.445 0-.697.527-1.275 1.768-1.275 1.309 0 1.955.527 2.091 1.462h1.581c-.204-1.581-1.343-2.652-3.638-2.652-2.125 0-3.349.986-3.349 2.55 0 2.006 1.615 2.38 3.4 2.754 1.615.323 2.38.578 2.38 1.581 0 .816-.612 1.445-2.057 1.445-1.309 0-2.329-.442-2.516-1.768h-1.598c.136 1.853 1.564 3.043 4.08 3.043zm7.472-.272h1.751l3.281-9.129h-1.632l-1.632 4.93c-.408 1.224-.799 2.907-.799 2.907h-.034s-.442-1.683-.833-2.907l-1.598-4.93h-1.683L151.831 16zm8.679.187c1.547 0 2.482-.731 3.06-1.53h.017c.17.969.646 1.428 1.615 1.428.374 0 .629-.068.85-.136v-1.105h-.068c-.799.17-.969-.221-.969-.952V9.625c0-1.224-.459-2.023-1.224-2.482-.578-.34-1.343-.493-2.21-.493-2.465 0-3.638 1.377-3.706 2.924h1.53c.051-1.088.748-1.768 2.193-1.768 1.258 0 1.955.612 1.955 1.598 0 .935-.867 1.156-2.21 1.309-2.363.289-3.927.748-3.927 2.873 0 1.751 1.36 2.601 3.094 2.601zm.391-1.156c-.918 0-1.819-.289-1.819-1.462 0-1.258.986-1.53 2.482-1.785.748-.136 1.547-.357 2.006-.646v1.496c0 1.054-.85 2.397-2.669 2.397zm7.999-8.16h-1.564V16h1.581v-4.964c0-1.717 1.207-2.771 2.618-2.771.272 0 .425.017.646.085h.051V6.854c-.17-.068-.323-.102-.578-.102-1.207 0-2.142.714-2.703 1.768h-.051V6.871zM172.595 16h1.836v-1.87h-1.836V16zM1.309 35h1.564v-7.65c0-1.122-.102-3.247-.102-3.247h.034s.527 1.904.884 2.89L6.766 35h1.36l3.077-8.007c.374-.986.884-2.89.884-2.89h.034s-.102 2.125-.102 3.247V35h1.666V22.352h-2.312L8.789 29.22c-.51 1.394-1.292 3.961-1.292 3.961h-.034s-.765-2.584-1.275-3.961l-2.635-6.868H1.309V35zm18.7146.255c2.108 0 3.57-1.156 3.978-2.856h-1.547c-.289.969-1.156 1.564-2.414 1.564-1.768 0-2.737-1.36-2.856-3.145h7.004c0-1.547-.374-2.856-1.122-3.757-.714-.884-1.768-1.411-3.128-1.411-2.618 0-4.369 2.142-4.369 4.794 0 2.669 1.649 4.811 4.454 4.811zm-.085-8.381c1.581 0 2.482 1.054 2.567 2.805h-5.287c.204-1.615 1.071-2.805 2.72-2.805zm7.4995-1.003h-1.564V35h1.581v-5.559c0-1.462 1.02-2.465 2.431-2.465 1.241 0 2.006.663 2.006 1.836V35h1.564v-6.375c0-1.904-1.173-2.975-3.077-2.975-1.326 0-2.227.595-2.89 1.513h-.051v-1.292zm16.1656 9.401c2.142 0 3.672-.952 3.672-2.805 0-2.125-1.564-2.533-3.383-2.89-1.547-.306-2.431-.493-2.431-1.445 0-.697.527-1.275 1.768-1.275 1.309 0 1.955.527 2.091 1.462h1.581c-.204-1.581-1.343-2.652-3.638-2.652-2.125 0-3.349.986-3.349 2.55 0 2.006 1.615 2.38 3.4 2.754 1.615.323 2.38.578 2.38 1.581 0 .816-.612 1.445-2.057 1.445-1.309 0-2.329-.442-2.516-1.768h-1.598c.136 1.853 1.564 3.043 4.08 3.043zm8.1828-.085c1.547 0 2.482-.731 3.06-1.53h.017c.17.969.646 1.428 1.615 1.428.374 0 .629-.068.85-.136v-1.105h-.068c-.799.17-.969-.221-.969-.952v-4.267c0-1.224-.459-2.023-1.224-2.482-.578-.34-1.343-.493-2.21-.493-2.465 0-3.638 1.377-3.706 2.924h1.53c.051-1.088.748-1.768 2.193-1.768 1.258 0 1.955.612 1.955 1.598 0 .935-.867 1.156-2.21 1.309-2.363.289-3.927.748-3.927 2.873 0 1.751 1.36 2.601 3.094 2.601zm.391-1.156c-.918 0-1.819-.289-1.819-1.462 0-1.258.986-1.53 2.482-1.785.748-.136 1.547-.357 2.006-.646v1.496c0 1.054-.85 2.397-2.669 2.397zm.612-9.214c.952 0 1.734-.765 1.734-1.717 0-.935-.782-1.683-1.734-1.683-.969 0-1.751.748-1.751 1.683 0 .952.782 1.717 1.751 1.717zm0-.714c-.561 0-.952-.425-.952-1.003 0-.561.391-.986.952-.986.544 0 .935.425.935.986 0 .578-.391 1.003-.935 1.003zM65.848 35.187c1.547 0 2.482-.731 3.06-1.53h.017c.17.969.646 1.428 1.615 1.428.374 0 .629-.068.85-.136v-1.105h-.068c-.799.17-.969-.221-.969-.952v-4.267c0-1.224-.459-2.023-1.224-2.482-.578-.34-1.343-.493-2.21-.493-2.465 0-3.638 1.377-3.706 2.924h1.53c.051-1.088.748-1.768 2.193-1.768 1.258 0 1.955.612 1.955 1.598 0 .935-.867 1.156-2.21 1.309-2.363.289-3.927.748-3.927 2.873 0 1.751 1.36 2.601 3.094 2.601zm.391-1.156c-.918 0-1.819-.289-1.819-1.462 0-1.258.986-1.53 2.482-1.785.748-.136 1.547-.357 2.006-.646v1.496c0 1.054-.85 2.397-2.669 2.397zm1.496-9.843h1.564v-1.836h-1.564v1.836zm-3.366 0h1.564v-1.836h-1.564v1.836zm9.8689 1.683h-1.564V35h1.581v-4.964c0-1.717 1.207-2.771 2.618-2.771.272 0 .425.017.646.085h.051v-1.496c-.17-.068-.323-.102-.578-.102-1.207 0-2.142.714-2.703 1.768h-.051v-1.649zm12.9291 9.401c1.275 0 2.244-.595 2.822-1.581h.034V35h1.564V22.352h-1.581v3.23c0 .612.017 1.275.051 1.683h-.034c-.578-.969-1.598-1.615-2.89-1.615-2.261 0-3.995 1.802-3.995 4.811 0 2.941 1.564 4.811 4.029 4.811zm.119-1.309c-1.683 0-2.533-1.479-2.533-3.485s.85-3.502 2.533-3.502c1.836 0 2.805 1.445 2.805 3.502 0 2.006-.85 3.485-2.805 3.485zm10.4329 1.292c2.108 0 3.5701-1.156 3.9781-2.856h-1.547c-.2891.969-1.1561 1.564-2.4141 1.564-1.768 0-2.737-1.36-2.856-3.145h7.0041c0-1.547-.374-2.856-1.122-3.757-.714-.884-1.7681-1.411-3.1281-1.411-2.618 0-4.369 2.142-4.369 4.794 0 2.669 1.649 4.811 4.454 4.811zm-.085-8.381c1.581 0 2.4821 1.054 2.5671 2.805h-5.2871c.204-1.615 1.071-2.805 2.72-2.805zm5.2081.221h1.428v6.12c0 1.343.85 1.836 2.074 1.853.408 0 .85-.051 1.275-.153v-1.326h-.051c-.17.051-.527.119-.799.119-.578 0-.935-.187-.935-.85v-5.763h1.887v-1.224h-1.887v-2.873h-1.564v2.873h-1.428v1.224zm12.618-1.428v-3.315h-1.581V35h1.581v-5.559c0-1.462 1.02-2.465 2.431-2.465 1.241 0 2.006.663 2.006 1.836V35h1.564v-6.375c0-1.904-1.173-2.975-3.077-2.975-1.326 0-2.244.578-2.924 1.547h-.051c.017-.442.051-1.071.051-1.53zm12.092 9.588c2.108 0 3.57-1.156 3.978-2.856h-1.547c-.289.969-1.156 1.564-2.414 1.564-1.768 0-2.737-1.36-2.856-3.145h7.004c0-1.547-.374-2.856-1.122-3.757-.714-.884-1.768-1.411-3.128-1.411-2.618 0-4.369 2.142-4.369 4.794 0 2.669 1.649 4.811 4.454 4.811zm-.085-8.381c1.581 0 2.482 1.054 2.567 2.805h-5.287c.204-1.615 1.071-2.805 2.72-2.805zM133.453 35h1.581V22.352h-1.581V35zm3.852 0h1.581V22.352h-1.581V35zm7.762.255c2.108 0 3.57-1.156 3.978-2.856h-1.547c-.289.969-1.156 1.564-2.414 1.564-1.768 0-2.737-1.36-2.856-3.145h7.004c0-1.547-.374-2.856-1.122-3.757-.714-.884-1.768-1.411-3.128-1.411-2.618 0-4.369 2.142-4.369 4.794 0 2.669 1.649 4.811 4.454 4.811zm-.085-8.381c1.581 0 2.482 1.054 2.567 2.805h-5.287c.204-1.615 1.071-2.805 2.72-2.805zm7.499-1.003h-1.564V35h1.581v-4.964c0-1.717 1.207-2.771 2.618-2.771.272 0 .425.017.646.085h.051v-1.496c-.17-.068-.323-.102-.578-.102-1.207 0-2.142.714-2.703 1.768h-.051v-1.649zM1.054 43.188h1.649v-1.836H1.054v1.836zM1.088 54h1.581v-9.129H1.088V54zm5.31595-9.129h-1.564V54h1.581v-5.559c0-1.462 1.02-2.465 2.431-2.465 1.24105 0 2.00605.663 2.00605 1.836V54h1.564v-6.375c0-1.904-1.173-2.975-3.07705-2.975-1.326 0-2.227.595-2.89 1.513h-.051v-1.292zM18.4109 57.196c1.224 0 2.244-.272 2.958-.867.697-.595 1.105-1.496 1.105-2.703v-8.755h-1.564v1.207h-.034c-.578-.918-1.462-1.428-2.771-1.428-2.142 0-3.91 1.666-3.91 4.471 0 2.652 1.666 4.471 3.995 4.471 1.292 0 2.091-.561 2.72-1.462h.034c-.017.289-.034.782-.034 1.309v.255c0 1.547-.901 2.278-2.533 2.278-1.36 0-2.278-.391-2.414-1.343h-1.479c.17 1.615 1.53 2.567 3.927 2.567zm-.068-4.896c-1.649 0-2.533-1.224-2.533-3.162 0-1.921.85-3.179 2.516-3.179 1.819 0 2.686 1.173 2.686 3.094 0 1.853-.68 3.247-2.669 3.247zm10.2803 1.955c2.108 0 3.57-1.156 3.978-2.856h-1.547c-.289.969-1.156 1.564-2.414 1.564-1.768 0-2.737-1.36-2.856-3.145h7.004c0-1.547-.374-2.856-1.122-3.757-.714-.884-1.768-1.411-3.128-1.411-2.618 0-4.369 2.142-4.369 4.794 0 2.669 1.649 4.811 4.454 4.811zm-.085-8.381c1.581 0 2.482 1.054 2.567 2.805h-5.287c.204-1.615 1.071-2.805 2.72-2.805zm5.2085.221h1.428v6.12c0 1.343.85 1.836 2.074 1.853.408 0 .85-.051 1.275-.153v-1.326h-.051c-.17.051-.527.119-.799.119-.578 0-.935-.187-.935-.85v-5.763h1.887v-1.224h-1.887v-2.873h-1.564v2.873h-1.428v1.224zM46.9593 54h1.751l3.281-9.129h-1.632l-1.632 4.93c-.408 1.224-.799 2.907-.799 2.907h-.034s-.442-1.683-.833-2.907l-1.598-4.93h-1.683L46.9593 54zm8.6788.187c1.547 0 2.482-.731 3.06-1.53h.017c.17.969.646 1.428 1.615 1.428.374 0 .629-.068.85-.136v-1.105h-.068c-.799.17-.969-.221-.969-.952v-4.267c0-1.224-.459-2.023-1.224-2.482-.578-.34-1.343-.493-2.21-.493-2.465 0-3.638 1.377-3.706 2.924h1.53c.051-1.088.748-1.768 2.193-1.768 1.258 0 1.955.612 1.955 1.598 0 .935-.867 1.156-2.21 1.309-2.363.289-3.927.748-3.927 2.873 0 1.751 1.36 2.601 3.094 2.601zm.391-1.156c-.918 0-1.819-.289-1.819-1.462 0-1.258.986-1.53 2.482-1.785.748-.136 1.547-.357 2.006-.646v1.496c0 1.054-.85 2.397-2.669 2.397zm7.9989-8.16h-1.564V54h1.581v-5.559c0-1.462 1.02-2.465 2.431-2.465 1.241 0 2.006.663 2.006 1.836V54h1.564v-6.375c0-1.904-1.173-2.975-3.077-2.975-1.326 0-2.227.595-2.89 1.513h-.051v-1.292zM72.2269 54h1.581V41.352h-1.581V54zm3.7666-10.812h1.649v-1.836h-1.649v1.836zM76.0275 54h1.581v-9.129h-1.581V54zm7.6109 3.196c1.224 0 2.244-.272 2.958-.867.697-.595 1.105-1.496 1.105-2.703v-8.755h-1.564v1.207h-.034c-.578-.918-1.462-1.428-2.771-1.428-2.142 0-3.91 1.666-3.91 4.471 0 2.652 1.666 4.471 3.995 4.471 1.292 0 2.091-.561 2.72-1.462h.034c-.017.289-.034.782-.034 1.309v.255c0 1.547-.901 2.278-2.533 2.278-1.36 0-2.278-.391-2.414-1.343h-1.479c.17 1.615 1.53 2.567 3.927 2.567zm-.068-4.896c-1.649 0-2.533-1.224-2.533-3.162 0-1.921.85-3.179 2.516-3.179 1.819 0 2.686 1.173 2.686 3.094 0 1.853-.68 3.247-2.669 3.247zm5.7584-6.205h1.428v6.12c0 1.343.85 1.836 2.074 1.853.408 0 .85-.051 1.275-.153v-1.326h-.051c-.17.051-.527.119-.799.119-.578 0-.935-.187-.935-.85v-5.763h1.887v-1.224h-1.887v-2.873h-1.564v2.873h-1.428v1.224zM99.7873 56.89c.6117 0 1.1387-.102 1.5467-.408.374-.306.612-.816.612-1.7v-9.911h-1.581v9.826c0 .646-.306.884-.9177.901-.153 0-.323-.017-.493-.051h-.051v1.258c.238.034.544.085.884.085zm.5437-13.702h1.649v-1.836h-1.649v1.836zm7.781 11.067c2.754 0 4.437-2.142 4.437-4.811 0-2.652-1.683-4.794-4.437-4.794-2.754 0-4.471 2.142-4.471 4.794 0 2.669 1.717 4.811 4.471 4.811zm-.017-1.292c-1.87 0-2.839-1.547-2.839-3.519 0-1.972.969-3.536 2.839-3.536s2.839 1.564 2.839 3.536-.969 3.519-2.839 3.519zm10.604 1.309c2.465 0 3.944-1.87 3.944-4.811 0-3.009-1.581-4.811-3.893-4.811-1.326 0-2.346.697-2.941 1.666h-.051c.017-.391.051-1.037.051-1.734v-3.23h-1.581V54h1.564v-1.292h.051c.595 1.02 1.632 1.564 2.856 1.564zm-.17-1.309c-1.87 0-2.805-1.496-2.805-3.485 0-1.938.884-3.502 2.822-3.502 1.666 0 2.482 1.496 2.482 3.502s-.816 3.485-2.499 3.485zm10.263 1.309c2.465 0 3.944-1.87 3.944-4.811 0-3.009-1.581-4.811-3.893-4.811-1.326 0-2.346.697-2.941 1.666h-.051c.017-.391.051-1.037.051-1.734v-3.23h-1.581V54h1.564v-1.292h.051c.595 1.02 1.632 1.564 2.856 1.564zm-.17-1.309c-1.87 0-2.805-1.496-2.805-3.485 0-1.938.884-3.502 2.822-3.502 1.666 0 2.482 1.496 2.482 3.502s-.816 3.485-2.499 3.485zM133.913 54h1.836v-1.87h-1.836V54z" fill="#000"/></svg>