<svg width="123" height="17" viewBox="0 0 123 17" fill="none" xmlns="http://www.w3.org/2000/svg"><path fill-rule="evenodd" clip-rule="evenodd" d="M14.2131 13.5925c0 .3607-.2886.7215-.7214.7215H.721479C.360739 14.314 0 14.0254 0 13.5925V.822079C0 .461332.288592.100586.721479.100586H13.4917c.3607 0 .7214.288597.7214.721493V13.5925z" fill="#007B4B"/><path fill-rule="evenodd" clip-rule="evenodd" d="M5.84398 5.80029c-.1443 0-.21645.07215-.21645.21645v3.31889c0 .1443.07215.2886.1443.4329l3.4631 3.46317c.07214.0722.28859.1443.43288.1443h3.31879c.1443 0 .2165-.0721.2165-.2164V9.84068c0-.1443-.0722-.2886-.1443-.4329L9.59567 5.94459c-.07215-.07215-.28859-.1443-.43289-.1443h-3.3188z" fill="#fff"/><path fill-rule="evenodd" clip-rule="evenodd" d="M1.15437 1.03857c-.1443 0-.216443.07215-.216443.21645V13.1596c0 .1443.072153.1443.144293.0722l3.4631-3.46318c.07215-.07215.1443-.2886.1443-.4329v-4.2568c0-.14429.07214-.21644.21644-.21644h4.25672c.1443 0 .28859-.07215.43289-.1443l3.46313-3.46316c.0721-.07215.0721-.1443-.0722-.1443H1.15437v-.07215z" fill="#fff"/><path d="M20.7786 5.29517h5.9883v1.58728h-4.1125v1.94803h3.5353v1.44302h-3.5353v3.5353h-1.8758V5.29517zM28.6427 10.7786c0-1.01006.3608-1.94801 1.5151-1.94801 1.1544 0 1.5151 1.01009 1.5151 1.94801 0 1.0101-.3607 1.9481-1.5151 1.9481-1.1543 0-1.5151-1.0101-1.5151-1.9481zm1.8759-4.04033h1.5872V5.36743h-1.5872v1.37084zm-2.4531 0h1.5873V5.36743h-1.5873v1.37084zm-1.1543 4.04033c0 1.9481 1.2265 3.2467 3.1745 3.2467 1.948 0 3.1745-1.2986 3.1745-3.2467 0-1.948-1.2265-3.24669-3.1745-3.24669-1.8759 0-3.1745 1.22654-3.1745 3.24669zM33.9817 7.67628h1.5872v1.15439c.2886-.79364 1.1544-1.29869 1.948-1.29869.1443 0 .2886 0 .3607.07215v1.58729c-.1443 0-.4328-.07215-.5771-.07215-1.2266 0-1.6594.86579-1.6594 1.94803v2.8138h-1.6594V7.67628zM39.8256 11.8609c0 .7215.6493 1.0101 1.2987 1.0101.505 0 1.0822-.2164 1.0822-.7936 0-.5051-.7215-.7215-1.948-.938-1.0101-.2164-1.948-.5771-1.948-1.65939 0-1.58728 1.3708-1.94803 2.6695-1.94803 1.3708 0 2.5973.4329 2.7416 1.94803h-1.5873c-.0721-.64934-.5771-.86579-1.1543-.86579-.3608 0-.9379.07215-.9379.57719 0 .5772.9379.7215 1.948.93799 1.01.2164 1.9479.5771 1.9479 1.7315 0 1.5873-1.4429 2.1645-2.8137 2.1645-1.443 0-2.8138-.505-2.8859-2.1645h1.5872zM48.5555 11.428c0 .3607-.0721 1.443-1.3708 1.443-.5772 0-1.0101-.1443-1.0101-.7937 0-.6493.5051-.7936 1.0101-.9379.5051-.0722 1.1544-.1443 1.443-.3608v.6494h-.0722zm-.6493-4.68973h1.5873V5.36743h-1.5873v1.37084zm-2.453 0h1.5872V5.36743h-1.5872v1.37084zm.8657 2.81382c.0722-.64935.5051-.93794 1.1544-.93794.5772 0 1.0822.07215 1.0822.86579 0 .72146-.9379.64936-2.0201.79366-1.0822.1443-2.0923.505-2.0923 1.8759 0 1.2986.9379 1.8758 2.0923 1.8758.7215 0 1.5151-.2164 2.0923-.7936 0 .2164.0721.4329.1443.5772h1.7315c-.1443-.2165-.2164-.7936-.2164-1.3708V9.26349c0-1.51513-1.5151-1.73158-2.7416-1.73158-1.3709 0-2.8138.50504-2.886 2.09233h1.6594v-.07215zM51.225 5.29517h1.6594v4.54541l2.1644-2.23664h2.0202l-2.3088 2.23664 2.5973 3.89602h-2.0201l-1.7315-2.6695-.6494.6494v2.0923h-1.6594V5.29517h-.0721zM57.9348 7.67628h1.5872v1.15439c.2886-.79364 1.1544-1.29869 1.948-1.29869.1443 0 .2886 0 .3607.07215v1.58729c-.1443 0-.4328-.07215-.5771-.07215-1.2266 0-1.6594.86579-1.6594 1.94803v2.8138h-1.6594V7.67628zM62.6244 7.67621h1.7315v6.20489h-1.7315V7.67621zm1.7315-.93794h-1.7315V5.36743h1.7315v1.37084zM65.4381 7.67628h1.5873v.86579c.4329-.72149 1.1543-1.01009 1.8758-1.01009 1.8037 0 2.2366 1.01009 2.2366 2.52522v3.8239h-1.6594v-3.4632c0-1.01004-.2886-1.51509-1.0822-1.51509-.9379 0-1.2987.50505-1.2987 1.80369v3.2468h-1.6594V7.67628zM75.0338 12.3659c-1.0101 0-1.3708-.938-1.3708-1.8759 0-.93796.4329-1.7316 1.3708-1.7316 1.0822 0 1.4429.86579 1.4429 1.8759 0 .9379-.4328 1.7316-1.4429 1.7316zm3.1024-4.68974h-1.5873v.79364c-.4329-.72149-1.0101-1.01008-1.8037-1.01008-1.7316 0-2.6695 1.44298-2.6695 3.03028 0 1.6594.7936 3.1024 2.6695 3.1024.7215 0 1.443-.2886 1.8758-.9379v.7936c0 .8658-.4328 1.5151-1.3708 1.5151-.5772 0-1.0822-.2164-1.2986-.8658h-1.6594c.0721 1.3709 1.5151 1.9481 2.7416 1.9481 2.8138 0 3.1745-1.7316 3.1745-2.7417V7.67616h-.0721zM80.3727 11.8609c0 .7215.6494 1.0101 1.2987 1.0101.505 0 1.0822-.2164 1.0822-.7936 0-.5051-.7215-.7215-1.948-.938-1.01-.2164-1.948-.5771-1.948-1.65939 0-1.58728 1.3708-1.94803 2.6695-1.94803 1.3708 0 2.5973.4329 2.7416 1.94803h-1.5872c-.0722-.64934-.5772-.86579-1.1544-.86579-.3607 0-.9379.07215-.9379.57719 0 .5772.9379.7215 1.948.93799 1.0101.2164 1.948.5771 1.948 1.7315 0 1.5873-1.443 2.1645-2.8138 2.1645-1.443 0-2.8138-.505-2.8859-2.1645h1.5872zM85.1345 5.29517h1.6594v4.5454l2.1644-2.23663h2.0202l-2.3088 2.23663 2.5974 3.89603h-2.0202l-1.6594-2.7416-.6493.6493v2.0923h-1.6594V5.29517h-.1443zM95.4516 11.428c0 .3608-.0721 1.443-1.3708 1.443-.5772 0-1.01-.1443-1.01-.7936 0-.6494.505-.7937 1.01-.938.5051-.0721 1.1544-.1443 1.443-.3607v.6493h-.0722zM93.215 9.55216c.0722-.64934.5051-.93794 1.1544-.93794.5772 0 1.0822.07215 1.0822.86579 0 .72149-.9379.64939-2.0201.79369-1.0822.1443-2.0923.505-2.0923 1.8758 0 1.2987.9379 1.8759 2.0923 1.8759.7215 0 1.5151-.2164 2.0923-.7936 0 .2164.0721.4329.1443.5772h1.7315c-.1443-.2165-.2164-.7937-.2164-1.3709V9.26356c0-1.51513-1.443-1.73158-2.7416-1.73158-1.3708 0-2.8138.50505-2.886 2.09233h1.6594v-.07215zM99.5641 11.8609c0 .7215.6489 1.0101 1.2989 1.0101.505 0 1.082-.2164 1.082-.7936 0-.5051-.722-.7215-1.948-.938-1.0101-.2164-1.948-.5771-1.948-1.65939 0-1.58728 1.3708-1.94803 2.669-1.94803 1.371 0 2.598.4329 2.742 1.94803h-1.587c-.072-.64934-.577-.86579-1.155-.86579-.36 0-.9375.07215-.9375.57719 0 .5772.9375.7215 1.9485.93799 1.01.2164 1.948.5771 1.948 1.7315 0 1.5873-1.371 2.1645-2.814 2.1645-1.4432 0-2.814-.505-2.8862-2.1645h1.5873zM105.769 11.8609c0 .7215.649 1.0101 1.298 1.0101.505 0 1.083-.2164 1.083-.7936 0-.5051-.722-.7215-1.948-.938-1.01-.2164-1.948-.5771-1.948-1.65939 0-1.58728 1.37-1.94803 2.669-1.94803 1.371 0 2.597.4329 2.742 1.94803h-1.587c-.073-.64934-.578-.86579-1.155-.86579-.361 0-.938.07215-.938.57719 0 .5772.938.7215 1.948.93799 1.01.2164 1.948.5771 1.948 1.7315 0 1.5873-1.443 2.1645-2.814 2.1645-1.442 0-2.813-.505-2.885-2.1645h1.587zM114.499 11.428c0 .3608-.072 1.443-1.371 1.443-.577 0-1.01-.1443-1.01-.7936 0-.6494.505-.7937 1.01-.938.505-.0721 1.154-.1443 1.443-.3607v.6493h-.072zm-2.237-1.87584c.072-.64934.505-.93794 1.154-.93794.578 0 1.083.07215 1.083.86579 0 .72149-.938.64939-2.02.79369-1.083.1443-2.093.505-2.093 1.8758 0 1.2987.938 1.8759 2.093 1.8759.721 0 1.515-.2164 2.092-.7936 0 .2164.072.4329.144.5772h1.732c-.145-.2165-.217-.7937-.217-1.3709V9.26356c0-1.51513-1.443-1.73158-2.741-1.73158-1.371 0-2.814.50505-2.886 2.09233h1.659v-.07215zM117.24 7.67628h1.588v.86579c.432-.72149 1.154-1.01009 1.875-1.01009 1.804 0 2.237 1.01009 2.237 2.52522v3.8239h-1.732v-3.4632c0-1.01004-.288-1.51509-1.082-1.51509-.938 0-1.298.50505-1.298 1.80369v3.2468h-1.66V7.67628h.072z" fill="#1A171B"/></svg>