<svg width="117" height="16" viewBox="0 0 117 16" fill="none" xmlns="http://www.w3.org/2000/svg"><path fill-rule="evenodd" clip-rule="evenodd" d="M13.457 12.7769c0 .3416-.2732.6833-.6831.6833H.683099C.341549 13.4602 0 13.1869 0 12.7769V.683257C0 .341628.27324 0 .683099 0H12.7739c.3416 0 .6831.273303.6831.683257V12.7769z" fill="#007B4B"/><path fill-rule="evenodd" clip-rule="evenodd" d="M5.5331 5.39777c-.13662 0-.20493.06832-.20493.20497V8.7457c0 .13665.06831.2733.13662.40995l3.27887 3.27965c.06831.0683.27324.1366.40986.1366h3.14228c.1366 0 .2049-.0683.2049-.205V9.22398c0-.13665-.0683-.27331-.1366-.40996l-3.27889-3.2796c-.06831-.06833-.27324-.13665-.40986-.13665H5.5331z" fill="#fff"/><path fill-rule="evenodd" clip-rule="evenodd" d="M1.09296.888123c-.13662 0-.204929.068325-.204929.204977v11.2737c0 .1367.06831.1367.136619.0684l3.27887-3.27968c.06831-.06832.13662-.2733.13662-.40995V4.71436c0-.13665.06831-.20498.20493-.20498h4.03028c.13662 0 .27324-.06833.40986-.13665L12.3641 1.0931c.0683-.06833.0683-.136653-.0683-.136653H1.09296V.888123z" fill="#fff"/><path d="M19.6732 4.91937h5.6698v1.50316h-3.8937v1.84479h3.3472v1.36651h-3.3472v3.34797h-1.7761V4.91937zM27.119 10.1122c0-.95657.3416-1.8448 1.4345-1.8448 1.093 0 1.4345.95656 1.4345 1.8448 0 .9565-.3415 1.8448-1.4345 1.8448-1.0929 0-1.4345-.9566-1.4345-1.8448zm1.7761-3.82623h1.5028V4.98779h-1.5028v1.29818zm-2.3226 0h1.5029V4.98779h-1.5029v1.29818zm-1.0929 3.82623c0 1.8448 1.1613 3.0746 3.0056 3.0746 1.8444 0 3.0056-1.2298 3.0056-3.0746 0-1.84479-1.1612-3.07465-3.0056-3.07465-1.776 0-3.0056 1.16153-3.0056 3.07465zM32.174 7.17431h1.5028v1.09321c.2732-.75158 1.0929-1.22986 1.8443-1.22986.1366 0 .2733 0 .3416.06832v1.50316c-.1366 0-.4099-.06832-.5465-.06832-1.1613 0-1.5711.8199-1.5711 1.84478v2.6647H32.174V7.17431zM37.707 11.1372c0 .6832.6148.9565 1.2296.9565.4782 0 1.0247-.2049 1.0247-.7515 0-.4783-.6831-.6833-1.8444-.8883-.9563-.2049-1.8444-.54657-1.8444-1.57145 0-1.50316 1.2979-1.84479 2.5275-1.84479 1.2979 0 2.4592.40995 2.5958 1.84479H39.893c-.0683-.61493-.5465-.81991-1.093-.81991-.3415 0-.888.06833-.888.5466 0 .54661.888.68326 1.8443.88823.9564.20498 1.8444.54663 1.8444 1.63983 0 1.5031-1.3662 2.0497-2.6641 2.0497-1.3662 0-2.6641-.4782-2.7324-2.0497h1.5028zM45.9725 10.7271c0 .3416-.0683 1.3665-1.2978 1.3665-.5465 0-.9564-.1366-.9564-.7516 0-.6149.4782-.7515.9564-.8882.4781-.0683 1.0929-.1366 1.3662-.3416v.6149h-.0684zm-.6147-4.44113h1.5028V4.98779h-1.5028v1.29818zm-2.3226 0h1.5028V4.98779h-1.5028v1.29818zm.8197 2.66469c.0684-.61493.4782-.88823 1.093-.88823.5465 0 1.0246.06833 1.0246.8199 0 .68326-.888.61493-1.9126.75158-1.0247.13665-1.981.47829-1.981 1.77649 0 1.2298.888 1.7764 1.981 1.7764.6831 0 1.4345-.205 1.981-.7516 0 .205.0683.41.1366.5466h1.6394c-.1366-.2049-.2049-.7515-.2049-1.2981V8.67735c0-1.43483-1.4345-1.6398-2.5958-1.6398-1.2979 0-2.6641.47828-2.7324 1.98143h1.5711v-.06832zM48.5 4.91937h1.5711v4.30451l2.0493-2.11809h1.9127l-2.1859 2.11809 2.4591 3.68962h-1.9126l-1.6395-2.5281-.6148.6149v1.9815h-1.5711V4.91937H48.5zM54.8528 7.17431h1.5028v1.09321c.2733-.75158 1.093-1.22986 1.8444-1.22986.1366 0 .2732 0 .3415.06832v1.50316c-.1366 0-.4098-.06832-.5464-.06832-1.1613 0-1.5712.8199-1.5712 1.84478v2.6647h-1.5711V7.17431zM59.293 7.17421h1.6394v5.87599H59.293V7.17421zm1.6394-.88823H59.293V4.98779h1.6394v1.29819zM61.957 7.17431h1.5029v.81991c.4098-.68326 1.0929-.95656 1.776-.95656 1.7078 0 2.1176.95656 2.1176 2.3914v3.62124h-1.5711V9.77069c0-.95656-.2732-1.43484-1.0247-1.43484-.888 0-1.2295.47828-1.2295 1.70815v3.0747H61.957V7.17431zM71.0423 11.6153c-.9564 0-1.2979-.8882-1.2979-1.77644 0-.88823.4098-1.63982 1.2979-1.63982 1.0246 0 1.3662.81991 1.3662 1.77647 0 .88819-.4099 1.63979-1.3662 1.63979zm2.9373-4.44115h-1.5028v.75159c-.4099-.68326-.9564-.95656-1.7078-.95656-1.6394 0-2.5275 1.36651-2.5275 2.86968 0 1.57154.7515 2.93804 2.5275 2.93804.6831 0 1.3662-.2733 1.7761-.8883v.7516c0 .8199-.4099 1.4349-1.2979 1.4349-.5465 0-1.0247-.205-1.2296-.8199h-1.5711c.0683 1.2981 1.4345 1.8447 2.5958 1.8447 2.664 0 3.0056-1.6398 3.0056-2.5963V7.17415h-.0683zM76.0972 11.1372c0 .6832.6148.9565 1.2296.9565.4781 0 1.0246-.2049 1.0246-.7515 0-.4783-.6831-.6833-1.8444-.8883-.9563-.2049-1.8443-.54657-1.8443-1.57145 0-1.50316 1.2979-1.84479 2.5274-1.84479 1.2979 0 2.4592.40995 2.5958 1.84479h-1.5028c-.0683-.61493-.5465-.81991-1.093-.81991-.3415 0-.888.06833-.888.5466 0 .54661.8881.68326 1.8444.88823.9563.20498 1.8444.54663 1.8444 1.63983 0 1.5031-1.3662 2.0497-2.6641 2.0497-1.3662 0-2.6641-.4782-2.7324-2.0497h1.5028zM80.6056 4.91937h1.5712V9.2239l2.0493-2.1181h1.9126l-2.1859 2.1181 2.4592 3.6896h-1.9127l-1.5711-2.5964-.6148.6149v1.9815h-1.5711V4.91937h-.1367zM90.3739 10.7272c0 .3417-.0683 1.3665-1.2978 1.3665-.5465 0-.9564-.1366-.9564-.7515 0-.615.4782-.7516.9564-.8883.4781-.0683 1.0929-.1366 1.3662-.3416v.6149h-.0684zm-2.1176-1.77643c.0683-.61493.4782-.88823 1.093-.88823.5465 0 1.0246.06833 1.0246.81991 0 .68325-.888.61492-1.9126.75158-1.0247.13665-1.981.47827-1.981 1.77647 0 1.2298.888 1.7764 1.981 1.7764.6831 0 1.4345-.2049 1.981-.7515 0 .2049.0683.4099.1366.5466h1.6394c-.1366-.205-.2049-.7516-.2049-1.2982V8.67747c0-1.43484-1.3662-1.63981-2.5958-1.63981-1.2979 0-2.6641.47828-2.7324 1.98144h1.5711v-.06833zM94.2676 11.1372c0 .6832.6148.9565 1.2296.9565.4782 0 1.0246-.2049 1.0246-.7515 0-.4783-.6831-.6833-1.8443-.8883-.9564-.2049-1.8444-.54657-1.8444-1.57145 0-1.50316 1.2979-1.84479 2.5275-1.84479 1.2979 0 2.4591.40995 2.5957 1.84479h-1.5028c-.0683-.61493-.5464-.81991-1.0929-.81991-.3416 0-.8881.06833-.8881.5466 0 .54661.8881.68326 1.8444.88823.9563.20498 1.8444.54663 1.8444 1.63983 0 1.5031-1.2979 2.0497-2.6641 2.0497-1.3662 0-2.6641-.4782-2.7324-2.0497h1.5028zM100.142 11.1372c0 .6832.615.9565 1.23.9565.478 0 1.024-.2049 1.024-.7515 0-.4783-.683-.6833-1.844-.8883-.9562-.2049-1.8443-.54657-1.8443-1.57145 0-1.50316 1.2983-1.84479 2.5273-1.84479 1.298 0 2.459.40995 2.596 1.84479h-1.503c-.068-.61493-.546-.81991-1.093-.81991-.341 0-.888.06833-.888.5466 0 .54661.888.68326 1.845.88823.956.20498 1.844.54663 1.844 1.63983 0 1.5031-1.366 2.0497-2.664 2.0497-1.366 0-2.6643-.4782-2.7326-2.0497h1.5026zM108.408 10.7272c0 .3417-.069 1.3665-1.298 1.3665-.547 0-.956-.1366-.956-.7515 0-.615.478-.7516.956-.8883.478-.0683 1.093-.1366 1.366-.3416v.6149h-.068zm-2.118-1.77643c.068-.61493.478-.88823 1.093-.88823.547 0 1.025.06833 1.025.81991 0 .68325-.888.61492-1.913.75158-1.025.13665-1.981.47827-1.981 1.77647 0 1.2298.888 1.7764 1.981 1.7764.683 0 1.435-.2049 1.981-.7515 0 .2049.068.4099.137.5466h1.639c-.136-.205-.205-.7516-.205-1.2982V8.67747c0-1.43484-1.366-1.63981-2.596-1.63981-1.297 0-2.664.47828-2.732 1.98144h1.571v-.06833zM111.004 7.17431h1.502v.81991c.41-.68326 1.093-.95656 1.776-.95656 1.708 0 2.118.95656 2.118 2.3914v3.62124h-1.639V9.77069c0-.95656-.274-1.43484-1.025-1.43484-.888 0-1.23.47828-1.23 1.70815v3.0747h-1.571V7.17431h.069z" fill="#1A171B"/></svg>