<svg width="389" height="58" viewBox="0 0 389 58" fill="none" xmlns="http://www.w3.org/2000/svg"><path d="M.26 24h4.446l1.196-3.692h7.02L14.144 24h4.68L11.83 4.656H7.228L.26 24zm7.878-10.478c.624-1.898 1.3-5.148 1.3-5.148h.052s.416 2.496 1.248 5.148l1.17 3.614H6.942l1.196-3.614zM4.394 3.59h3.978V.105999H4.394V3.59zm6.37 0h3.952V.105999h-3.952V3.59zm13.6585 6.578h-3.926V24h4.082v-6.422c0-2.704 1.456-4.082 3.666-4.056.286 0 .572.026.858.078h.104v-3.562c-.182-.078-.468-.104-.858-.104-1.716 0-2.964.78-3.848 2.704h-.078v-2.47zm18.2876 14.274c1.872 0 3.406-.78 4.212-2.47h.052V24h3.926V4.656h-4.082v4.238c0 1.17.052 2.34.104 3.198h-.052c-.936-1.43-2.21-2.314-4.108-2.314-3.588 0-5.98 3.068-5.98 7.306 0 4.576 2.34 7.358 5.928 7.358zm1.092-3.276c-1.898 0-2.86-1.612-2.86-4.108 0-2.47.962-4.186 2.886-4.186 2.106 0 3.12 1.768 3.12 4.212 0 2.418-1.17 4.082-3.146 4.082zM66.4759 24V10.168h-4.03v7.826c0 1.716-1.014 2.964-2.652 2.964-1.456 0-2.21-.884-2.21-2.418v-8.372h-4.082v9.152c0 3.042 1.716 5.07 4.862 5.07 1.898 0 3.146-.754 4.16-2.366h.078V24h3.874zm17.1559.442c3.588 0 5.928-2.782 5.928-7.358 0-4.238-2.366-7.306-5.954-7.306-1.924 0-3.198.91-4.134 2.314h-.078c.052-.832.13-2.028.13-3.198V4.656h-4.082V24h3.926v-2.028h.052c.806 1.69 2.366 2.47 4.212 2.47zm-1.092-3.276c-1.976 0-3.146-1.664-3.146-4.082 0-2.392.988-4.212 3.12-4.212 1.924 0 2.886 1.716 2.886 4.186 0 2.496-.962 4.108-2.86 4.108zm15.7065 3.25c3.5617 0 5.8237-1.872 6.5257-4.316h-3.952c-.442.858-1.2477 1.352-2.5217 1.352-1.976 0-3.094-1.248-3.354-3.328h10.0877c.026-2.73-.676-5.07-2.236-6.578-1.222-1.118-2.782-1.768-4.7577-1.768-4.212 0-7.098 3.172-7.098 7.332 0 4.134 2.782 7.306 7.306 7.306zm-.208-11.752c1.612 0 2.7037 1.17 2.8337 3.094h-5.9017c.26-1.898 1.196-3.094 3.068-3.094zm12.9667-2.496h-3.926V24h4.082v-6.422c0-2.704 1.456-4.082 3.666-4.056.286 0 .572.026.858.078h.104v-3.562c-.182-.078-.468-.104-.858-.104-1.716 0-2.964.78-3.848 2.704h-.078v-2.47zm13.14 14.248c3.562 0 5.824-1.872 6.526-4.316h-3.952c-.442.858-1.248 1.352-2.522 1.352-1.976 0-3.094-1.248-3.354-3.328h10.088c.026-2.73-.676-5.07-2.236-6.578-1.222-1.118-2.782-1.768-4.758-1.768-4.212 0-7.098 3.172-7.098 7.332 0 4.134 2.782 7.306 7.306 7.306zm-.208-11.752c1.612 0 2.704 1.17 2.834 3.094h-5.902c.26-1.898 1.196-3.094 3.068-3.094zm14.318 11.778c1.872 0 3.406-.78 4.212-2.47h.052V24h3.926V4.656h-4.082v4.238c0 1.17.052 2.34.104 3.198h-.052c-.936-1.43-2.21-2.314-4.108-2.314-3.588 0-5.98 3.068-5.98 7.306 0 4.576 2.34 7.358 5.928 7.358zm1.092-3.276c-1.898 0-2.86-1.612-2.86-4.108 0-2.47.962-4.186 2.886-4.186 2.106 0 3.12 1.768 3.12 4.212 0 2.418-1.17 4.082-3.146 4.082zm15.082 3.276c1.872 0 3.406-.78 4.212-2.47h.052V24h3.926V4.656h-4.082v4.238c0 1.17.052 2.34.104 3.198h-.052c-.936-1.43-2.21-2.314-4.108-2.314-3.588 0-5.98 3.068-5.98 7.306 0 4.576 2.34 7.358 5.928 7.358zm1.092-3.276c-1.898 0-2.86-1.612-2.86-4.108 0-2.47.962-4.186 2.886-4.186 2.106 0 3.12 1.768 3.12 4.212 0 2.418-1.17 4.082-3.146 4.082zM180.462 24h3.978v-.234c-.364-.234-.52-.832-.52-1.924v-7.098c0-1.872-.676-3.302-2.106-4.134-.962-.572-2.21-.832-3.978-.832-4.108 0-6.032 2.21-6.136 4.576h3.77c.104-1.092.858-1.82 2.418-1.82 1.404 0 2.054.676 2.054 1.664 0 1.04-1.014 1.43-3.484 1.768-3.016.364-5.434 1.144-5.434 4.212 0 2.73 2.002 4.186 4.732 4.186 2.132 0 3.276-.78 4.186-2.054h.052c.078.78.26 1.378.468 1.69zm-3.432-2.314c-1.118 0-2.028-.442-2.028-1.638s.858-1.638 2.652-2.028c.91-.208 1.794-.416 2.392-.78v1.794c0 1.508-1.196 2.652-3.016 2.652zm8.715-8.918h2.08v7.748c0 2.808 1.742 3.64 4.316 3.64 1.092 0 1.924-.13 2.366-.208v-3.042h-.208c-.26.026-.676.052-.936.052-.962 0-1.534-.286-1.534-1.326v-6.864h2.704v-2.6h-2.704v-4.42h-4.004v4.42h-2.08v2.6zm9.979 0h2.08v7.748c0 2.808 1.742 3.64 4.316 3.64 1.092 0 1.924-.13 2.366-.208v-3.042h-.208c-.26.026-.676.052-.936.052-.962 0-1.534-.286-1.534-1.326v-6.864h2.704v-2.6h-2.704v-4.42h-4.004v4.42h-2.08v2.6zm16.377 0h2.08v7.748c0 2.808 1.742 3.64 4.316 3.64 1.092 0 1.924-.13 2.366-.208v-3.042h-.208c-.26.026-.676.052-.936.052-.962 0-1.534-.286-1.534-1.326v-6.864h2.704v-2.6h-2.704v-4.42h-4.004v4.42h-2.08v2.6zM232.132 24h3.978v-.234c-.364-.234-.52-.832-.52-1.924v-7.098c0-1.872-.676-3.302-2.106-4.134-.962-.572-2.21-.832-3.978-.832-4.108 0-6.032 2.21-6.136 4.576h3.77c.104-1.092.858-1.82 2.418-1.82 1.404 0 2.054.676 2.054 1.664 0 1.04-1.014 1.43-3.484 1.768-3.016.364-5.434 1.144-5.434 4.212 0 2.73 2.002 4.186 4.732 4.186 2.132 0 3.276-.78 4.186-2.054h.052c.078.78.26 1.378.468 1.69zm-3.432-2.314c-1.118 0-2.028-.442-2.028-1.638s.858-1.638 2.652-2.028c.91-.208 1.794-.416 2.392-.78v1.794c0 1.508-1.196 2.652-3.016 2.652zm23.798 2.782c4.42 0 7.8-2.236 7.8-6.24 0-4.082-3.198-5.226-6.682-6.006-3.042-.676-4.706-1.014-4.706-2.522 0-1.222 1.222-2.002 3.042-2.002 1.924 0 3.12.884 3.354 2.392h4.342c-.286-3.796-3.302-5.772-7.566-5.772-4.264 0-7.54 1.82-7.54 5.824 0 4.03 3.068 4.966 6.838 5.824 2.808.65 4.446 1.014 4.446 2.704 0 1.586-1.612 2.262-3.328 2.262-2.496 0-3.874-.936-4.108-3.042h-4.472c.13 4.186 3.406 6.578 8.58 6.578zM265.625 24h4.394l4.836-13.832h-4.108l-1.742 5.564c-.572 1.846-1.092 4.836-1.092 4.836h-.078s-.52-2.99-1.092-4.836l-1.69-5.564h-4.212L265.625 24zm16.856.416c3.562 0 5.824-1.872 6.526-4.316h-3.952c-.442.858-1.248 1.352-2.522 1.352-1.976 0-3.094-1.248-3.354-3.328h10.088c.026-2.73-.676-5.07-2.236-6.578-1.222-1.118-2.782-1.768-4.758-1.768-4.212 0-7.098 3.172-7.098 7.332 0 4.134 2.782 7.306 7.306 7.306zm-.208-11.752c1.612 0 2.704 1.17 2.834 3.094h-5.902c.26-1.898 1.196-3.094 3.068-3.094zm12.966-2.496h-3.926V24h4.082v-6.422c0-2.704 1.456-4.082 3.666-4.056.286 0 .572.026.858.078h.104v-3.562c-.182-.078-.468-.104-.858-.104-1.716 0-2.964.78-3.848 2.704h-.078v-2.47zm6.712-1.95h4.134V4.656h-4.134v3.562zM301.977 24h4.082V10.168h-4.082V24zm13.201 4.81c2.028 0 3.796-.468 4.992-1.508 1.118-.988 1.794-2.47 1.794-4.524v-12.61h-3.9v1.768h-.052c-.78-1.534-2.106-2.158-3.978-2.158-3.406 0-5.824 2.782-5.824 6.812 0 4.186 2.834 6.552 6.032 6.552 1.716 0 2.938-.676 3.744-2.028h.104c-.052.468-.078 1.118-.078 1.82v.286c0 1.69-.962 2.678-2.886 2.678-1.586 0-2.366-.572-2.626-1.404h-3.978c.416 2.73 2.86 4.316 6.656 4.316zm-.026-8.736c-1.82 0-2.938-1.404-2.938-3.588 0-2.21 1.118-3.614 2.912-3.614 2.002 0 3.016 1.534 3.016 3.588 0 2.054-.91 3.614-2.99 3.614zm16.206 4.342c3.562 0 5.824-1.872 6.526-4.316h-3.952c-.442.858-1.248 1.352-2.522 1.352-1.976 0-3.094-1.248-3.354-3.328h10.088c.026-2.73-.676-5.07-2.236-6.578-1.222-1.118-2.782-1.768-4.758-1.768-4.212 0-7.098 3.172-7.098 7.332 0 4.134 2.782 7.306 7.306 7.306zm-.208-11.752c1.612 0 2.704 1.17 2.834 3.094h-5.902c.26-1.898 1.196-3.094 3.068-3.094zm14.786 11.778c3.588 0 6.24-1.56 6.24-4.55 0-3.484-2.808-4.134-5.278-4.576-1.898-.338-3.406-.494-3.406-1.534 0-.884.806-1.404 2.054-1.404 1.3 0 2.08.494 2.34 1.482h3.796c-.364-2.418-2.288-4.082-6.136-4.082-3.25 0-5.824 1.482-5.824 4.316 0 3.224 2.496 3.848 4.966 4.316 1.924.364 3.562.52 3.562 1.768 0 .988-.832 1.586-2.288 1.586-1.586 0-2.574-.728-2.808-2.028h-3.848c.208 2.782 2.626 4.706 6.63 4.706zM4.914 53h4.394l4.836-13.832h-4.108l-1.742 5.564c-.572 1.846-1.092 4.836-1.092 4.836h-.078s-.52-2.99-1.092-4.836l-1.69-5.564H.13L4.914 53zm10.6815-15.782h4.134v-3.562h-4.134v3.562zM15.6215 53h4.082V39.168h-4.082V53zm15.8013 0h4.732l-5.512-8.71 4.94-5.122h-4.732l-4.55 4.966c.052-.884.13-2.418.13-4.446v-6.032h-4.03V53h4.03v-4.602l1.378-1.43L31.4228 53zm5.2541-11.232h2.08v7.748c0 2.808 1.742 3.64 4.316 3.64 1.092 0 1.924-.13 2.366-.208v-3.042h-.208c-.26.026-.676.052-.936.052-.962 0-1.534-.286-1.534-1.326v-6.864h2.704v-2.6h-2.704v-4.42h-4.004v4.42h-2.08v2.6zm10.8854-4.55h4.134v-3.562h-4.134v3.562zM47.5883 53h4.082V39.168h-4.082V53zm13.2013 4.81c2.028 0 3.796-.468 4.992-1.508 1.118-.988 1.794-2.47 1.794-4.524v-12.61h-3.9v1.768h-.052c-.78-1.534-2.106-2.158-3.978-2.158-3.406 0-5.824 2.782-5.824 6.812 0 4.186 2.834 6.552 6.032 6.552 1.716 0 2.938-.676 3.744-2.028h.104c-.052.468-.078 1.118-.078 1.82v.286c0 1.69-.962 2.678-2.886 2.678-1.586 0-2.366-.572-2.626-1.404h-3.978c.416 2.73 2.86 4.316 6.656 4.316zm-.026-8.736c-1.82 0-2.938-1.404-2.938-3.588 0-2.21 1.118-3.614 2.912-3.614 2.002 0 3.016 1.534 3.016 3.588 0 2.054-.91 3.614-2.99 3.614zM79.1789 53h3.978v-.234c-.364-.234-.52-.832-.52-1.924v-7.098c0-1.872-.676-3.302-2.106-4.134-.962-.572-2.21-.832-3.978-.832-4.108 0-6.032 2.21-6.136 4.576h3.77c.104-1.092.858-1.82 2.418-1.82 1.404 0 2.054.676 2.054 1.664 0 1.04-1.014 1.43-3.484 1.768-3.016.364-5.434 1.144-5.434 4.212 0 2.73 2.002 4.186 4.732 4.186 2.132 0 3.276-.78 4.186-2.054h.052c.078.78.26 1.378.468 1.69zm-3.432-2.314c-1.118 0-2.028-.442-2.028-1.638s.858-1.638 2.652-2.028c.91-.208 1.794-.416 2.392-.78v1.794c0 1.508-1.196 2.652-3.016 2.652zm15.3941 2.756c3.588 0 6.24-1.56 6.24-4.55 0-3.484-2.808-4.134-5.278-4.576-1.898-.338-3.406-.494-3.406-1.534 0-.884.806-1.404 2.054-1.404 1.3 0 2.08.494 2.34 1.482h3.796c-.364-2.418-2.288-4.082-6.136-4.082-3.25 0-5.824 1.482-5.824 4.316 0 3.224 2.496 3.848 4.966 4.316 1.924.364 3.562.52 3.562 1.768 0 .988-.832 1.586-2.288 1.586-1.586 0-2.574-.728-2.808-2.028h-3.848c.208 2.782 2.626 4.706 6.63 4.706zm7.0827-11.674h2.0803v7.748c0 2.808 1.742 3.64 4.316 3.64 1.092 0 1.924-.13 2.366-.208v-3.042h-.208c-.26.026-.676.052-.936.052-.962 0-1.534-.286-1.534-1.326v-6.864h2.704v-2.6h-2.704v-4.42h-4.004v4.42h-2.0803v2.6zm17.5673 11.648c3.562 0 5.824-1.872 6.526-4.316h-3.952c-.442.858-1.248 1.352-2.522 1.352-1.976 0-3.094-1.248-3.354-3.328h10.088c.026-2.73-.676-5.07-2.236-6.578-1.222-1.118-2.782-1.768-4.758-1.768-4.212 0-7.098 3.172-7.098 7.332 0 4.134 2.782 7.306 7.306 7.306zm-.208-11.752c1.612 0 2.704 1.17 2.834 3.094h-5.902c.26-1.898 1.196-3.094 3.068-3.094zM131.181 53h4.446V33.656h-4.446V53zm6.808-15.574h5.746V53h4.446V37.426h5.772v-3.77h-15.964v3.77zm15.623 10.452h7.358v-3.536h-7.358v3.536zm9.758 9.828c1.248 0 2.288-.286 3.042-1.04.65-.624 1.04-1.56 1.04-3.328v-14.17h-4.082v14.014c0 1.014-.39 1.326-1.196 1.404-.286.026-.598.026-.962.026h-.156v2.886c.624.13 1.586.208 2.314.208zm-.026-20.488h4.134v-3.562h-4.134v3.562zm13.487 16.224c4.394 0 7.28-3.198 7.28-7.332 0-4.16-2.886-7.332-7.28-7.332-4.42 0-7.332 3.172-7.332 7.332 0 4.134 2.912 7.332 7.332 7.332zm-.026-2.964c-2.08 0-3.172-1.768-3.172-4.368 0-2.626 1.092-4.42 3.172-4.42 2.028 0 3.172 1.794 3.172 4.42 0 2.6-1.144 4.368-3.172 4.368zm17.555 2.964c3.588 0 5.928-2.782 5.928-7.358 0-4.238-2.366-7.306-5.954-7.306-1.924 0-3.198.91-4.134 2.314h-.078c.052-.832.13-2.028.13-3.198v-4.238h-4.082V53h3.926v-2.028h.052c.806 1.69 2.366 2.47 4.212 2.47zm-1.092-3.276c-1.976 0-3.146-1.664-3.146-4.082 0-2.392.988-4.212 3.12-4.212 1.924 0 2.886 1.716 2.886 4.186 0 2.496-.962 4.108-2.86 4.108zm17.241 3.276c3.588 0 5.928-2.782 5.928-7.358 0-4.238-2.366-7.306-5.954-7.306-1.924 0-3.198.91-4.134 2.314h-.078c.052-.832.13-2.028.13-3.198v-4.238h-4.082V53h3.926v-2.028h.052c.806 1.69 2.366 2.47 4.212 2.47zm-1.092-3.276c-1.976 0-3.146-1.664-3.146-4.082 0-2.392.988-4.212 3.12-4.212 1.924 0 2.886 1.716 2.886 4.186 0 2.496-.962 4.108-2.86 4.108zM221.369 53h4.316v-4.264h-4.316V53zm.39-6.734h3.64c.026-.754.13-1.144.546-1.612.546-.598 1.508-1.066 2.912-2.158 1.014-.806 1.924-2.002 1.924-3.952 0-3.146-2.548-5.226-6.604-5.226-4.498 0-7.072 2.73-7.176 6.214h4.056c.026-1.612 1.196-2.834 2.964-2.834 1.43 0 2.47.754 2.47 1.95 0 1.508-1.586 2.184-2.756 3.198-1.43 1.196-1.976 2.236-1.976 4.42z" fill="#000"/></svg>