<svg width="133" height="18" viewBox="0 0 133 18" fill="none" xmlns="http://www.w3.org/2000/svg"><path fill-rule="evenodd" clip-rule="evenodd" d="M15.362 14.5877c0 .39-.3119.78-.7798.78H.779798c-.389899 0-.779798-.312-.779798-.78V.780089C0 .390044.311919 0 .779798 0H14.5822c.3899 0 .7798.312035.7798.780089V14.5877z" fill="#007B4B"/><path fill-rule="evenodd" clip-rule="evenodd" d="M6.3164 6.16272c-.15596 0-.23394.07801-.23394.23403v3.58841c0 .15604.07798.31204.15596.46804l3.74303 3.7445c.07795.078.31195.156.46785.156h3.5871c.156 0 .2339-.078.2339-.2341v-3.5884c0-.156-.0779-.312-.1559-.468l-3.7431-3.74446c-.0779-.07801-.3119-.15602-.46783-.15602H6.3164z" fill="#fff"/><path fill-rule="evenodd" clip-rule="evenodd" d="M1.24767 1.01392c-.15596 0-.23394.078-.23394.23402V14.1194c0 .156.07798.156.15596.078l3.74304-3.7444c.07798-.078.15596-.312.15596-.46806V5.38241c0-.15601.07798-.23402.23394-.23402h4.60081c.15596 0 .31196-.07801.46786-.15602l3.7431-3.74443c.0779-.07801.0779-.15602-.078-.15602H1.24767v-.078z" fill="#fff"/><path d="M22.4582 5.61682h6.4723v1.7162h-4.4448v2.10624h3.821v1.56014h-3.821v3.8225h-2.0275V5.61682zM30.958 11.5455c0-1.0921.3899-2.10625 1.6375-2.10625 1.2477 0 1.6376 1.09215 1.6376 2.10625 0 1.0921-.3899 2.1062-1.6376 2.1062-1.2476 0-1.6375-1.0921-1.6375-2.1062zm2.0274-4.36851h1.7156V5.69482h-1.7156v1.48217zm-2.6513 0h1.7156V5.69482h-1.7156v1.48217zm-1.2476 4.36851c0 2.1062 1.3256 3.5104 3.4311 3.5104 2.1054 0 3.4311-1.4042 3.4311-3.5104 0-2.10625-1.3257-3.51041-3.4311-3.51041-2.0275 0-3.4311 1.32615-3.4311 3.51041zM36.7285 8.19105h1.7156V9.4392c.3119-.8581 1.2476-1.40417 2.1054-1.40417.156 0 .3119 0 .3899.07801v1.7162c-.1559 0-.4678-.07801-.6238-.07801-1.3257 0-1.7935.93607-1.7935 2.10627v3.0423h-1.7936V8.19105zM43.0448 12.7156c0 .7801.7018 1.0921 1.4037 1.0921.5458 0 1.1697-.234 1.1697-.8581 0-.5461-.7798-.7801-2.1055-1.0141-1.0917-.234-2.1054-.6241-2.1054-1.7942 0-1.71622 1.4816-2.10627 2.8852-2.10627 1.4816 0 2.8073.46806 2.9632 2.10627h-1.7155c-.078-.70211-.6239-.93613-1.2477-.93613-.3899 0-1.0137.07801-1.0137.62407 0 .62406 1.0137.78006 2.1054 1.01416 1.0917.234 2.1055.624 2.1055 1.8722 0 1.7162-1.5596 2.3402-3.0412 2.3402-1.5596 0-3.0412-.546-3.1192-2.3402h1.7155zM52.4804 12.2476c0 .39-.078 1.5601-1.4816 1.5601-.6239 0-1.0917-.156-1.0917-.858 0-.7021.5458-.8581 1.0917-1.0142.5458-.078 1.2477-.156 1.5596-.39v.7021h-.078zm-.7018-5.07061h1.7155V5.69482h-1.7155v1.48217zm-2.6513 0h1.7155V5.69482h-1.7155v1.48217zm.9357 3.04231c.078-.70204.5459-1.01408 1.2477-1.01408.6238 0 1.1697.07801 1.1697.93608 0 .7801-1.0137.7021-2.1834.8581-1.1697.156-2.2614.5461-2.2614 2.0283 0 1.4041 1.0137 2.0282 2.2614 2.0282.7798 0 1.6375-.234 2.2614-.8581 0 .234.078.468.1559.6241h1.8715c-.1559-.2341-.2339-.8581-.2339-1.4822V9.9073c0-1.63818-1.6376-1.87221-2.9632-1.87221-1.4816 0-3.0412.54606-3.1192 2.26221h1.7935v-.078zM55.3657 5.61682h1.7935v4.91458l2.3394-2.41829h2.1834l-2.4953 2.41829 2.8072 4.2125h-2.1834l-1.8715-2.8864-.7018.7021v2.2623h-1.7936V5.61682h-.0779zM62.6177 8.19105h1.7156V9.4392c.3119-.8581 1.2477-1.40417 2.1054-1.40417.156 0 .312 0 .3899.07801v1.7162c-.1559 0-.4678-.07801-.6238-.07801-1.3256 0-1.7935.93607-1.7935 2.10627v3.0423h-1.7936V8.19105zM67.6865 8.1911h1.8715v6.7087h-1.8715V8.1911zm1.8715-1.01411h-1.8715V5.69482h1.8715v1.48217zM70.7277 8.19105h1.7155v.93611c.4679-.78009 1.2477-1.09213 2.0275-1.09213 1.9495 0 2.4174 1.09213 2.4174 2.73037v4.1344h-1.7936v-3.7444c0-1.0921-.3119-1.63819-1.1697-1.63819-1.0137 0-1.4036.54609-1.4036 1.95019v3.5104h-1.7935V8.19105zM81.099 13.2616c-1.0917 0-1.4816-1.0141-1.4816-2.0282s.4678-1.87221 1.4816-1.87221c1.1697 0 1.5596.93611 1.5596 2.02821 0 1.0141-.4679 1.8722-1.5596 1.8722zm3.3531-5.07054h-1.7155v.8581c-.4679-.78009-1.0918-1.09213-1.9495-1.09213-1.8716 0-2.8853 1.56018-2.8853 3.27637 0 1.7942.8578 3.3544 2.8853 3.3544.7798 0 1.5596-.312 2.0275-1.0141v.8581c0 .9361-.4679 1.6382-1.4817 1.6382-.6238 0-1.1697-.2341-1.4036-.9361h-1.7936c.078 1.4821 1.6376 2.1062 2.9633 2.1062 3.0412 0 3.4311-1.8722 3.4311-2.9643V8.19106h-.078zM86.8695 12.7156c0 .7801.7018 1.0921 1.4036 1.0921.5459 0 1.1697-.234 1.1697-.8581 0-.5461-.7798-.7801-2.1054-1.0141-1.0917-.234-2.1055-.6241-2.1055-1.7942 0-1.71622 1.4816-2.10627 2.8853-2.10627 1.4816 0 2.8073.46806 2.9632 2.10627h-1.7155c-.078-.70211-.6239-.93613-1.2477-.93613-.3899 0-1.0138.07801-1.0138.62407 0 .62406 1.0138.78006 2.1055 1.01416 1.0917.234 2.1055.624 2.1055 1.8722 0 1.7162-1.5596 2.3402-3.0413 2.3402-1.5596 0-3.0412-.546-3.1192-2.3402h1.7156zM92.0161 5.61682h1.7935v4.91458l2.3394-2.41831h2.1835l-2.4954 2.41831 2.8073 4.2124H96.461l-1.7936-2.9643-.7018.7021v2.2622H92.172V5.61682h-.1559zM103.167 12.2475c0 .3901-.078 1.5602-1.481 1.5602-.624 0-1.092-.156-1.092-.8581s.546-.8581 1.092-1.0141c.546-.078 1.247-.156 1.559-.3901v.7021h-.078zm-2.417-2.0282c.078-.7021.546-1.01413 1.248-1.01413.623 0 1.169.07801 1.169.93613 0 .7801-1.013.7021-2.183.8581-1.1698.156-2.2616.546-2.2616 2.0282 0 1.4042 1.0138 2.0282 2.2616 2.0282.78 0 1.637-.234 2.261-.8581 0 .2341.078.4681.156.6241h1.872c-.156-.234-.234-.8581-.234-1.4822V9.90724c0-1.63818-1.56-1.87221-2.963-1.87221-1.482 0-3.0416.54606-3.1196 2.26227h1.7936v-.078zM107.612 12.7156c0 .7801.702 1.0921 1.404 1.0921.546 0 1.169-.234 1.169-.8581 0-.5461-.779-.7801-2.105-1.0141-1.092-.234-2.105-.6241-2.105-1.7942 0-1.71622 1.481-2.10627 2.885-2.10627 1.481 0 2.807.46806 2.963 2.10627h-1.716c-.078-.70211-.623-.93613-1.247-.93613-.39 0-1.014.07801-1.014.62407 0 .62406 1.014.78006 2.105 1.01416 1.092.234 2.106.624 2.106 1.8722 0 1.7162-1.482 2.3402-3.041 2.3402-1.56 0-3.041-.546-3.119-2.3402h1.715zM114.318 12.7156c0 .7801.702 1.0921 1.404 1.0921.546 0 1.17-.234 1.17-.8581 0-.5461-.78-.7801-2.106-1.0141-1.091-.234-2.105-.6241-2.105-1.7942 0-1.71622 1.481-2.10627 2.885-2.10627 1.482 0 2.807.46806 2.963 2.10627h-1.715c-.078-.70211-.624-.93613-1.248-.93613-.39 0-1.014.07801-1.014.62407 0 .62406 1.014.78006 2.106 1.01416 1.091.234 2.105.624 2.105 1.8722 0 1.7162-1.559 2.3402-3.041 2.3402-1.56 0-3.041-.546-3.119-2.3402h1.715zM123.754 12.2475c0 .3901-.078 1.5602-1.482 1.5602-.624 0-1.091-.156-1.091-.8581s.545-.8581 1.091-1.0141c.546-.078 1.248-.156 1.56-.3901v.7021h-.078zm-2.417-2.0282c.078-.7021.545-1.01413 1.247-1.01413.624 0 1.17.07801 1.17.93613 0 .7801-1.014.7021-2.184.8581-1.169.156-2.261.546-2.261 2.0282 0 1.4042 1.014 2.0282 2.261 2.0282.78 0 1.638-.234 2.262-.8581 0 .2341.078.4681.156.6241h1.871c-.156-.234-.234-.8581-.234-1.4822V9.90724c0-1.63818-1.559-1.87221-2.963-1.87221-1.481 0-3.041.54606-3.119 2.26227h1.794v-.078zM126.717 8.19105h1.716v.93611c.468-.78009 1.247-1.09213 2.027-1.09213 1.95 0 2.418 1.09213 2.418 2.73037v4.1344h-1.872v-3.7444c0-1.0921-.312-1.63819-1.17-1.63819-1.013 0-1.403.54609-1.403 1.95019v3.5104h-1.794V8.19105h.078z" fill="#1A171B"/></svg>