<svg width="239" height="39" viewBox="0 0 239 39" fill="none" xmlns="http://www.w3.org/2000/svg"><path d="M.17 16h2.907l.782-2.414h4.59L9.248 16h3.06L7.735 3.352H4.726L.17 16zm5.151-6.851c.408-1.241.85-3.366.85-3.366h.034s.272 1.632.816 3.366l.765 2.363H4.539l.782-2.363zM2.873 2.655h2.601V.376999H2.873V2.655zm4.165 0h2.584V.376999H7.038V2.655zm8.9306 4.301h-2.567V16h2.669v-4.199c0-1.768.952-2.669 2.397-2.652.187 0 .374.017.561.051h.068V6.871c-.119-.051-.306-.068-.561-.068-1.122 0-1.938.51-2.516 1.768h-.051V6.956zm11.9572 9.333c1.224 0 2.227-.51 2.754-1.615h.034V16h2.567V3.352h-2.669v2.771c0 .765.034 1.53.068 2.091h-.034c-.612-.935-1.445-1.513-2.686-1.513-2.346 0-3.91 2.006-3.91 4.777 0 2.992 1.53 4.811 3.876 4.811zm.714-2.142c-1.241 0-1.87-1.054-1.87-2.686 0-1.615.629-2.737 1.887-2.737 1.377 0 2.04 1.156 2.04 2.754 0 1.581-.765 2.669-2.057 2.669zM43.465 16V6.956H40.83v5.117c0 1.122-.663 1.938-1.734 1.938-.952 0-1.445-.578-1.445-1.581V6.956h-2.669v5.984c0 1.989 1.122 3.315 3.179 3.315 1.241 0 2.057-.493 2.72-1.547h.051V16h2.533zm11.2174.289c2.346 0 3.876-1.819 3.876-4.811 0-2.771-1.547-4.777-3.893-4.777-1.258 0-2.091.595-2.703 1.513h-.051c.034-.544.085-1.326.085-2.091V3.352h-2.669V16h2.567v-1.326h.034c.527 1.105 1.547 1.615 2.754 1.615zm-.714-2.142c-1.292 0-2.057-1.088-2.057-2.669 0-1.564.646-2.754 2.04-2.754 1.258 0 1.887 1.122 1.887 2.737 0 1.632-.629 2.686-1.87 2.686zm10.2696 2.125c2.329 0 3.808-1.224 4.267-2.822h-2.584c-.289.561-.816.884-1.649.884-1.292 0-2.023-.816-2.193-2.176h6.596c.017-1.785-.442-3.315-1.462-4.301-.799-.731-1.819-1.156-3.111-1.156-2.754 0-4.641 2.074-4.641 4.794 0 2.703 1.819 4.777 4.777 4.777zm-.136-7.684c1.054 0 1.768.765 1.853 2.023h-3.859c.17-1.241.782-2.023 2.006-2.023zm8.4779-1.632h-2.567V16h2.669v-4.199c0-1.768.952-2.669 2.397-2.652.187 0 .374.017.561.051h.068V6.871c-.119-.051-.306-.068-.561-.068-1.122 0-1.938.51-2.516 1.768h-.051V6.956zm8.5916 9.316c2.329 0 3.808-1.224 4.267-2.822h-2.584c-.289.561-.816.884-1.649.884-1.292 0-2.023-.816-2.193-2.176h6.596c.017-1.785-.442-3.315-1.462-4.301-.799-.731-1.819-1.156-3.111-1.156-2.754 0-4.641 2.074-4.641 4.794 0 2.703 1.819 4.777 4.777 4.777zm-.136-7.684c1.054 0 1.768.765 1.853 2.023h-3.859c.17-1.241.782-2.023 2.006-2.023zm9.362 7.701c1.224 0 2.227-.51 2.754-1.615h.034V16h2.567V3.352h-2.669v2.771c0 .765.034 1.53.068 2.091h-.034c-.612-.935-1.445-1.513-2.686-1.513-2.346 0-3.91 2.006-3.91 4.777 0 2.992 1.53 4.811 3.876 4.811zm.714-2.142c-1.241 0-1.87-1.054-1.87-2.686 0-1.615.629-2.737 1.887-2.737 1.377 0 2.04 1.156 2.04 2.754 0 1.581-.765 2.669-2.057 2.669zm9.8615 2.142c1.224 0 2.227-.51 2.754-1.615h.034V16h2.567V3.352h-2.669v2.771c0 .765.034 1.53.068 2.091h-.034c-.612-.935-1.445-1.513-2.686-1.513-2.3463 0-3.9103 2.006-3.9103 4.777 0 2.992 1.53 4.811 3.8763 4.811zm.714-2.142c-1.241 0-1.8703-1.054-1.8703-2.686 0-1.615.6293-2.737 1.8873-2.737 1.377 0 2.04 1.156 2.04 2.754 0 1.581-.765 2.669-2.057 2.669zM117.994 16h2.601v-.153c-.238-.153-.34-.544-.34-1.258V9.948c0-1.224-.442-2.159-1.377-2.703-.629-.374-1.445-.544-2.601-.544-2.686 0-3.944 1.445-4.012 2.992h2.465c.068-.714.561-1.19 1.581-1.19.918 0 1.343.442 1.343 1.088 0 .68-.663.935-2.278 1.156-1.972.238-3.553.748-3.553 2.754 0 1.785 1.309 2.737 3.094 2.737 1.394 0 2.142-.51 2.737-1.343h.034c.051.51.17.901.306 1.105zm-2.244-1.513c-.731 0-1.326-.289-1.326-1.071s.561-1.071 1.734-1.326c.595-.136 1.173-.272 1.564-.51v1.173c0 .986-.782 1.734-1.972 1.734zm5.699-5.831h1.36v5.066c0 1.836 1.139 2.38 2.822 2.38.714 0 1.258-.085 1.547-.136v-1.989h-.136c-.17.017-.442.034-.612.034-.629 0-1.003-.187-1.003-.867V8.656h1.768v-1.7h-1.768v-2.89h-2.618v2.89h-1.36v1.7zm6.524 0h1.36v5.066c0 1.836 1.139 2.38 2.822 2.38.714 0 1.258-.085 1.547-.136v-1.989h-.136c-.17.017-.442.034-.612.034-.629 0-1.003-.187-1.003-.867V8.656h1.768v-1.7h-1.768v-2.89h-2.618v2.89h-1.36v1.7zm10.708 0h1.36v5.066c0 1.836 1.139 2.38 2.822 2.38.714 0 1.258-.085 1.547-.136v-1.989h-.136c-.17.017-.442.034-.612.034-.629 0-1.003-.187-1.003-.867V8.656h1.768v-1.7h-1.768v-2.89h-2.618v2.89h-1.36v1.7zM151.779 16h2.601v-.153c-.238-.153-.34-.544-.34-1.258V9.948c0-1.224-.442-2.159-1.377-2.703-.629-.374-1.445-.544-2.601-.544-2.686 0-3.944 1.445-4.012 2.992h2.465c.068-.714.561-1.19 1.581-1.19.918 0 1.343.442 1.343 1.088 0 .68-.663.935-2.278 1.156-1.972.238-3.553.748-3.553 2.754 0 1.785 1.309 2.737 3.094 2.737 1.394 0 2.142-.51 2.737-1.343h.034c.051.51.17.901.306 1.105zm-2.244-1.513c-.731 0-1.326-.289-1.326-1.071s.561-1.071 1.734-1.326c.595-.136 1.173-.272 1.564-.51v1.173c0 .986-.782 1.734-1.972 1.734zm15.56 1.819c2.89 0 5.1-1.462 5.1-4.08 0-2.669-2.091-3.417-4.369-3.927-1.989-.442-3.077-.663-3.077-1.649 0-.799.799-1.309 1.989-1.309 1.258 0 2.04.578 2.193 1.564h2.839c-.187-2.482-2.159-3.774-4.947-3.774-2.788 0-4.93 1.19-4.93 3.808 0 2.635 2.006 3.247 4.471 3.808 1.836.425 2.907.663 2.907 1.768 0 1.037-1.054 1.479-2.176 1.479-1.632 0-2.533-.612-2.686-1.989h-2.924c.085 2.737 2.227 4.301 5.61 4.301zm8.583-.306h2.873l3.162-9.044h-2.686l-1.139 3.638c-.374 1.207-.714 3.162-.714 3.162h-.051s-.34-1.955-.714-3.162l-1.105-3.638h-2.754L173.678 16zm11.021.272c2.329 0 3.808-1.224 4.267-2.822h-2.584c-.289.561-.816.884-1.649.884-1.292 0-2.023-.816-2.193-2.176h6.596c.017-1.785-.442-3.315-1.462-4.301-.799-.731-1.819-1.156-3.111-1.156-2.754 0-4.641 2.074-4.641 4.794 0 2.703 1.819 4.777 4.777 4.777zm-.136-7.684c1.054 0 1.768.765 1.853 2.023h-3.859c.17-1.241.782-2.023 2.006-2.023zm8.478-1.632h-2.567V16h2.669v-4.199c0-1.768.952-2.669 2.397-2.652.187 0 .374.017.561.051h.068V6.871c-.119-.051-.306-.068-.561-.068-1.122 0-1.938.51-2.516 1.768h-.051V6.956zm4.389-1.275h2.703V3.352h-2.703v2.329zM197.447 16h2.669V6.956h-2.669V16zm8.631 3.145c1.326 0 2.482-.306 3.264-.986.731-.646 1.173-1.615 1.173-2.958V6.956h-2.55v1.156h-.034c-.51-1.003-1.377-1.411-2.601-1.411-2.227 0-3.808 1.819-3.808 4.454 0 2.737 1.853 4.284 3.944 4.284 1.122 0 1.921-.442 2.448-1.326h.068c-.034.306-.051.731-.051 1.19v.187c0 1.105-.629 1.751-1.887 1.751-1.037 0-1.547-.374-1.717-.918h-2.601c.272 1.785 1.87 2.822 4.352 2.822zm-.017-5.712c-1.19 0-1.921-.918-1.921-2.346 0-1.445.731-2.363 1.904-2.363 1.309 0 1.972 1.003 1.972 2.346 0 1.343-.595 2.363-1.955 2.363zm10.596 2.839c2.329 0 3.808-1.224 4.267-2.822h-2.584c-.289.561-.816.884-1.649.884-1.292 0-2.023-.816-2.193-2.176h6.596c.017-1.785-.442-3.315-1.462-4.301-.799-.731-1.819-1.156-3.111-1.156-2.754 0-4.641 2.074-4.641 4.794 0 2.703 1.819 4.777 4.777 4.777zm-.136-7.684c1.054 0 1.768.765 1.853 2.023h-3.859c.17-1.241.782-2.023 2.006-2.023zm9.668 7.701c2.346 0 4.08-1.02 4.08-2.975 0-2.278-1.836-2.703-3.451-2.992-1.241-.221-2.227-.323-2.227-1.003 0-.578.527-.918 1.343-.918.85 0 1.36.323 1.53.969h2.482c-.238-1.581-1.496-2.669-4.012-2.669-2.125 0-3.808.969-3.808 2.822 0 2.108 1.632 2.516 3.247 2.822 1.258.238 2.329.34 2.329 1.156 0 .646-.544 1.037-1.496 1.037-1.037 0-1.683-.476-1.836-1.326h-2.516c.136 1.819 1.717 3.077 4.335 3.077zM3.213 35h2.873l3.162-9.044H6.562l-1.139 3.638c-.374 1.207-.714 3.162-.714 3.162h-.051s-.34-1.955-.714-3.162l-1.105-3.638H.085L3.213 35zm6.9841-10.319h2.703v-2.329h-2.703v2.329zM10.2141 35h2.669v-9.044h-2.669V35zm10.3316 0h3.094l-3.604-5.695 3.23-3.349h-3.094l-2.975 3.247c.034-.578.085-1.581.085-2.907v-3.944h-2.635V35h2.635v-3.009l.901-.935L20.5457 35zm3.4353-7.344h1.36v5.066c0 1.836 1.139 2.38 2.822 2.38.714 0 1.258-.085 1.547-.136v-1.989h-.136c-.17.017-.442.034-.612.034-.629 0-1.003-.187-1.003-.867v-4.488h1.768v-1.7h-1.768v-2.89h-2.618v2.89h-1.36v1.7zm7.1174-2.975h2.703v-2.329h-2.703v2.329zM31.1154 35h2.669v-9.044h-2.669V35zm8.6317 3.145c1.326 0 2.482-.306 3.264-.986.731-.646 1.173-1.615 1.173-2.958v-8.245h-2.55v1.156h-.034c-.51-1.003-1.377-1.411-2.601-1.411-2.227 0-3.808 1.819-3.808 4.454 0 2.737 1.853 4.284 3.944 4.284 1.122 0 1.921-.442 2.448-1.326h.068c-.034.306-.051.731-.051 1.19v.187c0 1.105-.629 1.751-1.887 1.751-1.037 0-1.547-.374-1.717-.918h-2.601c.272 1.785 1.87 2.822 4.352 2.822zm-.017-5.712c-1.19 0-1.921-.918-1.921-2.346 0-1.445.731-2.363 1.904-2.363 1.309 0 1.972 1.003 1.972 2.346 0 1.343-.595 2.363-1.955 2.363zM51.7708 35h2.601v-.153c-.238-.153-.34-.544-.34-1.258v-4.641c0-1.224-.442-2.159-1.377-2.703-.629-.374-1.445-.544-2.601-.544-2.686 0-3.944 1.445-4.012 2.992h2.465c.068-.714.561-1.19 1.581-1.19.918 0 1.343.442 1.343 1.088 0 .68-.663.935-2.278 1.156-1.972.238-3.553.748-3.553 2.754 0 1.785 1.309 2.737 3.094 2.737 1.394 0 2.142-.51 2.737-1.343h.034c.051.51.17.901.306 1.105zm-2.244-1.513c-.731 0-1.326-.289-1.326-1.071s.561-1.071 1.734-1.326c.595-.136 1.173-.272 1.564-.51v1.173c0 .986-.782 1.734-1.972 1.734zm10.0654 1.802c2.346 0 4.08-1.02 4.08-2.975 0-2.278-1.836-2.703-3.451-2.992-1.241-.221-2.227-.323-2.227-1.003 0-.578.527-.918 1.343-.918.85 0 1.36.323 1.53.969h2.482c-.238-1.581-1.496-2.669-4.012-2.669-2.125 0-3.808.969-3.808 2.822 0 2.108 1.632 2.516 3.247 2.822 1.258.238 2.329.34 2.329 1.156 0 .646-.544 1.037-1.496 1.037-1.037 0-1.683-.476-1.836-1.326h-2.516c.136 1.819 1.717 3.077 4.335 3.077zm4.631-7.633h1.36v5.066c0 1.836 1.139 2.38 2.822 2.38.714 0 1.258-.085 1.547-.136v-1.989h-.136c-.17.017-.442.034-.612.034-.629 0-1.003-.187-1.003-.867v-4.488h1.768v-1.7h-1.768v-2.89h-2.618v2.89h-1.36v1.7zm11.4864 7.616c2.329 0 3.808-1.224 4.267-2.822h-2.584c-.289.561-.816.884-1.649.884-1.292 0-2.023-.816-2.193-2.176h6.596c.017-1.785-.442-3.315-1.462-4.301-.799-.731-1.819-1.156-3.111-1.156-2.754 0-4.641 2.074-4.641 4.794 0 2.703 1.819 4.777 4.777 4.777zm-.136-7.684c1.054 0 1.768.765 1.853 2.023h-3.859c.17-1.241.782-2.023 2.006-2.023zM85.7722 35h2.907V22.352h-2.907V35zm4.4514-10.183h3.757V35h2.907V24.817h3.7744v-2.465H90.2236v2.465zm10.2154 6.834h4.811v-2.312h-4.811v2.312zm6.38 6.426c.816 0 1.496-.187 1.989-.68.425-.408.68-1.02.68-2.176v-9.265h-2.669v9.163c0 .663-.255.867-.782.918-.187.017-.391.017-.629.017h-.102v1.887c.408.085 1.037.136 1.513.136zm-.017-13.396h2.703v-2.329h-2.703v2.329zm8.818 10.608c2.873 0 4.76-2.091 4.76-4.794 0-2.72-1.887-4.794-4.76-4.794-2.89 0-4.794 2.074-4.794 4.794 0 2.703 1.904 4.794 4.794 4.794zm-.017-1.938c-1.36 0-2.074-1.156-2.074-2.856 0-1.717.714-2.89 2.074-2.89 1.326 0 2.074 1.173 2.074 2.89 0 1.7-.748 2.856-2.074 2.856zm11.479 1.938c2.346 0 3.876-1.819 3.876-4.811 0-2.771-1.547-4.777-3.893-4.777-1.258 0-2.091.595-2.703 1.513h-.051c.034-.544.085-1.326.085-2.091v-2.771h-2.669V35h2.567v-1.326h.034c.527 1.105 1.547 1.615 2.754 1.615zm-.714-2.142c-1.292 0-2.057-1.088-2.057-2.669 0-1.564.646-2.754 2.04-2.754 1.258 0 1.887 1.122 1.887 2.737 0 1.632-.629 2.686-1.87 2.686zm11.272 2.142c2.346 0 3.876-1.819 3.876-4.811 0-2.771-1.547-4.777-3.893-4.777-1.258 0-2.091.595-2.703 1.513h-.051c.034-.544.085-1.326.085-2.091v-2.771h-2.669V35h2.567v-1.326h.034c.527 1.105 1.547 1.615 2.754 1.615zm-.714-2.142c-1.292 0-2.057-1.088-2.057-2.669 0-1.564.646-2.754 2.04-2.754 1.258 0 1.887 1.122 1.887 2.737 0 1.632-.629 2.686-1.87 2.686zM144.741 35h2.822v-2.788h-2.822V35zm.255-4.403h2.38c.017-.493.085-.748.357-1.054.357-.391.986-.697 1.904-1.411.663-.527 1.258-1.309 1.258-2.584 0-2.057-1.666-3.417-4.318-3.417-2.941 0-4.624 1.785-4.692 4.063h2.652c.017-1.054.782-1.853 1.938-1.853.935 0 1.615.493 1.615 1.275 0 .986-1.037 1.428-1.802 2.091-.935.782-1.292 1.462-1.292 2.89z" fill="#000"/></svg>