<svg width="106" height="15" viewBox="0 0 106 15" fill="none" xmlns="http://www.w3.org/2000/svg"><path fill-rule="evenodd" clip-rule="evenodd" d="M12.2478 11.9222c0 .3109-.2487.6219-.6218.6219H.621714C.310857 12.5441 0 12.2953 0 11.9222V.913927C0 .602959.248685.291992.621714.291992H11.626c.3109 0 .6218.248774.6218.621935V11.9222z" fill="#007B4B"/><path fill-rule="evenodd" clip-rule="evenodd" d="M5.0359 5.20532c-.12434 0-.18651.0622-.18651.18658v2.86088c0 .12439.06217.24878.12434.37316l2.98421 2.98526c.06217.0622.24869.1244.37303.1244h2.85983c.1244 0 .1866-.0622.1866-.1866V8.68814c0-.12439-.0622-.24878-.1244-.37316L8.2688 5.32971c-.06217-.06219-.24869-.12439-.37303-.12439H5.0359z" fill="#fff"/><path fill-rule="evenodd" clip-rule="evenodd" d="M.994726 1.10034c-.124343 0-.186514.06219-.186514.18658V11.5488c0 .1244.062172.1244.124343.0622L3.91678 8.62575c.06217-.06219.12434-.24877.12434-.37316V4.58318c0-.12439.06217-.18658.18651-.18658h3.66811c.12435 0 .24869-.0622.37303-.12439L11.253 1.28692c.0622-.06219.0622-.12439-.0622-.12439H.994726v-.06219z" fill="#fff"/><path d="M17.9054 4.76978h5.1602v1.36825h-3.5438v1.67922h3.0464v1.24386h-3.0464v3.04749h-1.6164V4.76978zM24.682 9.4965c0-.8707.3109-1.67921 1.3056-1.67921.9948 0 1.3056.8707 1.3056 1.67921 0 .8707-.3108 1.6792-1.3056 1.6792-.9947 0-1.3056-.8707-1.3056-1.6792zm1.6165-3.4828h1.3678V4.83203h-1.3678V6.0137zm-2.1138 0h1.3677V4.83203h-1.3677V6.0137zm-.9948 3.4828c0 1.6792 1.0569 2.7987 2.7356 2.7987 1.6786 0 2.7355-1.1195 2.7355-2.7987 0-1.67921-1.0569-2.79868-2.7355-2.79868-1.6165 0-2.7356 1.05728-2.7356 2.79868zM29.2827 6.82238h1.3678v.9951c.2487-.68413.9947-1.11948 1.6786-1.11948.1243 0 .2487 0 .3109.06219v1.36825c-.1244 0-.3731-.06219-.4974-.06219-1.0569 0-1.4299.74632-1.4299 1.67922V12.171h-1.43V6.82238zM34.3186 10.4296c0 .6219.5595.8707 1.1191.8707.4352 0 .9325-.1866.9325-.6841 0-.4354-.6217-.62196-1.6786-.80854-.8704-.18658-1.6786-.49755-1.6786-1.43044 0-1.36826 1.1812-1.67922 2.3003-1.67922 1.1813 0 2.2382.37316 2.3625 1.67922h-1.3677c-.0622-.55974-.4974-.74632-.9948-.74632-.3108 0-.8082.06219-.8082.49754 0 .49755.8082.62193 1.6786.80851.8704.18658 1.6787.49755 1.6787 1.49265 0 1.3682-1.2435 1.8658-2.4247 1.8658-1.2435 0-2.4247-.4354-2.4869-1.8658h1.3678zM41.8413 10.0562c0 .311-.0622 1.2439-1.1812 1.2439-.4974 0-.8704-.1244-.8704-.6841 0-.5598.4352-.68415.8704-.80853.4352-.0622.9947-.12439 1.2434-.31097v.5597h-.0622zm-.5595-4.0425h1.3677V4.83203h-1.3677V6.0137zm-2.1138 0h1.3677V4.83203H39.168V6.0137zm.746 2.42552c.0622-.55973.4352-.80851.9948-.80851.4973 0 .9325.0622.9325.74632 0 .62193-.8082.55974-1.7408.68412-.9325.12439-1.8029.43535-1.8029 1.61705 0 1.1194.8082 1.617 1.8029 1.617.6217 0 1.3056-.1866 1.803-.6841 0 .1865.0622.3731.1243.4975h1.4921c-.1243-.1866-.1865-.6841-.1865-1.1817V8.19045c0-1.30605-1.3056-1.49263-2.3625-1.49263-1.1812 0-2.4246.43535-2.4868 1.80359h1.4299v-.06219zM44.1417 4.76978h1.4299v3.91817l1.8651-1.92799h1.7408l-1.9894 1.92799 2.2381 3.35845h-1.7408l-1.4921-2.30116-.5595.55976v1.8036h-1.43V4.76978h-.0621zM49.9236 6.82238h1.3678v.9951c.2487-.68413.9947-1.11948 1.6786-1.11948.1243 0 .2487 0 .3109.06219v1.36825c-.1244 0-.3731-.06219-.4974-.06219-1.0569 0-1.43.74632-1.43 1.67922V12.171h-1.4299V6.82238zM53.9648 6.82222h1.4921v5.34858h-1.4921V6.82222zm1.4921-.80852h-1.4921V4.83203h1.4921V6.0137zM56.3894 6.82238h1.3678v.74633c.373-.62194.9947-.87071 1.6165-.87071 1.5542 0 1.9273.87071 1.9273 2.17677V12.171h-1.43V9.18574c0-.87071-.2487-1.30607-.9325-1.30607-.8083 0-1.1191.43536-1.1191 1.55484v2.79869h-1.43V6.82238zM64.6582 10.8649c-.8704 0-1.1812-.8085-1.1812-1.61703 0-.80852.373-1.49264 1.1812-1.49264.9326 0 1.2434.74632 1.2434 1.61703 0 .80854-.373 1.49264-1.2434 1.49264zm2.6734-4.04258h-1.3678v.68413c-.373-.62193-.8704-.87071-1.5543-.87071-1.4921 0-2.3003 1.24387-2.3003 2.61213 0 1.43043.6839 2.67433 2.3003 2.67433.6217 0 1.2435-.2488 1.6165-.8085v.6841c0 .7463-.373 1.3061-1.1813 1.3061-.4973 0-.9326-.1866-1.1191-.7464h-1.4299c.0622 1.1817 1.3056 1.6793 2.3625 1.6793 2.4247 0 2.7356-1.4927 2.7356-2.3634V6.82232h-.0622zM69.2589 10.4296c0 .6219.5595.8707 1.1191.8707.4352 0 .9325-.1866.9325-.6841 0-.4354-.6217-.62196-1.6786-.80854-.8704-.18658-1.6786-.49755-1.6786-1.43044 0-1.36826 1.1812-1.67922 2.3003-1.67922 1.1813 0 2.2382.37316 2.3626 1.67922h-1.3678c-.0622-.55974-.4974-.74632-.9948-.74632-.3108 0-.8082.06219-.8082.49754 0 .49755.8082.62193 1.6786.80851.8704.18658 1.6787.49755 1.6787 1.49265 0 1.3682-1.2435 1.8658-2.4247 1.8658-1.2435 0-2.4247-.4354-2.4869-1.8658h1.3678zM73.3622 4.76978h1.4299v3.9182l1.8652-1.92801h1.7408l-1.9895 1.92801 2.2382 3.35842H76.906l-1.43-2.36333-.5595.55973v1.8036h-1.43V4.76978h-.1243zM82.2527 10.0564c0 .311-.0622 1.2439-1.1813 1.2439-.4973 0-.8704-.1244-.8704-.6841 0-.5598.4352-.68415.8704-.80854.4352-.06219.9948-.12439 1.2435-.31097v.55971h-.0622zm-1.9273-1.61699c.0621-.55974.4352-.80851.9947-.80851.4974 0 .9326.06219.9326.74632 0 .62193-.8082.55973-1.7408.68412-.9326.12439-1.803.43535-1.803 1.61706 0 1.1194.8082 1.617 1.803 1.617.6217 0 1.3056-.1866 1.803-.6841 0 .1865.0621.3731.1243.4975h1.4921c-.1243-.1866-.1865-.6841-.1865-1.1817V8.19063c0-1.30605-1.2434-1.49263-2.3625-1.49263-1.1813 0-2.4247.43535-2.4869 1.8036h1.43v-.06219zM85.7965 10.4296c0 .6219.5595.8707 1.119.8707.4352 0 .9326-.1866.9326-.6841 0-.4354-.6217-.62196-1.6786-.80854-.8704-.18658-1.6786-.49755-1.6786-1.43044 0-1.36826 1.1812-1.67922 2.3003-1.67922 1.1812 0 2.2382.37316 2.3625 1.67922h-1.3678c-.0621-.55974-.4973-.74632-.9947-.74632-.3109 0-.8082.06219-.8082.49754 0 .49755.8082.62193 1.6786.80851.8704.18658 1.6786.49755 1.6786 1.49265 0 1.3682-1.1812 1.8658-2.4247 1.8658-1.2434 0-2.4246-.4354-2.4868-1.8658h1.3678zM91.1432 10.4296c0 .6219.5595.8707 1.1191.8707.4352 0 .9325-.1866.9325-.6841 0-.4354-.6217-.62196-1.6786-.80854-.8704-.18658-1.6786-.49755-1.6786-1.43044 0-1.36826 1.1812-1.67922 2.3003-1.67922 1.1813 0 2.2382.37316 2.3625 1.67922h-1.3677c-.0622-.55974-.4974-.74632-.9948-.74632-.3108 0-.8082.06219-.8082.49754 0 .49755.8082.62193 1.6786.80851.8704.18658 1.6787.49755 1.6787 1.49265 0 1.3682-1.2435 1.8658-2.4247 1.8658-1.2434 0-2.4247-.4354-2.4869-1.8658h1.3678zM98.6659 10.0564c0 .311-.0621 1.2439-1.1812 1.2439-.4974 0-.8704-.1244-.8704-.6841 0-.5598.4352-.68415.8704-.80854.4352-.06219.9947-.12439 1.2434-.31097v.55971h-.0622zm-1.9273-1.61699c.0622-.55974.4352-.80851.9948-.80851.4973 0 .9325.06219.9325.74632 0 .62193-.8082.55973-1.7408.68412-.9325.12439-1.8029.43535-1.8029 1.61706 0 1.1194.8082 1.617 1.8029 1.617.6218 0 1.3056-.1866 1.803-.6841 0 .1865.0622.3731.1243.4975h1.4926c-.125-.1866-.187-.6841-.187-1.1817V8.19063c0-1.30605-1.2434-1.49263-2.3625-1.49263-1.1812 0-2.4246.43535-2.4868 1.8036h1.4299v-.06219zM101.028 6.82238h1.368v.74633c.373-.62194.995-.87071 1.617-.87071 1.554 0 1.927.87071 1.927 2.17677V12.171h-1.492V9.18574c0-.87071-.249-1.30607-.933-1.30607-.808 0-1.119.43536-1.119 1.55484v2.79869h-1.43V6.82238h.062z" fill="#1A171B"/></svg>