<svg width="389" height="60" viewBox="0 0 389 60" fill="none" xmlns="http://www.w3.org/2000/svg"><path d="M.27 25h4.617l1.242-3.834h7.29L14.688 25h4.86L12.285 4.912H7.506L.27 25zm8.181-10.881c.648-1.971 1.35-5.346 1.35-5.346h.054s.432 2.592 1.296 5.346l1.215 3.753H7.209l1.242-3.753zM4.563 3.805h4.131V.186999H4.563V3.805zm6.615 0h4.104V.186999h-4.104V3.805zm14.1839 6.831h-4.077V25h4.239v-6.669c0-2.808 1.512-4.239 3.807-4.212.297 0 .594.027.891.081h.108v-3.699c-.189-.081-.486-.108-.891-.108-1.782 0-3.078.81-3.996 2.808h-.081v-2.565zm18.9909 14.823c1.944 0 3.537-.81 4.374-2.565h.054V25h4.077V4.912h-4.239v4.401c0 1.215.054 2.43.108 3.321h-.054c-.972-1.485-2.295-2.403-4.266-2.403-3.726 0-6.21 3.186-6.21 7.587 0 4.752 2.43 7.641 6.156 7.641zm1.134-3.402c-1.971 0-2.97-1.674-2.97-4.266 0-2.565.999-4.347 2.997-4.347 2.187 0 3.24 1.836 3.24 4.374 0 2.511-1.215 4.239-3.267 4.239zM69.0327 25V10.636h-4.185v8.127c0 1.782-1.053 3.078-2.754 3.078-1.512 0-2.295-.918-2.295-2.511v-8.694h-4.239v9.504c0 3.159 1.782 5.265 5.049 5.265 1.971 0 3.267-.783 4.32-2.457h.081V25h4.023zm17.8158.459c3.726 0 6.156-2.889 6.156-7.641 0-4.401-2.457-7.587-6.183-7.587-1.998 0-3.321.945-4.293 2.403h-.081c.054-.864.135-2.106.135-3.321V4.912h-4.239V25h4.077v-2.106h.054c.837 1.755 2.457 2.565 4.374 2.565zm-1.134-3.402c-2.052 0-3.267-1.728-3.267-4.239 0-2.484 1.026-4.374 3.24-4.374 1.998 0 2.997 1.782 2.997 4.347 0 2.592-.999 4.266-2.97 4.266zm16.3105 3.375c3.699 0 6.048-1.944 6.777-4.482h-4.104c-.459.891-1.296 1.404-2.619 1.404-2.052 0-3.213-1.296-3.483-3.456h10.476c.027-2.835-.702-5.265-2.322-6.831-1.269-1.161-2.889-1.836-4.941-1.836-4.374 0-7.371 3.294-7.371 7.614 0 4.293 2.889 7.587 7.587 7.587zm-.216-12.204c1.674 0 2.808 1.215 2.943 3.213h-6.129c.27-1.971 1.242-3.213 3.186-3.213zm13.465-2.592h-4.077V25h4.239v-6.669c0-2.808 1.512-4.239 3.807-4.212.297 0 .594.027.891.081h.108v-3.699c-.189-.081-.486-.108-.891-.108-1.782 0-3.078.81-3.996 2.808h-.081v-2.565zm13.646 14.796c3.699 0 6.048-1.944 6.777-4.482h-4.104c-.459.891-1.296 1.404-2.619 1.404-2.052 0-3.213-1.296-3.483-3.456h10.476c.027-2.835-.702-5.265-2.322-6.831-1.269-1.161-2.889-1.836-4.941-1.836-4.374 0-7.371 3.294-7.371 7.614 0 4.293 2.889 7.587 7.587 7.587zm-.216-12.204c1.674 0 2.808 1.215 2.943 3.213h-6.129c.27-1.971 1.242-3.213 3.186-3.213zm14.869 12.231c1.944 0 3.537-.81 4.374-2.565h.054V25h4.077V4.912h-4.239v4.401c0 1.215.054 2.43.108 3.321h-.054c-.972-1.485-2.295-2.403-4.267-2.403-3.725 0-6.209 3.186-6.209 7.587 0 4.752 2.43 7.641 6.156 7.641zm1.134-3.402c-1.971 0-2.97-1.674-2.97-4.266 0-2.565.999-4.347 2.997-4.347 2.187 0 3.24 1.836 3.24 4.374 0 2.511-1.215 4.239-3.267 4.239zm15.661 3.402c1.944 0 3.537-.81 4.374-2.565h.054V25h4.077V4.912h-4.239v4.401c0 1.215.054 2.43.108 3.321h-.054c-.972-1.485-2.295-2.403-4.266-2.403-3.726 0-6.21 3.186-6.21 7.587 0 4.752 2.43 7.641 6.156 7.641zm1.134-3.402c-1.971 0-2.97-1.674-2.97-4.266 0-2.565.999-4.347 2.997-4.347 2.187 0 3.24 1.836 3.24 4.374 0 2.511-1.215 4.239-3.267 4.239zM187.403 25h4.131v-.243c-.378-.243-.54-.864-.54-1.998v-7.371c0-1.944-.702-3.429-2.187-4.293-.999-.594-2.295-.864-4.131-.864-4.266 0-6.264 2.295-6.372 4.752h3.915c.108-1.134.891-1.89 2.511-1.89 1.458 0 2.133.702 2.133 1.728 0 1.08-1.053 1.485-3.618 1.836-3.132.378-5.643 1.188-5.643 4.374 0 2.835 2.079 4.347 4.914 4.347 2.214 0 3.402-.81 4.347-2.133h.054c.081.81.27 1.431.486 1.755zm-3.564-2.403c-1.161 0-2.106-.459-2.106-1.701s.891-1.701 2.754-2.106c.945-.216 1.863-.432 2.484-.81v1.863c0 1.566-1.242 2.754-3.132 2.754zm9.05-9.261h2.16v8.046c0 2.916 1.809 3.78 4.482 3.78 1.134 0 1.998-.135 2.457-.216v-3.159h-.216c-.27.027-.702.054-.972.054-.999 0-1.593-.297-1.593-1.377v-7.128h2.808v-2.7h-2.808v-4.59h-4.158v4.59h-2.16v2.7zm10.363 0h2.16v8.046c0 2.916 1.809 3.78 4.482 3.78 1.134 0 1.998-.135 2.457-.216v-3.159h-.216c-.27.027-.702.054-.972.054-.999 0-1.593-.297-1.593-1.377v-7.128h2.808v-2.7h-2.808v-4.59h-4.158v4.59h-2.16v2.7zm17.006 0h2.16v8.046c0 2.916 1.809 3.78 4.482 3.78 1.134 0 1.998-.135 2.457-.216v-3.159h-.216c-.27.027-.702.054-.972.054-.999 0-1.593-.297-1.593-1.377v-7.128h2.808v-2.7h-2.808v-4.59h-4.158v4.59h-2.16v2.7zM241.06 25h4.131v-.243c-.378-.243-.54-.864-.54-1.998v-7.371c0-1.944-.702-3.429-2.187-4.293-.999-.594-2.295-.864-4.131-.864-4.266 0-6.264 2.295-6.372 4.752h3.915c.108-1.134.891-1.89 2.511-1.89 1.458 0 2.133.702 2.133 1.728 0 1.08-1.053 1.485-3.618 1.836-3.132.378-5.643 1.188-5.643 4.374 0 2.835 2.079 4.347 4.914 4.347 2.214 0 3.402-.81 4.347-2.133h.054c.081.81.27 1.431.486 1.755zm-3.564-2.403c-1.161 0-2.106-.459-2.106-1.701s.891-1.701 2.754-2.106c.945-.216 1.863-.432 2.484-.81v1.863c0 1.566-1.242 2.754-3.132 2.754zm24.713 2.889c4.59 0 8.1-2.322 8.1-6.48 0-4.239-3.321-5.427-6.939-6.237-3.159-.702-4.887-1.053-4.887-2.619 0-1.269 1.269-2.079 3.159-2.079 1.998 0 3.24.918 3.483 2.484h4.509c-.297-3.942-3.429-5.994-7.857-5.994-4.428 0-7.83 1.89-7.83 6.048 0 4.185 3.186 5.157 7.101 6.048 2.916.675 4.617 1.053 4.617 2.808 0 1.647-1.674 2.349-3.456 2.349-2.592 0-4.023-.972-4.266-3.159h-4.644c.135 4.347 3.537 6.831 8.91 6.831zM275.841 25h4.563l5.022-14.364h-4.266l-1.809 5.778c-.594 1.917-1.134 5.022-1.134 5.022h-.081s-.54-3.105-1.134-5.022l-1.755-5.778h-4.374L275.841 25zm17.504.432c3.699 0 6.048-1.944 6.777-4.482h-4.104c-.459.891-1.296 1.404-2.619 1.404-2.052 0-3.213-1.296-3.483-3.456h10.476c.027-2.835-.702-5.265-2.322-6.831-1.269-1.161-2.889-1.836-4.941-1.836-4.374 0-7.371 3.294-7.371 7.614 0 4.293 2.889 7.587 7.587 7.587zm-.216-12.204c1.674 0 2.808 1.215 2.943 3.213h-6.129c.27-1.971 1.242-3.213 3.186-3.213zm13.465-2.592h-4.077V25h4.239v-6.669c0-2.808 1.512-4.239 3.807-4.212.297 0 .594.027.891.081h.108v-3.699c-.189-.081-.486-.108-.891-.108-1.782 0-3.078.81-3.996 2.808h-.081v-2.565zm6.971-2.025h4.293V4.912h-4.293v3.699zM313.592 25h4.239V10.636h-4.239V25zm13.709 4.995c2.106 0 3.942-.486 5.184-1.566 1.161-1.026 1.863-2.565 1.863-4.698V10.636h-4.05v1.836h-.054c-.81-1.593-2.187-2.241-4.131-2.241-3.537 0-6.048 2.889-6.048 7.074 0 4.347 2.943 6.804 6.264 6.804 1.782 0 3.051-.702 3.888-2.106h.108c-.054.486-.081 1.161-.081 1.89v.297c0 1.755-.999 2.781-2.997 2.781-1.647 0-2.457-.594-2.727-1.458h-4.131c.432 2.835 2.97 4.482 6.912 4.482zm-.027-9.072c-1.89 0-3.051-1.458-3.051-3.726 0-2.295 1.161-3.753 3.024-3.753 2.079 0 3.132 1.593 3.132 3.726s-.945 3.753-3.105 3.753zm16.828 4.509c3.699 0 6.048-1.944 6.777-4.482h-4.104c-.459.891-1.296 1.404-2.619 1.404-2.052 0-3.213-1.296-3.483-3.456h10.476c.027-2.835-.702-5.265-2.322-6.831-1.269-1.161-2.889-1.836-4.941-1.836-4.374 0-7.371 3.294-7.371 7.614 0 4.293 2.889 7.587 7.587 7.587zm-.216-12.204c1.674 0 2.808 1.215 2.943 3.213H340.7c.27-1.971 1.242-3.213 3.186-3.213zm15.355 12.231c3.726 0 6.48-1.62 6.48-4.725 0-3.618-2.916-4.293-5.481-4.752-1.971-.351-3.537-.513-3.537-1.593 0-.918.837-1.458 2.133-1.458 1.35 0 2.16.513 2.43 1.539h3.942c-.378-2.511-2.376-4.239-6.372-4.239-3.375 0-6.048 1.539-6.048 4.482 0 3.348 2.592 3.996 5.157 4.482 1.998.378 3.699.54 3.699 1.836 0 1.026-.864 1.647-2.376 1.647-1.647 0-2.673-.756-2.916-2.106h-3.996c.216 2.889 2.727 4.887 6.885 4.887zM5.103 55h4.563l5.022-14.364h-4.266l-1.809 5.778c-.594 1.917-1.134 5.022-1.134 5.022h-.081s-.54-3.105-1.134-5.022l-1.755-5.778H.135L5.103 55zm11.0924-16.389h4.293v-3.699h-4.293v3.699zM16.2224 55h4.239V40.636h-4.239V55zm16.409 0h4.914l-5.724-9.045 5.13-5.319h-4.914l-4.725 5.157c.054-.918.135-2.511.135-4.617v-6.264h-4.185V55h4.185v-4.779l1.431-1.485L32.6314 55zm5.4561-11.664h2.16v8.046c0 2.916 1.809 3.78 4.482 3.78 1.134 0 1.998-.135 2.457-.216v-3.159h-.216c-.27.027-.702.054-.972.054-.999 0-1.593-.297-1.593-1.377v-7.128h2.808v-2.7h-2.808v-4.59h-4.158v4.59h-2.16v2.7zm11.3041-4.725h4.293v-3.699h-4.293v3.699zM49.4186 55h4.239V40.636h-4.239V55zm13.7091 4.995c2.106 0 3.942-.486 5.184-1.566 1.161-1.026 1.863-2.565 1.863-4.698V40.636h-4.05v1.836h-.054c-.81-1.593-2.187-2.241-4.131-2.241-3.537 0-6.048 2.889-6.048 7.074 0 4.347 2.943 6.804 6.264 6.804 1.782 0 3.051-.702 3.888-2.106h.108c-.054.486-.081 1.161-.081 1.89v.297c0 1.755-.999 2.781-2.997 2.781-1.647 0-2.457-.594-2.727-1.458h-4.131c.432 2.835 2.97 4.482 6.912 4.482zm-.027-9.072c-1.89 0-3.051-1.458-3.051-3.726 0-2.295 1.161-3.753 3.024-3.753 2.079 0 3.132 1.593 3.132 3.726s-.945 3.753-3.105 3.753zM82.2243 55h4.131v-.243c-.378-.243-.54-.864-.54-1.998v-7.371c0-1.944-.702-3.429-2.187-4.293-.999-.594-2.295-.864-4.131-.864-4.266 0-6.264 2.295-6.372 4.752h3.915c.108-1.134.891-1.89 2.511-1.89 1.458 0 2.133.702 2.133 1.728 0 1.08-1.053 1.485-3.618 1.836-3.132.378-5.643 1.188-5.643 4.374 0 2.835 2.079 4.347 4.914 4.347 2.214 0 3.402-.81 4.347-2.133h.054c.081.81.27 1.431.486 1.755zm-3.564-2.403c-1.161 0-2.106-.459-2.106-1.701s.891-1.701 2.754-2.106c.945-.216 1.863-.432 2.484-.81v1.863c0 1.566-1.242 2.754-3.132 2.754zm15.9861 2.862c3.726 0 6.4796-1.62 6.4796-4.725 0-3.618-2.9156-4.293-5.4806-4.752-1.971-.351-3.537-.513-3.537-1.593 0-.918.837-1.458 2.133-1.458 1.35 0 2.16.513 2.43 1.539h3.9416c-.378-2.511-2.3756-4.239-6.3716-4.239-3.375 0-6.048 1.539-6.048 4.482 0 3.348 2.592 3.996 5.157 4.482 1.998.378 3.699.54 3.699 1.836 0 1.026-.864 1.647-2.376 1.647-1.647 0-2.673-.756-2.916-2.106h-3.996c.216 2.889 2.727 4.887 6.885 4.887zm7.3556-12.123h2.16v8.046c0 2.916 1.809 3.78 4.482 3.78 1.134 0 1.998-.135 2.457-.216v-3.159h-.216c-.27.027-.702.054-.972.054-.999 0-1.593-.297-1.593-1.377v-7.128h2.808v-2.7h-2.808v-4.59h-4.158v4.59h-2.16v2.7zm18.243 12.096c3.699 0 6.048-1.944 6.777-4.482h-4.104c-.459.891-1.296 1.404-2.619 1.404-2.052 0-3.213-1.296-3.483-3.456h10.476c.027-2.835-.702-5.265-2.322-6.831-1.269-1.161-2.889-1.836-4.941-1.836-4.374 0-7.371 3.294-7.371 7.614 0 4.293 2.889 7.587 7.587 7.587zm-.216-12.204c1.674 0 2.808 1.215 2.943 3.213h-6.129c.27-1.971 1.242-3.213 3.186-3.213zM136.226 55h4.617V34.912h-4.617V55zm7.07-16.173h5.967V55h4.617V38.827h5.994v-3.915h-16.578v3.915zm16.224 10.854h7.641v-3.672h-7.641v3.672zm10.133 10.206c1.296 0 2.376-.297 3.159-1.08.675-.648 1.08-1.62 1.08-3.456V40.636h-4.239v14.553c0 1.053-.405 1.377-1.242 1.458-.297.027-.621.027-.999.027h-.162v2.997c.648.135 1.647.216 2.403.216zm-.027-21.276h4.293v-3.699h-4.293v3.699zm14.006 16.848c4.563 0 7.56-3.321 7.56-7.614 0-4.32-2.997-7.614-7.56-7.614-4.59 0-7.614 3.294-7.614 7.614 0 4.293 3.024 7.614 7.614 7.614zm-.027-3.078c-2.16 0-3.294-1.836-3.294-4.536 0-2.727 1.134-4.59 3.294-4.59 2.106 0 3.294 1.863 3.294 4.59 0 2.7-1.188 4.536-3.294 4.536zm18.231 3.078c3.726 0 6.156-2.889 6.156-7.641 0-4.401-2.457-7.587-6.183-7.587-1.998 0-3.321.945-4.293 2.403h-.081c.054-.864.135-2.106.135-3.321v-4.401h-4.239V55h4.077v-2.106h.054c.837 1.755 2.457 2.565 4.374 2.565zm-1.134-3.402c-2.052 0-3.267-1.728-3.267-4.239 0-2.484 1.026-4.374 3.24-4.374 1.998 0 2.997 1.782 2.997 4.347 0 2.592-.999 4.266-2.97 4.266zm17.903 3.402c3.726 0 6.156-2.889 6.156-7.641 0-4.401-2.457-7.587-6.183-7.587-1.998 0-3.321.945-4.293 2.403h-.081c.054-.864.135-2.106.135-3.321v-4.401H210.1V55h4.077v-2.106h.054c.837 1.755 2.457 2.565 4.374 2.565zm-1.134-3.402c-2.052 0-3.267-1.728-3.267-4.239 0-2.484 1.026-4.374 3.24-4.374 1.998 0 2.997 1.782 2.997 4.347 0 2.592-.999 4.266-2.97 4.266zM229.883 55h4.482v-4.428h-4.482V55zm.405-6.993h3.78c.027-.783.135-1.188.567-1.674.567-.621 1.566-1.107 3.024-2.241 1.053-.837 1.998-2.079 1.998-4.104 0-3.267-2.646-5.427-6.858-5.427-4.671 0-7.344 2.835-7.452 6.453h4.212c.027-1.674 1.242-2.943 3.078-2.943 1.485 0 2.565.783 2.565 2.025 0 1.566-1.647 2.268-2.862 3.321-1.485 1.242-2.052 2.322-2.052 4.59z" fill="#000"/></svg>