<svg width="410" height="51" viewBox="0 0 410 51" fill="none" xmlns="http://www.w3.org/2000/svg"><path d="M1.694 21H7.59c4.906 0 7.458-3.234 7.458-8.118 0-4.906-2.42-8.25-7.304-8.25h-6.05V21zm2.266-1.958V6.59h3.674c3.718 0 5.082 2.53 5.082 6.292s-1.518 6.16-5.214 6.16H3.96zm18.6873 2.288c2.728 0 4.62-1.496 5.148-3.696h-2.002c-.374 1.254-1.496 2.024-3.124 2.024-2.288 0-3.542-1.76-3.696-4.07h9.064c0-2.002-.484-3.696-1.452-4.862-.924-1.144-2.288-1.826-4.048-1.826-3.388 0-5.654 2.772-5.654 6.204 0 3.454 2.134 6.226 5.764 6.226zm-.11-10.846c2.046 0 3.212 1.364 3.322 3.63h-6.842c.264-2.09 1.386-3.63 3.52-3.63zm6.7404.286h1.848v7.92c0 1.738 1.1 2.376 2.684 2.398.528 0 1.1-.066 1.65-.198v-1.716h-.066c-.22.066-.682.154-1.034.154-.748 0-1.21-.242-1.21-1.1V10.77h2.442V9.186h-2.442V5.468h-2.024v3.718h-1.848v1.584zm17.8026 10.472c2.002 0 3.212-.946 3.96-1.98h.022c.22 1.254.836 1.848 2.09 1.848.484 0 .814-.088 1.1-.176v-1.43h-.088c-1.034.22-1.254-.286-1.254-1.232V12.75c0-1.584-.594-2.618-1.584-3.212-.748-.44-1.738-.638-2.86-.638-3.19 0-4.708 1.782-4.796 3.784h1.98c.066-1.408.968-2.288 2.838-2.288 1.628 0 2.53.792 2.53 2.068 0 1.21-1.122 1.496-2.86 1.694-3.058.374-5.082.968-5.082 3.718 0 2.266 1.76 3.366 4.004 3.366zm.506-1.496c-1.188 0-2.354-.374-2.354-1.892 0-1.628 1.276-1.98 3.212-2.31.968-.176 2.002-.462 2.596-.836v1.936c0 1.364-1.1 3.102-3.454 3.102zm1.936-12.738h2.024V4.632h-2.024v2.376zm-4.356 0h2.024V4.632h-2.024v2.376zm12.7716 2.178h-2.024V21h2.046v-6.424c0-2.222 1.562-3.586 3.388-3.586.352 0 .55.022.836.11h.066V9.164c-.22-.088-.418-.132-.748-.132-1.562 0-2.772.924-3.498 2.288h-.066V9.186zM75.2195 21.33c2.728 0 4.62-1.496 5.148-3.696h-2.002c-.374 1.254-1.496 2.024-3.124 2.024-2.288 0-3.542-1.76-3.696-4.07h9.064c0-2.002-.484-3.696-1.452-4.862-.924-1.144-2.288-1.826-4.048-1.826-3.388 0-5.654 2.772-5.654 6.204 0 3.454 2.134 6.226 5.764 6.226zm-.11-10.846c2.046 0 3.212 1.364 3.322 3.63h-6.842c.264-2.09 1.386-3.63 3.52-3.63zm6.7405.286h1.848v7.92c0 1.738 1.1 2.376 2.684 2.398.528 0 1.1-.066 1.65-.198v-1.716h-.066c-.22.066-.682.154-1.034.154-.748 0-1.21-.242-1.21-1.1V10.77h2.442V9.186h-2.442V5.468h-2.024v3.718H81.85v1.584zm7.3906 0h1.848v7.92c0 1.738 1.1 2.376 2.684 2.398.528 0 1.1-.066 1.65-.198v-1.716h-.066c-.22.066-.682.154-1.034.154-.748 0-1.21-.242-1.21-1.1V10.77h2.442V9.186h-2.442V5.468h-2.024v3.718h-1.848v1.584zm18.8144 10.582c2.772 0 4.752-1.232 4.752-3.63 0-2.75-2.024-3.278-4.378-3.74-2.002-.396-3.146-.638-3.146-1.87 0-.902.682-1.65 2.288-1.65 1.694 0 2.53.682 2.706 1.892h2.046c-.264-2.046-1.738-3.432-4.708-3.432-2.75 0-4.334 1.276-4.334 3.3 0 2.596 2.09 3.08 4.4 3.564 2.09.418 3.08.748 3.08 2.046 0 1.056-.792 1.87-2.662 1.87-1.694 0-3.014-.572-3.256-2.288h-2.068c.176 2.398 2.024 3.938 5.28 3.938zm6.022-10.582h1.848v7.92c0 1.738 1.1 2.376 2.684 2.398.528 0 1.1-.066 1.65-.198v-1.716h-.066c-.22.066-.682.154-1.034.154-.748 0-1.21-.242-1.21-1.1V10.77h2.442V9.186h-2.442V5.468h-2.024v3.718h-1.848v1.584zm13.479 10.56c3.564 0 5.742-2.772 5.742-6.226 0-3.432-2.178-6.204-5.742-6.204s-5.786 2.772-5.786 6.204c0 3.454 2.222 6.226 5.786 6.226zm-.022-1.672c-2.42 0-3.674-2.002-3.674-4.554 0-2.552 1.254-4.576 3.674-4.576s3.674 2.024 3.674 4.576c0 2.552-1.254 4.554-3.674 4.554zm9.961-10.472h-2.024V21h2.046v-6.424c0-2.222 1.562-3.586 3.388-3.586.352 0 .55.022.836.11h.066V9.164c-.22-.088-.418-.132-.748-.132-1.562 0-2.772.924-3.498 2.288h-.066V9.186zm5.585 1.584h1.848v7.92c0 1.738 1.1 2.376 2.684 2.398.528 0 1.1-.066 1.65-.198v-1.716h-.066c-.22.066-.682.154-1.034.154-.748 0-1.21-.242-1.21-1.1V10.77h2.442V9.186h-2.442V5.468h-2.024v3.718h-1.848v1.584zm17.803 10.472c2.002 0 3.212-.946 3.96-1.98h.022c.22 1.254.836 1.848 2.09 1.848.484 0 .814-.088 1.1-.176v-1.43h-.088c-1.034.22-1.254-.286-1.254-1.232V12.75c0-1.584-.594-2.618-1.584-3.212-.748-.44-1.738-.638-2.86-.638-3.19 0-4.708 1.782-4.796 3.784h1.98c.066-1.408.968-2.288 2.838-2.288 1.628 0 2.53.792 2.53 2.068 0 1.21-1.122 1.496-2.86 1.694-3.058.374-5.082.968-5.082 3.718 0 2.266 1.76 3.366 4.004 3.366zm.506-1.496c-1.188 0-2.354-.374-2.354-1.892 0-1.628 1.276-1.98 3.212-2.31.968-.176 2.002-.462 2.596-.836v1.936c0 1.364-1.1 3.102-3.454 3.102zm10.352-10.56h-2.024V21h2.046v-7.194c0-1.892 1.32-3.19 3.146-3.19 1.606 0 2.596.858 2.596 2.376V21h2.024v-8.25c0-2.464-1.518-3.85-3.982-3.85-1.716 0-2.882.77-3.74 1.958h-.066V9.186zm15.076 12.166c2.772 0 4.752-1.232 4.752-3.63 0-2.75-2.024-3.278-4.378-3.74-2.002-.396-3.146-.638-3.146-1.87 0-.902.682-1.65 2.288-1.65 1.694 0 2.53.682 2.706 1.892h2.046c-.264-2.046-1.738-3.432-4.708-3.432-2.75 0-4.334 1.276-4.334 3.3 0 2.596 2.09 3.08 4.4 3.564 2.09.418 3.08.748 3.08 2.046 0 1.056-.792 1.87-2.662 1.87-1.694 0-3.014-.572-3.256-2.288h-2.068c.176 2.398 2.024 3.938 5.28 3.938zm9.671-.352h2.266L203 9.186h-2.112l-2.112 6.38c-.528 1.584-1.034 3.762-1.034 3.762h-.044s-.572-2.178-1.078-3.762l-2.068-6.38h-2.178L196.488 21zm11.231.242c2.002 0 3.212-.946 3.96-1.98h.022c.22 1.254.836 1.848 2.09 1.848.484 0 .814-.088 1.1-.176v-1.43h-.088c-1.034.22-1.254-.286-1.254-1.232V12.75c0-1.584-.594-2.618-1.584-3.212-.748-.44-1.738-.638-2.86-.638-3.19 0-4.708 1.782-4.796 3.784h1.98c.066-1.408.968-2.288 2.838-2.288 1.628 0 2.53.792 2.53 2.068 0 1.21-1.122 1.496-2.86 1.694-3.058.374-5.082.968-5.082 3.718 0 2.266 1.76 3.366 4.004 3.366zm.506-1.496c-1.188 0-2.354-.374-2.354-1.892 0-1.628 1.276-1.98 3.212-2.31.968-.176 2.002-.462 2.596-.836v1.936c0 1.364-1.1 3.102-3.454 3.102zm10.352-10.56h-2.024V21h2.046v-6.424c0-2.222 1.562-3.586 3.388-3.586.352 0 .55.022.836.11h.066V9.164c-.22-.088-.418-.132-.748-.132-1.562 0-2.772.924-3.498 2.288h-.066V9.186zM223.358 21h2.376v-2.42h-2.376V21zM1.694 46h2.024v-9.9c0-1.452-.132-4.202-.132-4.202h.044s.682 2.464 1.144 3.74L8.756 46h1.76l3.982-10.362c.484-1.276 1.144-3.74 1.144-3.74h.044s-.132 2.75-.132 4.202V46h2.156V29.632h-2.992l-3.344 8.888c-.66 1.804-1.672 5.126-1.672 5.126h-.044s-.99-3.344-1.65-5.126l-3.41-8.888H1.694V46zm24.2189.33c2.728 0 4.62-1.496 5.148-3.696h-2.002c-.374 1.254-1.496 2.024-3.124 2.024-2.288 0-3.542-1.76-3.696-4.07h9.064c0-2.002-.484-3.696-1.452-4.862-.924-1.144-2.288-1.826-4.048-1.826-3.388 0-5.654 2.772-5.654 6.204 0 3.454 2.134 6.226 5.764 6.226zm-.11-10.846c2.046 0 3.212 1.364 3.322 3.63h-6.842c.264-2.09 1.386-3.63 3.52-3.63zm9.7053-1.298h-2.024V46h2.046v-7.194c0-1.892 1.32-3.19 3.146-3.19 1.606 0 2.596.858 2.596 2.376V46h2.024v-8.25c0-2.464-1.518-3.85-3.982-3.85-1.716 0-2.882.77-3.74 1.958h-.066v-1.672zm20.9201 12.166c2.772 0 4.752-1.232 4.752-3.63 0-2.75-2.024-3.278-4.378-3.74-2.002-.396-3.146-.638-3.146-1.87 0-.902.682-1.65 2.288-1.65 1.694 0 2.53.682 2.706 1.892h2.046c-.264-2.046-1.738-3.432-4.708-3.432-2.75 0-4.334 1.276-4.334 3.3 0 2.596 2.09 3.08 4.4 3.564 2.09.418 3.08.748 3.08 2.046 0 1.056-.792 1.87-2.662 1.87-1.694 0-3.014-.572-3.256-2.288h-2.068c.176 2.398 2.024 3.938 5.28 3.938zm10.5895-.11c2.002 0 3.212-.946 3.96-1.98h.022c.22 1.254.836 1.848 2.09 1.848.484 0 .814-.088 1.1-.176v-1.43h-.088c-1.034.22-1.254-.286-1.254-1.232V37.75c0-1.584-.594-2.618-1.584-3.212-.748-.44-1.738-.638-2.86-.638-3.19 0-4.708 1.782-4.796 3.784h1.98c.066-1.408.968-2.288 2.838-2.288 1.628 0 2.53.792 2.53 2.068 0 1.21-1.122 1.496-2.86 1.694-3.058.374-5.082.968-5.082 3.718 0 2.266 1.76 3.366 4.004 3.366zm.506-1.496c-1.188 0-2.354-.374-2.354-1.892 0-1.628 1.276-1.98 3.212-2.31.968-.176 2.002-.462 2.596-.836v1.936c0 1.364-1.1 3.102-3.454 3.102zm.792-11.924c1.232 0 2.244-.99 2.244-2.222 0-1.21-1.012-2.178-2.244-2.178-1.254 0-2.266.968-2.266 2.178 0 1.232 1.012 2.222 2.266 2.222zm0-.924c-.726 0-1.232-.55-1.232-1.298 0-.726.506-1.276 1.232-1.276.704 0 1.21.55 1.21 1.276 0 .748-.506 1.298-1.21 1.298zm16.8993 14.344c2.002 0 3.212-.946 3.96-1.98h.022c.22 1.254.836 1.848 2.09 1.848.484 0 .814-.088 1.1-.176v-1.43h-.088c-1.034.22-1.254-.286-1.254-1.232V37.75c0-1.584-.594-2.618-1.584-3.212-.748-.44-1.738-.638-2.86-.638-3.19 0-4.708 1.782-4.796 3.784h1.98c.066-1.408.968-2.288 2.838-2.288 1.628 0 2.53.792 2.53 2.068 0 1.21-1.122 1.496-2.86 1.694-3.058.374-5.082.968-5.082 3.718 0 2.266 1.76 3.366 4.004 3.366zm.506-1.496c-1.188 0-2.354-.374-2.354-1.892 0-1.628 1.276-1.98 3.212-2.31.968-.176 2.002-.462 2.596-.836v1.936c0 1.364-1.1 3.102-3.454 3.102zm1.936-12.738h2.024v-2.376h-2.024v2.376zm-4.356 0h2.024v-2.376h-2.024v2.376zm12.7715 2.178h-2.024V46h2.046v-6.424c0-2.222 1.562-3.586 3.388-3.586.352 0 .5504.022.8364.11h.066v-1.936c-.22-.088-.4184-.132-.7484-.132-1.562 0-2.772.924-3.498 2.288h-.066v-2.134zm16.7314 12.166c1.65 0 2.904-.77 3.652-2.046h.044V46h2.024V29.632h-2.046v4.18c0 .792.022 1.65.066 2.178h-.044c-.748-1.254-2.068-2.09-3.74-2.09-2.926 0-5.17 2.332-5.17 6.226 0 3.806 2.024 6.226 5.214 6.226zm.154-1.694c-2.178 0-3.278-1.914-3.278-4.51s1.1-4.532 3.278-4.532c2.376 0 3.63 1.87 3.63 4.532 0 2.596-1.1 4.51-3.63 4.51zm13.502 1.672c2.728 0 4.62-1.496 5.148-3.696h-2.002c-.374 1.254-1.496 2.024-3.124 2.024-2.288 0-3.542-1.76-3.696-4.07h9.064c0-2.002-.484-3.696-1.452-4.862-.924-1.144-2.288-1.826-4.048-1.826-3.388 0-5.654 2.772-5.654 6.204 0 3.454 2.134 6.226 5.764 6.226zm-.11-10.846c2.046 0 3.212 1.364 3.322 3.63h-6.842c.264-2.09 1.386-3.63 3.52-3.63zm6.74.286h1.848v7.92c0 1.738 1.1 2.376 2.684 2.398.528 0 1.1-.066 1.65-.198v-1.716h-.066c-.22.066-.682.154-1.034.154-.748 0-1.21-.242-1.21-1.1V35.77h2.442v-1.584h-2.442v-3.718h-2.024v3.718h-1.848v1.584zm16.329-1.848v-4.29h-2.046V46h2.046v-7.194c0-1.892 1.32-3.19 3.146-3.19 1.606 0 2.596.858 2.596 2.376V46h2.024v-8.25c0-2.464-1.518-3.85-3.982-3.85-1.716 0-2.904.748-3.784 2.002h-.066c.022-.572.066-1.386.066-1.98zm15.648 12.408c2.728 0 4.62-1.496 5.148-3.696h-2.002c-.374 1.254-1.496 2.024-3.124 2.024-2.288 0-3.542-1.76-3.696-4.07h9.064c0-2.002-.484-3.696-1.452-4.862-.924-1.144-2.288-1.826-4.048-1.826-3.388 0-5.654 2.772-5.654 6.204 0 3.454 2.134 6.226 5.764 6.226zm-.11-10.846c2.046 0 3.212 1.364 3.322 3.63h-6.842c.264-2.09 1.386-3.63 3.52-3.63zM172.704 46h2.046V29.632h-2.046V46zm4.985 0h2.046V29.632h-2.046V46zm10.044.33c2.728 0 4.62-1.496 5.148-3.696h-2.002c-.374 1.254-1.496 2.024-3.124 2.024-2.288 0-3.542-1.76-3.696-4.07h9.064c0-2.002-.484-3.696-1.452-4.862-.924-1.144-2.288-1.826-4.048-1.826-3.388 0-5.654 2.772-5.654 6.204 0 3.454 2.134 6.226 5.764 6.226zm-.11-10.846c2.046 0 3.212 1.364 3.322 3.63h-6.842c.264-2.09 1.386-3.63 3.52-3.63zm9.705-1.298h-2.024V46h2.046v-6.424c0-2.222 1.562-3.586 3.388-3.586.352 0 .55.022.836.11h.066v-1.936c-.22-.088-.418-.132-.748-.132-1.562 0-2.772.924-3.498 2.288h-.066v-2.134zm12.112-2.178h2.134v-2.376h-2.134v2.376zM209.484 46h2.046V34.186h-2.046V46zm6.88-11.814h-2.024V46h2.046v-7.194c0-1.892 1.32-3.19 3.146-3.19 1.606 0 2.596.858 2.596 2.376V46h2.024v-8.25c0-2.464-1.518-3.85-3.982-3.85-1.716 0-2.882.77-3.74 1.958h-.066v-1.672zm15.538 15.95c1.584 0 2.904-.352 3.828-1.122.902-.77 1.43-1.936 1.43-3.498v-11.33h-2.024v1.562h-.044c-.748-1.188-1.892-1.848-3.586-1.848-2.772 0-5.06 2.156-5.06 5.786 0 3.432 2.156 5.786 5.17 5.786 1.672 0 2.706-.726 3.52-1.892h.044c-.022.374-.044 1.012-.044 1.694v.33c0 2.002-1.166 2.948-3.278 2.948-1.76 0-2.948-.506-3.124-1.738h-1.914c.22 2.09 1.98 3.322 5.082 3.322zm-.088-6.336c-2.134 0-3.278-1.584-3.278-4.092 0-2.486 1.1-4.114 3.256-4.114 2.354 0 3.476 1.518 3.476 4.004 0 2.398-.88 4.202-3.454 4.202zm13.304 2.53c2.728 0 4.62-1.496 5.148-3.696h-2.002c-.374 1.254-1.496 2.024-3.124 2.024-2.288 0-3.542-1.76-3.696-4.07h9.064c0-2.002-.484-3.696-1.452-4.862-.924-1.144-2.288-1.826-4.048-1.826-3.388 0-5.654 2.772-5.654 6.204 0 3.454 2.134 6.226 5.764 6.226zm-.11-10.846c2.046 0 3.212 1.364 3.322 3.63h-6.842c.264-2.09 1.386-3.63 3.52-3.63zm6.74.286h1.848v7.92c0 1.738 1.1 2.376 2.684 2.398.528 0 1.1-.066 1.65-.198v-1.716h-.066c-.22.066-.682.154-1.034.154-.748 0-1.21-.242-1.21-1.1V35.77h2.442v-1.584h-2.442v-3.718h-2.024v3.718h-1.848v1.584zM268.847 46h2.266l4.246-11.814h-2.112l-2.112 6.38c-.528 1.584-1.034 3.762-1.034 3.762h-.044s-.572-2.178-1.078-3.762l-2.068-6.38h-2.178L268.847 46zm11.231.242c2.002 0 3.212-.946 3.96-1.98h.022c.22 1.254.836 1.848 2.09 1.848.484 0 .814-.088 1.1-.176v-1.43h-.088c-1.034.22-1.254-.286-1.254-1.232V37.75c0-1.584-.594-2.618-1.584-3.212-.748-.44-1.738-.638-2.86-.638-3.19 0-4.708 1.782-4.796 3.784h1.98c.066-1.408.968-2.288 2.838-2.288 1.628 0 2.53.792 2.53 2.068 0 1.21-1.122 1.496-2.86 1.694-3.058.374-5.082.968-5.082 3.718 0 2.266 1.76 3.366 4.004 3.366zm.506-1.496c-1.188 0-2.354-.374-2.354-1.892 0-1.628 1.276-1.98 3.212-2.31.968-.176 2.002-.462 2.596-.836v1.936c0 1.364-1.1 3.102-3.454 3.102zm10.352-10.56h-2.024V46h2.046v-7.194c0-1.892 1.32-3.19 3.146-3.19 1.606 0 2.596.858 2.596 2.376V46h2.024v-8.25c0-2.464-1.518-3.85-3.982-3.85-1.716 0-2.882.77-3.74 1.958h-.066v-1.672zM301.546 46h2.046V29.632h-2.046V46zm4.875-13.992h2.134v-2.376h-2.134v2.376zM306.465 46h2.046V34.186h-2.046V46zm9.849 4.136c1.584 0 2.904-.352 3.828-1.122.902-.77 1.43-1.936 1.43-3.498v-11.33h-2.024v1.562h-.044c-.748-1.188-1.892-1.848-3.586-1.848-2.772 0-5.06 2.156-5.06 5.786 0 3.432 2.156 5.786 5.17 5.786 1.672 0 2.706-.726 3.52-1.892h.044c-.022.374-.044 1.012-.044 1.694v.33c0 2.002-1.166 2.948-3.278 2.948-1.76 0-2.948-.506-3.124-1.738h-1.914c.22 2.09 1.98 3.322 5.082 3.322zm-.088-6.336c-2.134 0-3.278-1.584-3.278-4.092 0-2.486 1.1-4.114 3.256-4.114 2.354 0 3.476 1.518 3.476 4.004 0 2.398-.88 4.202-3.454 4.202zm7.452-8.03h1.848v7.92c0 1.738 1.1 2.376 2.684 2.398.528 0 1.1-.066 1.65-.198v-1.716h-.066c-.22.066-.682.154-1.034.154-.748 0-1.21-.242-1.21-1.1V35.77h2.442v-1.584h-2.442v-3.718h-2.024v3.718h-1.848v1.584zm13.535 13.97c.792 0 1.474-.132 2.002-.528.484-.396.792-1.056.792-2.2V34.186h-2.046v12.716c0 .836-.396 1.144-1.188 1.166-.198 0-.418-.022-.638-.066h-.066v1.628c.308.044.704.11 1.144.11zm.704-17.732h2.134v-2.376h-2.134v2.376zm10.069 14.322c3.564 0 5.742-2.772 5.742-6.226 0-3.432-2.178-6.204-5.742-6.204s-5.786 2.772-5.786 6.204c0 3.454 2.222 6.226 5.786 6.226zm-.022-1.672c-2.42 0-3.674-2.002-3.674-4.554 0-2.552 1.254-4.576 3.674-4.576s3.674 2.024 3.674 4.576c0 2.552-1.254 4.554-3.674 4.554zm13.722 1.694c3.19 0 5.104-2.42 5.104-6.226 0-3.894-2.046-6.226-5.038-6.226-1.716 0-3.036.902-3.806 2.156h-.066c.022-.506.066-1.342.066-2.244v-4.18H355.9V46h2.024v-1.672h.066c.77 1.32 2.112 2.024 3.696 2.024zm-.22-1.694c-2.42 0-3.63-1.936-3.63-4.51 0-2.508 1.144-4.532 3.652-4.532 2.156 0 3.212 1.936 3.212 4.532s-1.056 4.51-3.234 4.51zm13.283 1.694c3.19 0 5.104-2.42 5.104-6.226 0-3.894-2.046-6.226-5.038-6.226-1.716 0-3.036.902-3.806 2.156h-.066c.022-.506.066-1.342.066-2.244v-4.18h-2.046V46h2.024v-1.672h.066c.77 1.32 2.112 2.024 3.696 2.024zm-.22-1.694c-2.42 0-3.63-1.936-3.63-4.51 0-2.508 1.144-4.532 3.652-4.532 2.156 0 3.212 1.936 3.212 4.532s-1.056 4.51-3.234 4.51zM381.376 46h2.376v-2.42h-2.376V46z" fill="#000"/></svg>