<svg width="156" height="21" viewBox="0 0 156 21" fill="none" xmlns="http://www.w3.org/2000/svg"><path fill-rule="evenodd" clip-rule="evenodd" d="M18.0352 17.1237c0 .4578-.3662.9157-.9155.9157H.915493C.457747 18.0394 0 17.6731 0 17.1237V.915704C0 .457852.366197 0 .915493 0H17.1197c.4578 0 .9155.366281.9155.915704V17.1237z" fill="#007B4B"/><path fill-rule="evenodd" clip-rule="evenodd" d="M7.41552 7.23419c-.1831 0-.27465.09157-.27465.27471v4.2123c0 .1831.09155.3662.1831.5494l4.39433 4.3954c.0916.0915.3662.1831.5493.1831h4.2113c.1831 0 .2746-.0916.2746-.2747v-4.2123c0-.1831-.0915-.3662-.1831-.5494l-4.3943-4.39537c-.0916-.09157-.3662-.18314-.5493-.18314H7.41552z" fill="#fff"/><path fill-rule="evenodd" clip-rule="evenodd" d="M1.4648 1.19025c-.1831 0-.27464.09157-.27464.27471V16.5741c0 .1831.09154.1831.18309.0916l4.39437-4.3954c.09155-.0916.1831-.3663.1831-.5494V6.31819c0-.18314.09155-.27471.27464-.27471h5.40144c.1831 0 .3662-.09157.5493-.18314l4.3943-4.39538c.0916-.09157.0916-.18314-.0915-.18314H1.4648v-.09157z" fill="#fff"/><path d="M26.3662 6.59314h7.5986v2.01455h-5.2183v2.47241h4.4859v1.8314h-4.4859v4.487h-2.3803V6.59314zM36.3451 13.5525c0-1.282.4577-2.4724 1.9225-2.4724s1.9225 1.282 1.9225 2.4724c0 1.282-.4577 2.4724-1.9225 2.4724s-1.9225-1.282-1.9225-2.4724zm2.3802-5.12791h2.0141V6.68475h-2.0141v1.73984zm-3.1126 0h2.0141V6.68475h-2.0141v1.73984zm-1.4648 5.12791c0 2.4724 1.5563 4.1207 4.0282 4.1207 2.4718 0 4.0281-1.6483 4.0281-4.1207 0-2.4724-1.5563-4.12064-4.0281-4.12064-2.3803 0-4.0282 1.55674-4.0282 4.12064zM43.1198 9.61496h2.014v1.46514c.3662-1.0073 1.4648-1.64828 2.4719-1.64828.1831 0 .3662 0 .4577.09157v2.01451c-.1831 0-.5493-.0915-.7324-.0915-1.5563 0-2.1056 1.0988-2.1056 2.4724V17.49h-2.1056V9.61496zM50.5352 14.926c0 .9157.8239 1.282 1.6479 1.282.6408 0 1.3732-.2747 1.3732-1.0072 0-.641-.9155-.9157-2.4718-1.1905-1.2817-.2747-2.4718-.7325-2.4718-2.1061 0-2.01452 1.7394-2.47238 3.3873-2.47238 1.7394 0 3.2958.54943 3.4789 2.47238h-2.0141c-.0916-.8241-.7324-1.0988-1.4648-1.0988-.4578 0-1.1902.0915-1.1902.7325 0 .7326 1.1902.9157 2.4719 1.1905 1.2817.2747 2.4718.7325 2.4718 2.1976 0 2.0146-1.831 2.7472-3.5704 2.7472-1.831 0-3.5704-.641-3.662-2.7472h2.0141zM61.6127 14.3767c0 .4578-.0916 1.8314-1.7395 1.8314-.7324 0-1.2817-.1832-1.2817-1.0073s.6409-1.0073 1.2817-1.1904c.6409-.0916 1.4648-.1832 1.831-.4579v.8242h-.0915zm-.824-5.95211h2.0141V6.68475h-2.0141v1.73984zm-3.1127 0h2.0141V6.68475H57.676v1.73984zm1.0986 3.57121c.0916-.8241.6409-1.1904 1.4648-1.1904.7324 0 1.3733.0916 1.3733 1.0989 0 .9157-1.1902.8241-2.5634 1.0072-1.3733.1832-2.655.641-2.655 2.3809 0 1.6482 1.1902 2.3808 2.655 2.3808.9155 0 1.9225-.2747 2.6549-1.0073 0 .2747.0916.5494.1831.7326h2.1972c-.1831-.2747-.2747-1.0073-.2747-1.7399v-4.029c0-1.92303-1.9225-2.19774-3.4788-2.19774-1.7395 0-3.5705.64104-3.662 2.65554h2.1056v-.0916zM65 6.59314h2.1056v5.76896l2.7465-2.8387h2.5634l-2.9296 2.8387 3.2958 4.9448h-2.5634l-2.1972-3.3881-.8239.8241v2.6556h-2.1056V6.59314H65zM73.514 9.61496h2.0141v1.46514c.3662-1.0073 1.4648-1.64828 2.4719-1.64828.1831 0 .3662 0 .4577.09157v2.01451c-.1831 0-.5493-.0915-.7324-.0915-1.5563 0-2.1056 1.0988-2.1056 2.4724V17.49H73.514V9.61496zM79.4648 9.615h2.1972v7.875h-2.1972V9.615zm2.1972-1.19042h-2.1972V6.68475h2.1972v1.73983zM83.0352 9.61496h2.0141v1.09884c.5493-.91569 1.4648-1.28198 2.3803-1.28198 2.2887 0 2.838 1.28198 2.838 3.20498v4.8533H88.162v-4.3954c0-1.282-.3662-1.923-1.3733-1.923-1.1901 0-1.6479.641-1.6479 2.2892v4.1207h-2.1056V9.61496zM95.2112 15.567c-1.2817 0-1.7394-1.1904-1.7394-2.3808s.5493-2.1977 1.7394-2.1977c1.3733 0 1.831 1.0988 1.831 2.3808 0 1.1904-.5493 2.1977-1.831 2.1977zm3.9367-5.95208h-2.0141v1.00728c-.5493-.91571-1.2817-1.28199-2.2888-1.28199-2.1971 0-3.3873 1.83139-3.3873 3.84599 0 2.1061 1.0071 3.9375 3.3873 3.9375.9155 0 1.831-.3663 2.3803-1.1904v1.0073c0 1.0988-.5493 1.923-1.7394 1.923-.7324 0-1.3733-.2748-1.6479-1.0989h-2.1056c.0915 1.7399 1.9225 2.4724 3.4788 2.4724 3.5705 0 4.0282-2.1977 4.0282-3.4797V9.61492h-.0915zM101.986 14.926c0 .9157.824 1.282 1.648 1.282.641 0 1.373-.2747 1.373-1.0072 0-.641-.915-.9157-2.472-1.1905-1.282-.2747-2.472-.7325-2.472-2.1061 0-2.01452 1.74-2.47238 3.388-2.47238 1.739 0 3.295.54943 3.479 2.47238h-2.015c-.091-.8241-.732-1.0988-1.464-1.0988-.458 0-1.19.0915-1.19.7325 0 .7326 1.19.9157 2.471 1.1905 1.282.2747 2.472.7325 2.472 2.1976 0 2.0146-1.831 2.7472-3.57 2.7472-1.831 0-3.571-.641-3.6622-2.7472h2.0142zM108.028 6.59314h2.106V12.362l2.746-2.83862h2.564l-2.93 2.83862 3.296 4.9448h-2.564l-2.105-3.4796-.824.8241v2.6555h-2.106V6.59314h-.183zM121.12 14.3766c0 .4579-.092 1.8314-1.74 1.8314-.732 0-1.281-.1831-1.281-1.0072 0-.8242.64-1.0073 1.281-1.1905.641-.0915 1.465-.1831 1.831-.4578v.8241h-.091zm-2.838-2.3808c.091-.8241.641-1.1904 1.465-1.1904.732 0 1.373.0915 1.373 1.0988 0 .9157-1.19.8242-2.564 1.0073-1.373.1831-2.655.641-2.655 2.3808 0 1.6483 1.191 2.3809 2.655 2.3809.916 0 1.923-.2748 2.655-1.0073 0 .2747.092.5494.183.7325h2.198c-.184-.2747-.275-1.0072-.275-1.7398v-4.0291c0-1.92297-1.831-2.19768-3.479-2.19768-1.739 0-3.57.64098-3.662 2.65558h2.106v-.0916zM126.338 14.926c0 .9157.824 1.282 1.648 1.282.641 0 1.373-.2747 1.373-1.0072 0-.641-.915-.9157-2.472-1.1905-1.281-.2747-2.472-.7325-2.472-2.1061 0-2.01452 1.74-2.47238 3.388-2.47238 1.739 0 3.296.54943 3.479 2.47238h-2.014c-.092-.8241-.733-1.0988-1.465-1.0988-.458 0-1.19.0915-1.19.7325 0 .7326 1.19.9157 2.471 1.1905 1.282.2747 2.472.7325 2.472 2.1976 0 2.0146-1.739 2.7472-3.57 2.7472-1.831 0-3.571-.641-3.662-2.7472h2.014zM134.211 14.926c0 .9157.824 1.282 1.648 1.282.641 0 1.373-.2747 1.373-1.0072 0-.641-.915-.9157-2.471-1.1905-1.282-.2747-2.472-.7325-2.472-2.1061 0-2.01452 1.739-2.47238 3.387-2.47238 1.739 0 3.296.54943 3.479 2.47238h-2.014c-.092-.8241-.733-1.0988-1.465-1.0988-.458 0-1.19.0915-1.19.7325 0 .7326 1.19.9157 2.472 1.1905 1.281.2747 2.472.7325 2.472 2.1976 0 2.0146-1.831 2.7472-3.571 2.7472-1.831 0-3.57-.641-3.662-2.7472h2.014zM145.289 14.3766c0 .4579-.092 1.8314-1.74 1.8314-.732 0-1.281-.1831-1.281-1.0072 0-.8242.64-1.0073 1.281-1.1905.641-.0915 1.465-.1831 1.831-.4578v.8241h-.091zm-2.838-2.3808c.091-.8241.64-1.1904 1.464-1.1904.733 0 1.374.0915 1.374 1.0988 0 .9157-1.19.8242-2.564 1.0073-1.373.1831-2.655.641-2.655 2.3808 0 1.6483 1.191 2.3809 2.655 2.3809.916 0 1.923-.2748 2.655-1.0073 0 .2747.092.5494.183.7325h2.198c-.184-.2747-.275-1.0072-.275-1.7398v-4.0291c0-1.92297-1.831-2.19768-3.479-2.19768-1.739 0-3.57.64098-3.662 2.65558h2.106v-.0916zM148.768 9.61496h2.014v1.09884c.549-.91569 1.464-1.28198 2.38-1.28198 2.289 0 2.838 1.28198 2.838 3.20498v4.8533h-2.197v-4.3954c0-1.282-.366-1.923-1.373-1.923-1.191 0-1.648.641-1.648 2.2892v4.1207h-2.106V9.61496h.092z" fill="#1A171B"/></svg>